<mxfile host="65bd71144e">
    <diagram id="RH0WzlLVpqgtRM-dff-Y" name="Page-1">
        <mxGraphModel dx="-210" dy="-2330" grid="1" gridSize="10" guides="1" tooltips="1" connect="1" arrows="1" fold="1" page="1" pageScale="1" pageWidth="850" pageHeight="1100" math="0" shadow="0">
            <root>
                <mxCell id="0"/>
                <mxCell id="1" parent="0"/>
                <mxCell id="2" value="Account" style="swimlane;whiteSpace=wrap;html=1;shadow=0;dashed=0;strokeWidth=1;align=center;verticalAlign=top;fontFamily=Helvetica;fontSize=12;fontColor=#FFFFFF;fillColor=#660000;movable=1;resizable=1;rotatable=1;deletable=1;editable=1;locked=0;connectable=1;strokeColor=#666666;swimlaneFillColor=#FFFFFF;" parent="1" vertex="1">
                    <mxGeometry x="1730" y="3660" width="420" height="320" as="geometry"/>
                </mxCell>
                <mxCell id="3" value="Signed in as user@domain.com" style="rounded=0;whiteSpace=wrap;html=1;shadow=0;dashed=0;strokeWidth=1;align=left;verticalAlign=top;fontFamily=Helvetica;fontSize=12;fontColor=#4D4D4D;fillColor=none;spacingLeft=5;strokeColor=none;spacing=0;spacingTop=-2;" parent="2" vertex="1">
                    <mxGeometry x="10" y="40" width="190" height="15" as="geometry"/>
                </mxCell>
                <mxCell id="4" value="Personal" style="rounded=0;whiteSpace=wrap;html=1;shadow=0;dashed=0;strokeWidth=1;align=left;verticalAlign=top;fontFamily=Helvetica;fontSize=10;fontColor=#4D4D4D;fillColor=none;spacingLeft=5;strokeColor=none;spacing=0;spacingTop=-2;" parent="2" vertex="1">
                    <mxGeometry x="47.5" y="135.5" width="80" height="15" as="geometry"/>
                </mxCell>
                <mxCell id="5" value="Select an edition" style="text;html=1;align=left;verticalAlign=middle;whiteSpace=wrap;rounded=0;" parent="2" vertex="1">
                    <mxGeometry x="17.5" y="110" width="150" height="30" as="geometry"/>
                </mxCell>
                <mxCell id="6" value="Educator" style="rounded=0;whiteSpace=wrap;html=1;shadow=0;dashed=0;strokeWidth=1;align=left;verticalAlign=top;fontFamily=Helvetica;fontSize=10;fontColor=#4D4D4D;fillColor=none;spacingLeft=5;strokeColor=none;spacing=0;spacingTop=-2;" parent="2" vertex="1">
                    <mxGeometry x="47.5" y="151.5" width="80" height="15" as="geometry"/>
                </mxCell>
                <mxCell id="7" value="Analyst" style="rounded=0;whiteSpace=wrap;html=1;shadow=0;dashed=0;strokeWidth=1;align=left;verticalAlign=top;fontFamily=Helvetica;fontSize=10;fontColor=#4D4D4D;fillColor=none;spacingLeft=5;strokeColor=none;spacing=0;spacingTop=-2;" parent="2" vertex="1">
                    <mxGeometry x="47.5" y="166.5" width="80" height="15" as="geometry"/>
                </mxCell>
                <mxCell id="8" value="Business" style="rounded=0;whiteSpace=wrap;html=1;shadow=0;dashed=0;strokeWidth=1;align=left;verticalAlign=top;fontFamily=Helvetica;fontSize=10;fontColor=#4D4D4D;fillColor=none;spacingLeft=5;strokeColor=none;spacing=0;spacingTop=-2;" parent="2" vertex="1">
                    <mxGeometry x="47.5" y="181.5" width="80" height="15" as="geometry"/>
                </mxCell>
                <mxCell id="9" value="" style="ellipse;whiteSpace=wrap;html=1;aspect=fixed;strokeColor=#660000;" parent="2" vertex="1">
                    <mxGeometry x="37.5" y="155" width="10" height="10" as="geometry"/>
                </mxCell>
                <mxCell id="10" value="" style="ellipse;whiteSpace=wrap;html=1;aspect=fixed;strokeColor=#660000;" parent="2" vertex="1">
                    <mxGeometry x="37.5" y="140" width="10" height="10" as="geometry"/>
                </mxCell>
                <mxCell id="11" value="" style="ellipse;whiteSpace=wrap;html=1;aspect=fixed;strokeColor=#660000;" parent="2" vertex="1">
                    <mxGeometry x="37.5" y="170" width="10" height="10" as="geometry"/>
                </mxCell>
                <mxCell id="12" value="" style="ellipse;whiteSpace=wrap;html=1;aspect=fixed;strokeColor=#660000;" parent="2" vertex="1">
                    <mxGeometry x="37.5" y="185" width="10" height="10" as="geometry"/>
                </mxCell>
                <mxCell id="13" value="" style="ellipse;whiteSpace=wrap;html=1;aspect=fixed;strokeColor=none;fillColor=#660000;" parent="2" vertex="1">
                    <mxGeometry x="39" y="156.5" width="7" height="7" as="geometry"/>
                </mxCell>
                <mxCell id="14" value="" style="shape=image;verticalLabelPosition=bottom;labelBackgroundColor=default;verticalAlign=top;aspect=fixed;imageAspect=0;image=data:image/svg+xml,PHN2ZyB4bWxucz0iaHR0cDovL3d3dy53My5vcmcvMjAwMC9zdmciIHZpZXdCb3g9IjAgMCAzODQgNTEyIj48cGF0aCBkPSJNMzQyLjYgMTUwLjZjMTIuNS0xMi41IDEyLjUtMzIuOCAwLTQ1LjNzLTMyLjgtMTIuNS00NS4zIDBMMTkyIDIxMC43IDg2LjYgMTA1LjRjLTEyLjUtMTIuNS0zMi44LTEyLjUtNDUuMyAwcy0xMi41IDMyLjggMCA0NS4zTDE0Ni43IDI1NiA0MS40IDM2MS40Yy0xMi41IDEyLjUtMTIuNSAzMi44IDAgNDUuM3MzMi44IDEyLjUgNDUuMyAwTDE5MiAzMDEuMyAyOTcuNCA0MDYuNmMxMi41IDEyLjUgMzIuOCAxMi41IDQ1LjMgMHMxMi41LTMyLjggMC00NS4zTDIzNy4zIDI1NiAzNDIuNiAxNTAuNnoiIGZpbGw9IiM2NjAwMDAiLz48L3N2Zz4=;movable=1;resizable=1;rotatable=1;deletable=1;editable=1;locked=0;connectable=1;" parent="2" vertex="1">
                    <mxGeometry x="310" y="280.00000000000045" width="18.75" height="25" as="geometry"/>
                </mxCell>
                <mxCell id="15" value="" style="shape=image;verticalLabelPosition=bottom;labelBackgroundColor=default;verticalAlign=top;aspect=fixed;imageAspect=0;image=data:image/svg+xml,PHN2ZyB4bWxucz0iaHR0cDovL3d3dy53My5vcmcvMjAwMC9zdmciIHZpZXdCb3g9IjAgMCA0NDggNTEyIj48cGF0aCBkPSJNNDM4LjYgMTA1LjRjMTIuNSAxMi41IDEyLjUgMzIuOCAwIDQ1LjNsLTI1NiAyNTZjLTEyLjUgMTIuNS0zMi44IDEyLjUtNDUuMyAwbC0xMjgtMTI4Yy0xMi41LTEyLjUtMTIuNS0zMi44IDAtNDUuM3MzMi44LTEyLjUgNDUuMyAwTDE2MCAzMzguNyAzOTMuNCAxMDUuNGMxMi41LTEyLjUgMzIuOC0xMi41IDQ1LjMgMHoiIGZpbGw9IiM2NjAwMDAiLz48L3N2Zz4=;movable=1;resizable=1;rotatable=1;deletable=1;editable=1;locked=0;connectable=1;" parent="2" vertex="1">
                    <mxGeometry x="340.6199999999999" y="280" width="21.88" height="25" as="geometry"/>
                </mxCell>
                <mxCell id="19" value="10 of 100 GiB&amp;nbsp;&lt;span style=&quot;text-align: right;&quot;&gt;Storage Used&lt;/span&gt;" style="text;html=1;align=left;verticalAlign=middle;whiteSpace=wrap;rounded=0;fontSize=10;" parent="2" vertex="1">
                    <mxGeometry x="163.12" y="147" width="157.5" height="15" as="geometry"/>
                </mxCell>
                <mxCell id="20" value="2 of 100 GiB Bandiwidth Used&lt;span style=&quot;color: rgba(0, 0, 0, 0); font-family: monospace; font-size: 0px; text-wrap: nowrap;&quot;&gt;%3CmxGraphModel%3E%3Croot%3E%3CmxCell%20id%3D%220%22%2F%3E%3CmxCell%20id%3D%221%22%20parent%3D%220%22%2F%3E%3CmxCell%20id%3D%222%22%20value%3D%22%22%20style%3D%22shape%3Dimage%3BverticalLabelPosition%3Dbottom%3BlabelBackgroundColor%3Ddefault%3BverticalAlign%3Dtop%3Baspect%3Dfixed%3BimageAspect%3D0%3Bimage%3Ddata%3Aimage%2Fsvg%2Bxml%2CPHN2ZyB4bWxucz0iaHR0cDovL3d3dy53My5vcmcvMjAwMC9zdmciIHZpZXdCb3g9IjAgMCA1NzYgNTEyIj48cGF0aCBkPSJNMTkyIDY0Qzg2IDY0IDAgMTUwIDAgMjU2Uzg2IDQ0OCAxOTIgNDQ4bDE5MiAwYzEwNiAwIDE5Mi04NiAxOTItMTkycy04Ni0xOTItMTkyLTE5MkwxOTIgNjR6bTE5MiA5NmE5NiA5NiAwIDEgMSAwIDE5MiA5NiA5NiAwIDEgMSAwLTE5MnoiIGZpbGw9IiM2NjAwMDAiLz48L3N2Zz4%3D%3B%22%20vertex%3D%221%22%20parent%3D%221%22%3E%3CmxGeometry%20x%3D%22553.8899999999999%22%20y%3D%223905%22%20width%3D%2216.88%22%20height%3D%2215%22%20as%3D%22geometry%22%2F%3E%3C%2FmxCell%3E%3CmxCell%20id%3D%223%22%20value%3D%22User-defined%20Tags%22%20style%3D%22rounded%3D0%3BwhiteSpace%3Dwrap%3Bhtml%3D1%3Bshadow%3D0%3Bdashed%3D0%3BstrokeWidth%3D1%3Balign%3Dleft%3BverticalAlign%3Dtop%3BfontFamily%3DHelvetica%3BfontSize%3D8%3BfontColor%3D%234D4D4D%3BfillColor%3Dnone%3BspacingLeft%3D5%3BstrokeColor%3Dnone%3B%22%20vertex%3D%221%22%20parent%3D%221%22%3E%3CmxGeometry%20x%3D%22570.9%22%20y%3D%223900%22%20width%3D%22170%22%20height%3D%2230%22%20as%3D%22geometry%22%2F%3E%3C%2FmxCell%3E%3C%2Froot%3E%3C%2FmxGraphModel%3E rt&lt;/span&gt;" style="text;html=1;align=left;verticalAlign=middle;whiteSpace=wrap;rounded=0;fontSize=10;" parent="2" vertex="1">
                    <mxGeometry x="163.12" y="165" width="157.5" height="15" as="geometry"/>
                </mxCell>
                <mxCell id="21" value="15&amp;nbsp;&lt;span style=&quot;text-align: right;&quot;&gt;Days left in billing cycle&lt;/span&gt;" style="text;html=1;align=left;verticalAlign=middle;whiteSpace=wrap;rounded=0;fontSize=10;" parent="2" vertex="1">
                    <mxGeometry x="163.12" y="128" width="177.5" height="15" as="geometry"/>
                </mxCell>
                <mxCell id="22" value="Allow overages&amp;nbsp;&lt;div&gt;($0.10 / GiB will be charged at the end of the billing cycle)&lt;/div&gt;" style="rounded=0;whiteSpace=wrap;html=1;shadow=0;dashed=0;strokeWidth=1;align=left;verticalAlign=top;fontFamily=Helvetica;fontSize=8;fontColor=#4D4D4D;fillColor=none;spacingLeft=5;strokeColor=none;" parent="2" vertex="1">
                    <mxGeometry x="193.01" y="185" width="147.99" height="30" as="geometry"/>
                </mxCell>
                <mxCell id="23" value="" style="endArrow=none;dashed=1;html=1;dashPattern=1 3;strokeWidth=2;rounded=0;" parent="2" edge="1">
                    <mxGeometry width="50" height="50" relative="1" as="geometry">
                        <mxPoint x="137.5" y="100" as="sourcePoint"/>
                        <mxPoint x="247.5" y="100" as="targetPoint"/>
                    </mxGeometry>
                </mxCell>
                <mxCell id="24" value="Share my email address" style="rounded=0;whiteSpace=wrap;html=1;shadow=0;dashed=0;strokeWidth=1;align=left;verticalAlign=top;fontFamily=Helvetica;fontSize=8;fontColor=#4D4D4D;fillColor=none;spacingLeft=5;strokeColor=none;" parent="2" vertex="1">
                    <mxGeometry x="34.51000000000022" y="60" width="151.49" height="17" as="geometry"/>
                </mxCell>
                <mxCell id="25" value="user@domain.com" style="rounded=1;whiteSpace=wrap;html=1;strokeColor=#333333;fontColor=#808080;fontSize=9;align=left;spacingLeft=15;" parent="2" vertex="1">
                    <mxGeometry x="221.5" y="60" width="141" height="17" as="geometry"/>
                </mxCell>
                <mxCell id="26" value="Display Name" style="rounded=0;whiteSpace=wrap;html=1;shadow=0;dashed=0;strokeWidth=1;align=left;verticalAlign=top;fontFamily=Helvetica;fontSize=8;fontColor=#4D4D4D;fillColor=none;spacingLeft=5;strokeColor=none;" parent="2" vertex="1">
                    <mxGeometry x="221.49999999999977" y="38" width="151.49" height="17" as="geometry"/>
                </mxCell>
                <mxCell id="27" value="Alert Threshold" style="rounded=0;whiteSpace=wrap;html=1;shadow=0;dashed=0;strokeWidth=1;align=right;verticalAlign=top;fontFamily=Helvetica;fontSize=8;fontColor=#4D4D4D;fillColor=none;spacingLeft=5;strokeColor=none;spacing=-1;spacingRight=15;" parent="2" vertex="1">
                    <mxGeometry x="214.5" y="220" width="80.49" height="20" as="geometry"/>
                </mxCell>
                <mxCell id="28" value="$50.00" style="rounded=1;whiteSpace=wrap;html=1;strokeColor=#333333;fontColor=#808080;fontSize=9;align=left;spacingLeft=15;" parent="2" vertex="1">
                    <mxGeometry x="291.25" y="220" width="62.5" height="17" as="geometry"/>
                </mxCell>
                <mxCell id="29" value="Limit" style="rounded=0;whiteSpace=wrap;html=1;shadow=0;dashed=0;strokeWidth=1;align=right;verticalAlign=top;fontFamily=Helvetica;fontSize=8;fontColor=#4D4D4D;fillColor=none;spacingLeft=5;strokeColor=none;spacing=-1;spacingRight=15;" parent="2" vertex="1">
                    <mxGeometry x="214.5" y="240" width="80.49" height="20" as="geometry"/>
                </mxCell>
                <mxCell id="30" value="$100.00" style="rounded=1;whiteSpace=wrap;html=1;strokeColor=#333333;fontColor=#808080;fontSize=9;align=left;spacingLeft=15;" parent="2" vertex="1">
                    <mxGeometry x="291.25" y="240" width="62.5" height="17" as="geometry"/>
                </mxCell>
                <mxCell id="31" value="" style="shape=image;verticalLabelPosition=bottom;labelBackgroundColor=default;verticalAlign=top;aspect=fixed;imageAspect=0;image=data:image/png,iVBORw0KGgoAAAANSUhEUgAAAGMAAABJCAYAAAApDJjFAAAAAXNSR0IArs4c6QAAAARnQU1BAACxjwv8YQUAAAAJcEhZcwAAITcAACE3ATNYn3oAAAASdEVYdFNvZnR3YXJlAEdyZWVuc2hvdF5VCAUAAAW4SURBVHhe7Zx/TFZlFMdplS2rVba0pW3ZlrZltdRWWTY3nfMf3fw155wbTSOhibLhQG3RIrDJ2l6TILNRIDFDNO1NGI6iGJAVUsQSCwMXFoKDZSON+uPU993jcu1473Of+4MD936273/c55zn+XJ/nefcN4kixBCZIYjIDEFEZggiMkMQkRmCiMwQRGSGICIzBBGZIYjIDEFEZggiMkMQgZsxePYsfROP0+d799JHublUlpZGu5cto9fmzQtMbyxdSu9t2EAf5uTQp8XF1HLoEPW0t6sMR45AzOior6fKrCx6aeajlHxNklhlTbufPtiyhb6rqaG/Ll1S2QeHb2b8OTRE8bw8ypo+jZ24dKXfNYlKU1Op99QpNSP/8cWMz/69BG1/aAY7ydGmtAm3Jy5nQ4ODanb+4akZrUeO0M7589lJjXZlPzCdPikqUjP1B8/MQKLcJMaa3l67Vs3YezwxA6cxl/hY1YuPPOzLZcu1Ga888TibcBjU3dKiVsEbXJnx/C03s0mGSQM9PWo13GNsxqtPzWGTC5teuGMC/T08rFbFHUZm4O2VSyysemvNGrUy7nBsBsoHXEJh1/7MTLVC5jgyo7+rizZOmsgmEymJvo3H1UqZ4ciM9zdtYpOQrpSbxlPBwoX0TnIyHdi6lcrT06lo1apE0ZD7e1PFFi9WK2WGthk/HT/OJiBZJevXU8vBg2oGPEMDA9RcXk6vL1rEjuFUbs4ObTOKV69mg0tUbMkS+r6uTmWuT2NpKW2f8SA7pq7cnB1aZqCkzAWWKFQD3NDX2enakLajR9VoztAy40B2NhtUmtwacSVu7ifvpqSoUZyhZUbOrJlsUEl6c+VKla13mBqCvRATbM34taODDShJuEf4Qd/p04mF5WLa6avKSjWKPrZm1MZibDBJMrlZ64KXOS6mnUzOVFszvH4W91p4fPWTn9va2Lg6cortEdjh4gJJUVt1tcrUP3AZ5GLb6bfeXjWCHrZmpN52KxtIglDCDwJc/7n4djrT2qpG0MPSjOGLF9kgUoQSR1Csu2Ecm4OVnJ61lmac7+pig0gRak1BkTn1XjYHKzWUlKij9bA0o7OpiQ0iRSj6BUXunCfZHKwUz89XR+thaYabJ4kghOprUKAJgcvBSsd27VJH62FpxoVz59ggUoQyeFBsnnw3m4OVvty/Xx2th6UZgAsiRXgHCgL8U64bdz2bg5XQY+wEWzNMywFBCV3tflNdUMDGttMvJ0+qEfSwNcPkWhmk6goLVab+YboGfzhsdLM1o3DFCjaQFOXMnqUy9QfTF76NE+9UI+hjawa2JLlgklS/Z4/K1ntQ8ONi2gkfATnF1gzUV7hgkoSdOezQeU17bS0bT0dOb97A1gyAsgMXUJJgiJe4eaw3zUXLjI937GCDSlPe3Kc9abX8sbGRHV9XVdu2qZGcoWXGmRMnjAplIyG8nLUePqwydw4+fePGdSLT7nQtM4DpjtdICa1F6PXS5euqKsp/Zi47lhOZNiMAbTPQ+p5xzxQ2AcnCAqNrpLO5mc53dycuY3j+xwsZbrK4pLz82Gz2WBO5+WZD2wxQY/gmGha5OSuAIzPwXzUa2nZGSm6/ZHJkBsCp/dz4G9lkwqymsjK1QuY4NgM079vHJhRW4ZsVLzAyA2DjhEssbKrIyFAr4h5jM0DYPjn+v3YuWKBWwhtcmQF+aGhgEx3rcvvkxOHaDIAfOwnT9+DYbPIDT8wA+MWA3cuXs8mPFeGxHpVcv/DMjMt8UVEx5s4SVB7wwuvV995Xw3MzLnMsFqPM+6aykxstQnEUNTkvfwXBCt/MABf6+hJ71GgcHk0viti/wbYBqtVB4qsZV4K+XXx5ihZ+FOY2T5lMz153LbsYQQrdL2g4wF4/tpiddo57SWBmXI3f+/sTnYsoswQlxMNOnjRG3IyI/4jMEERkhiAiMwQRmSGIyAwxEP0Dc6RIvyZ5RcAAAAAASUVORK5CYII=;" parent="2" vertex="1">
                    <mxGeometry x="168.5" y="190.5" width="19" height="14.01" as="geometry"/>
                </mxCell>
                <mxCell id="32" value="" style="shape=image;verticalLabelPosition=bottom;labelBackgroundColor=default;verticalAlign=top;aspect=fixed;imageAspect=0;image=data:image/png,iVBORw0KGgoAAAANSUhEUgAAAGMAAABJCAYAAAApDJjFAAAAAXNSR0IArs4c6QAAAARnQU1BAACxjwv8YQUAAAAJcEhZcwAAITcAACE3ATNYn3oAAAASdEVYdFNvZnR3YXJlAEdyZWVuc2hvdF5VCAUAAAW4SURBVHhe7Zx/TFZlFMdplS2rVba0pW3ZlrZltdRWWTY3nfMf3fw155wbTSOhibLhQG3RIrDJ2l6TILNRIDFDNO1NGI6iGJAVUsQSCwMXFoKDZSON+uPU993jcu1473Of+4MD936273/c55zn+XJ/nefcN4kixBCZIYjIDEFEZggiMkMQkRmCiMwQRGSGICIzBBGZIYjIDEFEZggiMkMQgZsxePYsfROP0+d799JHublUlpZGu5cto9fmzQtMbyxdSu9t2EAf5uTQp8XF1HLoEPW0t6sMR45AzOior6fKrCx6aeajlHxNklhlTbufPtiyhb6rqaG/Ll1S2QeHb2b8OTRE8bw8ypo+jZ24dKXfNYlKU1Op99QpNSP/8cWMz/69BG1/aAY7ydGmtAm3Jy5nQ4ODanb+4akZrUeO0M7589lJjXZlPzCdPikqUjP1B8/MQKLcJMaa3l67Vs3YezwxA6cxl/hY1YuPPOzLZcu1Ga888TibcBjU3dKiVsEbXJnx/C03s0mGSQM9PWo13GNsxqtPzWGTC5teuGMC/T08rFbFHUZm4O2VSyysemvNGrUy7nBsBsoHXEJh1/7MTLVC5jgyo7+rizZOmsgmEymJvo3H1UqZ4ciM9zdtYpOQrpSbxlPBwoX0TnIyHdi6lcrT06lo1apE0ZD7e1PFFi9WK2WGthk/HT/OJiBZJevXU8vBg2oGPEMDA9RcXk6vL1rEjuFUbs4ObTOKV69mg0tUbMkS+r6uTmWuT2NpKW2f8SA7pq7cnB1aZqCkzAWWKFQD3NDX2enakLajR9VoztAy40B2NhtUmtwacSVu7ifvpqSoUZyhZUbOrJlsUEl6c+VKla13mBqCvRATbM34taODDShJuEf4Qd/p04mF5WLa6avKSjWKPrZm1MZibDBJMrlZ64KXOS6mnUzOVFszvH4W91p4fPWTn9va2Lg6cortEdjh4gJJUVt1tcrUP3AZ5GLb6bfeXjWCHrZmpN52KxtIglDCDwJc/7n4djrT2qpG0MPSjOGLF9kgUoQSR1Csu2Ecm4OVnJ61lmac7+pig0gRak1BkTn1XjYHKzWUlKij9bA0o7OpiQ0iRSj6BUXunCfZHKwUz89XR+thaYabJ4kghOprUKAJgcvBSsd27VJH62FpxoVz59ggUoQyeFBsnnw3m4OVvty/Xx2th6UZgAsiRXgHCgL8U64bdz2bg5XQY+wEWzNMywFBCV3tflNdUMDGttMvJ0+qEfSwNcPkWhmk6goLVab+YboGfzhsdLM1o3DFCjaQFOXMnqUy9QfTF76NE+9UI+hjawa2JLlgklS/Z4/K1ntQ8ONi2gkfATnF1gzUV7hgkoSdOezQeU17bS0bT0dOb97A1gyAsgMXUJJgiJe4eaw3zUXLjI937GCDSlPe3Kc9abX8sbGRHV9XVdu2qZGcoWXGmRMnjAplIyG8nLUePqwydw4+fePGdSLT7nQtM4DpjtdICa1F6PXS5euqKsp/Zi47lhOZNiMAbTPQ+p5xzxQ2AcnCAqNrpLO5mc53dycuY3j+xwsZbrK4pLz82Gz2WBO5+WZD2wxQY/gmGha5OSuAIzPwXzUa2nZGSm6/ZHJkBsCp/dz4G9lkwqymsjK1QuY4NgM079vHJhRW4ZsVLzAyA2DjhEssbKrIyFAr4h5jM0DYPjn+v3YuWKBWwhtcmQF+aGhgEx3rcvvkxOHaDIAfOwnT9+DYbPIDT8wA+MWA3cuXs8mPFeGxHpVcv/DMjMt8UVEx5s4SVB7wwuvV995Xw3MzLnMsFqPM+6aykxstQnEUNTkvfwXBCt/MABf6+hJ71GgcHk0viti/wbYBqtVB4qsZV4K+XXx5ihZ+FOY2T5lMz153LbsYQQrdL2g4wF4/tpiddo57SWBmXI3f+/sTnYsoswQlxMNOnjRG3IyI/4jMEERkhiAiMwQRmSGIyAwxEP0Dc6RIvyZ5RcAAAAAASUVORK5CYII=;" parent="2" vertex="1">
                    <mxGeometry x="20" y="62.98999999999978" width="19" height="14.01" as="geometry"/>
                </mxCell>
                <mxCell id="33" value="Modify Billing" style="rounded=1;fillColor=#660000;align=center;strokeColor=none;html=1;whiteSpace=wrap;fontColor=#ffffff;fontSize=7;sketch=0;" parent="2" vertex="1">
                    <mxGeometry x="328.75" y="171.5" width="80" height="23.5" as="geometry"/>
                </mxCell>
                <mxCell id="34" value="&lt;div style=&quot;text-align: right;&quot;&gt;&lt;span style=&quot;background-color: initial;&quot;&gt;2 Structures&lt;/span&gt;&lt;/div&gt;" style="text;html=1;align=left;verticalAlign=middle;whiteSpace=wrap;rounded=0;fontSize=10;" vertex="1" parent="2">
                    <mxGeometry x="163.5" y="110" width="177.5" height="15" as="geometry"/>
                </mxCell>
                <mxCell id="36" value="Stripe Subscription Billing API" style="swimlane;whiteSpace=wrap;html=1;shadow=0;dashed=0;strokeWidth=1;align=center;verticalAlign=top;fontFamily=Helvetica;fontSize=12;fontColor=#FFFFFF;fillColor=#000099;movable=1;resizable=1;rotatable=1;deletable=1;editable=1;locked=0;connectable=1;strokeColor=#666666;swimlaneFillColor=#FFFFFF;" vertex="1" parent="1">
                    <mxGeometry x="2220" y="3743" width="200" height="200" as="geometry"/>
                </mxCell>
                <mxCell id="67" value="" style="shape=image;verticalLabelPosition=bottom;labelBackgroundColor=default;verticalAlign=top;aspect=fixed;imageAspect=0;image=data:image/png,iVBORw0KGgoAAAANSUhEUgAAAggAAAHwCAYAAADD1ZeKAAAAAXNSR0IArs4c6QAAIABJREFUeF7snQd8VFX2x38zSSa995AeWiCB0HvvTVQUVBR7L2tZXXdd6+q61tW1YkMFC9Kr9N577xDSQ0hvM8m0//+cyYQAASYNZjLn7vIRkvfuu/d773v3d885916F0Wg0QpIQEAJCQAgIASFglwR0egPUGh10ej1UKqdqBgoRCHbZH6TSQkAICAEhIASYAFkJNBodKip1cFI5ikCQfiEEhIAQEAJCQAiYCOh0BqgrtFA6OIhAkE4hBISAEBACQkAImAgYDEZUaPUw1Ag6EBeD9A4hIASEgBAQAkIAlVoDtHqDWBCkLwgBISAEhIAQEAIXCGh1BlTqRCBInxACQkAICAEhIARqEBCBIN1BCAgBISAEhIAQuIwACQSKQ6CkUCggMQjSSYSAEBACQkAICAFodXpUVJoEAhpFIBi1gILWTSoErxAQAkJACAgBIWCjBFggkAWhaiVDPS0IBhi1mTCUroJRfQhQukPpMRBK9z6AQmWjaKTYQkAICAEhIATsl0C1QCAERtTdxWDU5cBQ+DsMpWtg1OUCBjWgUAJKTyhUMXDwuR1K9/6A0s1+KUvNhYAQEAJCQAjYGIGLBAL5BSzdatmoy4I+70cYiucBRt1Vqq2AwrklHPzuh8J9ABRKVxtDJMUVAkJACAgBIWB/BOonEAxlMJSuhr5oIVB5FkZ9Ie27VCs93tPZYEC+ToezbkPgFzwOYc6t4O0QBJVCxIL9dTmpsRAQAkJACNgCgXoJBEPxUhjVe6FwTYBRlwdjxTEYNcdg1GVfZE0o1utxWqPGnpISrC0sQDYq4NUGaOPWDX08bkeCa3+Eq+LhpvRqMCuDwYDKSi30hsuFioNSCWdnFS/TsIWk11PkqBbOKic41NgHm8quqajgLTBdXV0kDNQWGlPKKAR421oDKrU6mA/LpW8Rvd8N/SbR906r1cLF2dnqOVdUVMJQdVgwfYqdHOn7pqy13FqdDkaD8aKTBC+9sFKrZb94zdMGbyQEtaYCVEdqV/o+N4dUL4GgL/gZ+rypAJRQunaCwqU9oHCAUZsNo3onijSp2F1SiN0lJdhbUooMTQWoXyhVgC9dqgQcFSpEqOKR5DYUHd2GoIPrIDgp6g81v6AIqzfuQHZO7mXtEhIUgBGDesPL090m2iw5JQMr1m3FiEG9EB3Z4qIyL1m5AefO5+OeiWPh5HjhlC2bqJgUUgjYKYG8giLs2ncERcWlTECpVMLfzxvtWsciONCv3lSyzp3HvkMn+PumVNZtAqTT6ZGbXwg3V2d4eXrUuwyW3EiTnrWbd6GgsNg0FigV8PRwR+u4KES2CL5sInTo2GmUlpWja1I7OF4ySTI/j3jqdDr07NrBkiI02TU0MT126ixOnkllEejs5Ig2LaPRKjayXuKF2iU5NQNR4aH1up/KQ+3q7eUBd7eGWekbJhAoIJF7uxvHGSicW0OvL8Xx/GX4Kv0k9hWWVi+P4MtqCARzazkr3dDX43ZM9n8LgY6R9W7EnNx8LF+7BdnnclFQVIL9h45zA7UIDUJoSCDGDR/AwGwhbdu5H//5bBpe/suD6Nkl8aIiz1m8CmkZ2XjygTvg5CQCwRbaU8ooBM6mZeLP1VsQGxmGoEB/GI0GHD5+Bk5OThg3rB/c3ev3IT987DTm/bkWf3/mgSvOxq9Ev6S0HJu270VkixC0axPbYGvG1VqZrByffTcT0ZFhiIlswRaVlPQsFBSWYPzI/gjw973o9jMp6VCrK9C2VcwV63XsRDJ0Bj0S2ra8YR1Mrzdgz4Fj2L3/COJbx8LP1wvncwtYLPTu3hEJbePqzLWsTI1vps/FlIljWUTWNZEYpXbt2L41oiPC6nr7RdfXUyD8BH3eN6YVCzWT0gW7yiow73wyEtxd4QgFluTmIblMY9IRNQSCg8IJrZy7Ybj3g9AaK7CtdB6eCf4eAY4R9aoQNRSZeAwGPY6cOIP3/jcN90wch749krDn4DG4OqvQr2dnVq/HT59lS0NIYAArtYiwYOw/coLFTJekdtwplQoFzucVYO2mnSgpLUPLmEhWs6TIyEy4ddcBHD1+BkGBfqyEKfXokogdew6hXK1BUKAvdFo9Etq1wunkNO5A9FLQjKFrUnvOm8oVGRaC/UeO87Mp/zatYrBj1wEWCPffdTNKS8vh6OiAPt2TEB4WjDWbdiArOxeTbh4Bg9GAg0dO4eCRE1A6KDGgV1dERYTWi5/cJASEQNMRIIGwdtMuDOjdBbFRJqtgSloW5i9bh0F9ukKpUMLNzRlpmefQrSOZWcECIud8Hn9jkhLasMWQviEZWedx+PhpNmW7ubpg5YbteOmp+5CVfR40U6dBmCwUNHD5+njygEzfpKMnkpGRnYNAfx8kJbTF8VMp/H3z9/NBN/r2tIxGXmER9h44Br1Oj7atY1g8XMkNUBdaZoEwsE8XdO4Qz99hsn7M/3MthvTrweWj72hJaSm8vTw5azLXk4WB3DCp6Vk4evIsVCpHJCW0hp+PN06eSWMLQlxMBE6fTYOzkxNSM7NRXq7h+rUIDeR8snPycPDYKXZBx7eMQUlZGTPybgSrCU1MF6/YiPhWMfz9pkkbuYH3Hz7J3JLat0FRSSn2HjwOjaYCLWMi0Co2gi0mB46chKenOzKzz6OoqITHndDgAOzcexiLV27g8aptlSUiPTMHR0+egaaiEi2jw/la4lJcUsr9hMaTFiFBiG8dg32HjmPLjv3cdl07ta/ub3VpL/O1lTo9Kqt2UqSfWbSKQV9wBYEAYF1BIT5JS0ORXodIdxdMCg6C1mjEH9k5yNJVwKc9EOfaCbf5/Q3OCnfMK/gAxzXboTVW4tPI3Yh17lSfelx0z8GjJ/H6e1/h4XsmYPjAXvjm59k8oH/5/is8uH8ydQY3ZKeENpgxewly84vg5+sNtVoDXx8vPPnAJIQFB+Lv//4fCgqK2QqRkZWDm0YOxB23jMCq9Tvw5bSZ8HR343zyC4t54H/luYfw/uc/glQ9NR4Jhg7tWuH3ecv43/TSVlRW4v47x8PH2xNffD8TpPbMzyb1SZaBCk0FCwSKQ6BORianQX274aG7b8W3P8/GgaMnMfXD17B+y2788Ms8eHi4oaxczR+Hj9/6K2KjwxvMUDIQAkKg8QjUJhBI3K/etAM9Oydi577DoMGGrJ4jB/fBxm17eCLQKi4SR48nsxV00s3DeNY9a+EqhIUEwtXFmQcD+gb99fEp2LxjHw8gwwf25J/RjL1NXCT69EjCn6s3c/5x0RGgmbenlwcS28Zh/dY9POvtntQeLWMj8ek3v/Ig5uLijGMnz2LssL7Vg3RDaFwqECivU8lpWLJyE8aPGsDWlZzcPBYHg/t241l4cWkZxg7rhxNnUjF3yRouL1k9CotLMGXSWGzato+FBbliSWhQfiSk8vIL2ZXz4N238Dd99qLV8PPxQkhwAHbtOwxnlQq3jhncKJOpIyeSsXXnfowc3JvHCXMyx5rk5BZg2q8LEBMdDk8PN5w8nYIuHduhd7eO+PH3hSxyEuLj+BtfVFzCbZ+ReQ5/rtnMrhMaV0gELl21CQH+PnB1ccH23Qdx14RR7JpauGw9tHo9IsND2GoeFR6GkCB/Hu/CQ4PRvXN77lP1TSQQKip11VaQRhMIBTrT0keaibfxcMWoAD+UKpwR3vpleDj5Y3HB5zis3gA9LiyR/CRyD+IaQSBs3r4XH301nQXCqCF9GOin3/yCR++9nQfPN977CuNGDkBwgB+++OF39O3ZGY9OuQ3HT53FB5//hH69OqO0tAxrNu3Ef99+ESGB/pi7dA3WbNyOJ+6fhKk/z+ZAwU/efpEb9atps1BSVo5/PvcQ3vtsGlslHph8C8/oDxw+jl37j2D8yEEoLC7m/KlDk6r/4oeZ6N+rCx6ZMgHHTibjwy9+5hkGKb9PvvkF40YMwMTxI/DL7CUg0fPCE1Mwc95yHDhyAu+++hd+mSPDgtnSoNPr8cnUX3D3baNZXUoSAkLAegiQQJi/dB0P3B7urjybJT9x3x6deLCnWeiQ/t3Rvk0sss7lYtbClbht3FAedMja+dWPs/HIPRNw8MhJ/tbQoKpycsLK9duxfc/BGgKhgidF9Jz/ffs72sRFISYqDJt27MOwAT3ZWlpapuYBJKl9K44LINHQuUNbLg99y+6+fQxbGUhsUGwCWSoamswCQaFUws/HE1qtjl3BbVtFY0i/7vjp98VQOTvivkk38aRo9cad/G0lgTD15zno0L41BvTqzJMmstLSoEqz5LJyDQ/OJBBiIsLQq3tHHmxp8jV6WF+2HpzLycPY4f2ZO7kuFi7fgJtHDUJ0I1hb9x8+wSJt1JC+CAq42E1CzKhdy9RqTBo/nAM06Xpqw9FD+mLh8nXwcHfHxPHDWBCRiEtKbMP1+M9nP+IvD9/J1iOyDpC4Cwrw4/H0jwUr0aZlFHy8vXgySmMciYfcvAK2ssRFh3M8Xo/OCSzuGpLMAoGtB5ZutawvmG4KUjSUX/ZsswXBLBDMF1D8TDs/f/i0aYXjlTvYB3dpaiyBQP6Xj2sIhOKSMrz5wddwc3NBt04JWL5mM5577B4G+vn3v+Gph+5iXz81wlfT/mBT17nzedww333yBjfKhm17eLY+ecJoVn7t28bhH88+xG6Nab/Ox6mzaXjlWZNAoBfwo7degIuzijvkynXbOD8KLqSXfcLYIdUC4ZlHJnND0u++mjaTLRhkVvrqx1kcg9ClYzwWLlvHpkAq8x/zTQLhjZcex3v/+wFjhvfHLaMHs3WCVGtDo6Ib0pnkXiEgBGonYI5BiKEYBPrQK5UICfbnyQcFJa/bshujhvQGBVTTR5+sg/ffNZ6tBBTR/8EXP2PUoN44cToF/v6+GNq/Oz/IHINwwYJwqUCI5JiHoyfOYPTQvmy5NCeaZVPcllkgkPti0fINOJebz+Z3Mnd3TGgNnyqTf0Pa1iwQyAVKkyMKUiQ3AT2DxMxX02ajbasotpRSMguEEQN74eOvZ/CMmQa+mmnJyo3VAoHKnRgfh8R2rdgN88UPf7DwOJueBVrFRvmS0CERNGfRaowY3LtRBAK5bTbvMFkQwsMuWBBIyOh1OsxZsobjAPr1NFnGz6RksKVnYO8uWLl+G+KiIzGgd2dQkP2Kdds4FuRSgUAWk0NHT/EYQRYUikHr1bUDBzDSfcMH9WIrgznlnM/H8nVbG10gsEiwZKMkQ8lK6M9/DKPunMUCgS5UeQOecXzmQ62pqQQCPey3ect4cCU/Pvmfnn7wTuw5cJQFwtiqmXry2XT879tf0b5tS/bt7D5wFJ++8xJ8vb2wdNVGLF6xAY9MuQ0//7GIFfBfn7wXtNRmxqzFUGsqqy0Iao0GH775V67j1z/+wS8xzfJpACfXxKjBfaoFArktbh8/HGeqnk0uCXqBPvvuNxYIXTvGY0EtAuHtfzyN/349HYnxrTD5tjHQ6XVYu3EnuzVoRiJJCAgB6yFQm4vBXDoSCGTqp0GGzMPJqZlYtHw97rx1JAL9fTny/7PvZ+KuW0biyMkzHK9Es2OK7t+ycz9bOlkg7NzPlk8a/FROjvjoqxnoEN8SES1CsHPfEbZcUv5kGTh9Nh0hgX480zQLBPo5+cIpnon84lt2HkD3Tu3ZukCCpiGpNhdDzfxIIMS3jsbAPl0vEgijh/TBF9NmoX+vzhwnQWIpOSWT4wvWbd51VYFAFhOa9GWeO48xQ/vxKrajJ5N5wkbf3cawIFD+S1dtZvFCgzbFi1HsBMUc0NL6U8mp7NK4aeQA/v5TvADFhpAbiMaUqwmEZx6+ky0523YfZBFJLgeyAE37fSFaRkewy4IEB/UbEn4UK5d5LhdeHu5YtWH7jRMI0BdAX7IMhqL5MFacvKjf1GZBUDgATl6AaxDgdJWFBE0pEFIzsvHcP9/nQ6SefXQyB4Bs23WABYKjoyPHClAsApmj7rvzJrYifPTlT7zMMLhKgdOLNGXSODYRff797yw2SJWmZWYjJCjwMoFAOujLaX+wECHXAVkRKABlwrihiK1yMZB65mfnFbJyp/gEJRR4/4sfryoQvnj/HyxYNmzdw52TTJYUm/DO358SF0NDvmRyrxBoAgJ1EQi0vI9M5m4uLhyAR8GEZAW9+/ZROH2WxMRutG8TxxZK+p7QDPNvT93HgdY79hzm7wn55skKQWZ5CrxetX47z9QpQPJsWhYvIRwzrC//nAYuCuozmfZ3sB+fZt3kGqVBLyG+JVtRG5LqKxDGDe/PA+TBo6fYmkqxViQQbh0ziMWR2cVQmwWBZtY0WNJsmtwx9Hf6BlMe4xvJxUCuXXIbkNuD/P9hIQGggML0rHPo16MTCysSJBQsSNagQ8dOsQWJxoNf5yytVSC0ionAe5/9hF7dOnBAIwWlnjqTio4Jbbjsqzfs4HZt0yqahYC/rzfHGxw9dRauLir07toRS1dv5riLxPiWPCGub6IARdNxz6bTmiyyIPCVBjX4HIbybTAUzoGx8hT/uKZAoP0OnLwBF3/A0Q1QXuOQx8YSCARz5YZtLALMS2Cogz724jusuj944zn2rZkFwrCBvdlUQ+9AUmJbdO+UwB2KVkNQ3AH5jihokeIFyASYkp6J3fuOckQtB43sOcBuhZeevh9rNu7gjUvIKkAvGZmDVqzfipKSMvj5+sAII1rFRPImRxSDMGJwHw6qMT07nhU7LdWkIBXyLVGn23/4OMdHDB3Qk4Ns0jPP4d47xvNsgcxVJ86kQGEEevfohE6JbRvFZ1jfDiX3CQEhcDkBesePnUpB67hItgrUTDQ5oEC89m1j2bRPA3b2+TwOTqSBnDbdoch9uo9mpzQLphUQNDnx8/NhV+iowb158Nh76AR/TwL8fPjfES2COcKezNM0ey0rp1VRjujasR1fczoljQUI/Z2EBfmwyXpA3ycy/5PJu6b5ur5tSwHUazbuROuWUby+/9JELpbQoAD2rVOiAEkKMOzQvhXvLUAmdioXiRgKuqNAyiPHk1GhrWSxdODwSY7XIMsC8aPYCvo5LW3Pysnlbyr9nL779M0kiwKxaYxEVmQKHj1+MoUDxYkv1TM6PJRdvmQdPnr6LE/8/Py8kNi2FVszNm3fx3ELFCdAbUXtQ+MM1YH2eEjPykFUeAhblEkgFRaXstWAXCh0Hd1HQoRY0coJFxcXdE9qx5Nb6iNkdaA60phQ33RBIJhysFwgVD9RD+hLTVsvF8zA+tx9+DglDWXuOriFAg6uV3YpXFro76JPI9gptr51qb6POgIteyT1Rr4uGlBXrN2C2YtXYfKEMZh822i+1iwQnn74LnTpEM8/M91jMqeZ8tGzdqJlSNQ5qTO89p8v2UR3201DQWtWSRSMHtYPE8YMYRMTJfMOiHQv52E0Vqtw6jQUWPT5d7/jL49ORueqBjQ/21x+eh5dSx2C71cqOTiS/m5+Dv3OvHskiR+JQWhw95EMhECjE6B31hwjdOk7euF39L5feDS91+Z7aLJhTvx9MBh4EKegP9px0LwUkb4HNKGhGT99exSg1VOmTKvzg6L6esqL7qEH0zPMefO3UGH6fjZWoudTuWr7RlEZOAiuCgDvuFj1zaPn07/5mqpvtOm7SDU0fxcvvt/ER8Eze7KsjBnWj+M9yO9PgYt33Dy8UXc7NHOsydxcl4uZmlazcZ0urXONf5vrS7xM331TuzIjHqkVpjZmLjTtNP3O3E/M5TGvnqtvG5JA0FSaFhJYHKR4xYcZSlGsPoTPzr+Dg/qNKDeUwHiFMxrMeSjhAFelJ3p6jMezwT/Wtx5XvY/2IPhp5iJewfDYvbezaY4SmYbIzHP3bWM4uMXSRFHG306fg+OnU+CicuJVEBQVSwGGliZakvLLnKW8GUZCvOXPtjR/uU4ICAEhYO8EKIicZurkiiE3LAVJUrBmQ3avtCemNQUCiwRLghSvBajSqMHW0nlYX/ILzlYcQL4+C/pLTnx0UDjCzyEMLV26oL/nnejlfjNo8yRbSqy8qxStLZVbyioEhIAQsCcCPAM3GNj8L8lyAhR/oKnQ1m0fBEuzLzcUY2/5CuwqW4pD6g3I0Z2FwahHmFMrJLgNQFe3UUh0GwgPZf33Ire0LHKdEBACQkAICAEhYDkBs0Bg64Gl+yBYnj15iIwo0efhdMUe/qOAEnHOnXlDJE8H/7pkJdcKASEgBISAEBAC14lATYHAIqExXAxXKju5HpRQ8kmOkoSAEBACQkAICAHrJXBdBYL1YpCSCQEhIASEgBAQAjUJiECQ/iAEhIAQEAJCQAhcRkAEgnQKISAEhIAQEAJCoBaBoIOm4sKBik0agyD8hYAQEAJCQAgIAdsgQEc9q5tqmaNtIJBSCgEhIASEgBAQApcSIIFQrqms3uVSLAjSR4SAEBACQkAICAGYBQKhaJJ9EISxEBACQkAICAEhYHsEagoEFglNuQ+C7eGREgsBISAEhIAQsE8CIhDss92l1kJACAgBISAErkpABIJ0ECEgBISAEBACQuAyAnTUs1pTWf1zRbmmko60liQEhIAQEAJCQAjYMQGdTg+tTn/hNMf8ojIRCHbcIaTqQkAICAEhIASIgNFIf4xQKKpWMYhAkI4hBISAEBACQkAImAUCkWCRIAJBOoUQEAJCQAgIASEgAkH6gBAQAkJACAgBIXAZgZoCga0IYkGQXiIEhIAQEAJCQAiIQJA+IASEgBAQAkJACNRiQTDCaDCaAhDEgiA9RAgIASEgBISAECACJA5oFYMIBOkPQkAICAEhIASEQDUBEggGg+HCaY4SgyC9QwgIASEgBISAECDrgUFvMLkXFAoJUpQuIQSEgBAQAkJACJg2SSILAtjLIAJB+oQQEAJCQAgIASHAOylWCQQOSJBljtIphIAQEAJCQAgIAYCtBxykWJVkHwTpFkJACAgBISAEhAALBHOQIuEQgSCdQggIASEgBISAEKgWCCwOJAZBeoQQEAJCQAgIASFABNiCoNfLPgjSHYSAEBACQkAICIELBKoFgsmEIC4G6RxCQAgIASEgBIRADQuCCATpDkJACAgBISAEhICZAG2SpNfrTTstiwVBOoYQEAJCQAgIASFABMwCwWRAEBeD9AohIASEgBAQAkIAYOuBbLUsXUEICAEhIASEgBC4iEBNgcBWBDmsSXqIEBACQkAICAEhQAJBr6MYBApCEIEgPUIICAEhIASEgBCocjGQQGBxIDEI0ieEgBAQAkJACAgBIkAWBJ1WZxIHIhCkUwgBISAEhIAQEAI1BYJYEKQ/CAEhIASEgBAQAtUEyL2g0+nExSB9QggIASEgBISAELhAoKZAYCuCrGKQ7iEEhIAQEAJCQAiIQJA+IASEgBAQAkJACFxGgNwL5iBFsSBIBxECQkAICAEhIASYAAkEbaVWVjFIfxACQkAICAEhIAQuEDALBPqJUqmUGATpHEJACAgBISAEhIDZgkCrGIyyD4J0CCEgBISAEBACQsBEgOIPtFqTQKAkqxikZwgBISAEhIAQEAI1BALBMIpAkD4hBISAEBACQkAIVFkQKrV0EIMIBOkQQkAICAEhIASEwAUXQ2VlJZQKJTsZxMUgPUMICAEhIASEgBBgFwMJBAUUbEUQgSCdQgg0IgG93oDcvALkFRYhyN8XAf6+1bkbDAZodXpePuTk6NCIT7XurIxGI9eb/qtSOdGnR5IQEAJWSMAsEKhoZEUQgWCFjSRFsk0CKWlZ+Ozb37D/0HGOBHZyckRiu1b461P3IiwkEBu27sHUH2ehR5dEPH7/RP69PaT0rBx8NvVXpGeewzefvAZ3N1d7qLbUUQjYHAHaB6GyopLLTVYEEQg214RSYGskkF9QhFvvfR4ZmTnw9vJgy0F6xjlUVFaySPj2k9exffdBvP3RNxjUrztef/FRnk3bQ0pOycA/3/kcyakZWD77K3h6uNtDtaWOQsDmCGi1WtAfCkAQgWBzzScFtkYCer0ej73wDjZt24PRw/rixafvR0iQP87l5OGpv/0HKWmZeOTe29iKQAJhYJ+uePLBO6DV6+Do4AAfb0+4u7tVm96LiktRXFIKvcEAlZMTfH284OrizFUnM71aU4HCohJUarVwUCrh7eUJL0/ToEu/LyktA+VB7g7K38vLA54ebrzxCf2soLAYZeXlPEdwc3Xh59dmzVCrNSioeg65BdzcXOHr7QXHS9wjlF95uQbOzir2X1ZWWU/8/Xzg4qxiYcACIeWCQNBUVHI56HpKrq4u8Pf1gVKpQElpOdfPw8MNGk0F15M4+Pl6c36ShIAQaBoCIhCahqvkascETiWnYewdT7EA+Pz9f6Bdm9hqGjv3HsbufUfQp2cnpKZl4Z2Pv0WL0CAY9AYcOHKCB9y7J43FPRPHshA4cToF302fi7UbdqCiUougQD9MGDcMd0wYCV9vT+Scz8dvc5dhwZI1yCsogpOjI4YN7oWH7rkVsVHhLEZ++GU+VqzdyiuVjAYjRgzpgyl3jENUeCi27NiHb3+ei32HjvG9reKi8PCUCejXqzOca1g0aICes2gVfpm1FHn5hTyQd+7YHo8/cDt6d0/igZwSxVW8+8kPWLxsPVrGRiI9IxsZ2ee53A/fcytuGz+My/zPf18QCA4ODpi9YCXnnZl9Hjq9DgltW+L5p+5F147xmDFrCT75agZ6d++IY6fOsiUmokUwnnzoDowdMeCictpxt5OqC4FGJ0ACwRykKBaERscrGdojgYV/rsfz//wAPbt1wLTP3rpibMHSlZvYglBSUoaRQ/uyL37Vum1wdnbCG397HAntWuGFf36IHbsPYfzogYhoEYJtuw7g4JGTePbxu3HXhFH4dvpcfPfzXHTqEI+uSe1wNjUDcxevwYjBvfH6S49h9sKV+OqHmRg7YiC6JMXj6PEzSE7NxP2Tx8PD3Q3/fPszlKk1uGX0YB7cV63fxq6Od1/7C1rFRlZbIdZt2ok33vsaYaFBGNCnbQSyAAAgAElEQVSnC7LP5WHmvGUYM7w/3vr7E2x5MAuEtz6Yihl/LEFsdDj69uzEs/zFyzegoqISb/79CbRpGX2RQEhNz8YDT7+OFiFBGNy/G9Izc7Dgz7Xo1a0jvvrwFfw0cxE+/OwnBAX4YciAHuymWbRsPZIS2nB+LWMi7LGbSZ2FQJMTMAsEepAIhCbHLQ+wBwK/zl6K1979EkP698DXH79q2mOklmQWCDQQf/DWC3B1VuE/n/4A+vnrf3uMTf3P/eN9tG4Vg68/egU+Xp7YvH0vD9Q0IE+f+i7ueuhvcHBQ4tUXH0PXpHg2xd/92CsoKirGv155Cjv3HML3M+bj1rFDeGAPDwuGo6MjoiJC8f2Mefj2pzno37sLxo7sj8pKLZav3oK1m3biw7dewIjBvXiFBbkpUtOzsO/gCTbrG2HAqTNpeP9/0zh+4t3XnuGy1RQI8xavwUNTJuDBu2+Gs0qFGbMW493/fo9bxgxhcfLm+19XuxjIHbF5xz6uL127e/8RTP1xNlrHReHXb9/F9D+WsEAgq8jjD05kNwMJCoqwJk49u3awh24ldRQC153ARQJBljled/7ywGZIYOW6bXj8hbfRsX1rTJ/67+rZNQ+gxqpDTwAWAhyD0Lcb3njpMR6Ip/40Gz/MmI/XXnoUpWVqfPC/aZh4y0i8+teHmRTFMTz98n9w6kwqFv32P4y94xl07dSeB+kAPx++5uW3PsWqddvx8rMPICwkAO/+9wecTcvkuAMvTw8kJbTGvXeOBwmZP+av4J9TvAAFIpWrNSgtK8MbLz+BSTePqI4vyD6Xyy6Ajdv2cKwAWQPI1TB0UK/LBcL7U7Fqw3b847mHOAaD0onTqRgz6UkM6tsNzzx6F4sFc5CiEQr8MGMu1m3cicLiUpSp1SgsLEFCfEv8+s27mD7LJBD+/eozuHnMIBYGj77wNqhMxKlP96Rm2IukSkLgxhOoKRDYipBfVGY6lUGSEBAC9SJwPq8Ag296iIPq/vP6sxjQu0t1PrMXrcLMuct5Zq3T6/Hvj7+rXsXAAuHn2fhhukkg0L/ffO9rDB3QAx+/8yLncTY1E8+/8gEyss5j8e+f4abJz7Ar4O1/Po3IFiF8zWMvvI09+4/i1RcfwZhh/VCu0eDg4ZPsniDhQMGB9951E4qLSzFn0Wp8+eE/eGVFzUTuB3MgJAVBUhzDl9/NxPBBvXDPHePg7+OFcXc9w7EUtVkQlq3ajL89+wBuGTOYsz1w5CQmTHkeQwf0xNOP3MmxF+Ygxd/mLOPloDTQ3z/5Zo5nePgvbyImqsVFFgR6zvjRIhDq1SnlJiFQDwIiEOoBTW4RAtci8OEXP+OH6fPQpnUMnnv8bh7Ej51Ixt//9T/Q2uKXnr6fBQRZEAb3647XXjQJgpoCoWP7NpjyxCtsdfjm49fYGrDgz3WYOm0WundJxEdvv4Dn//kh9h08jqcfuYuFRFp6Nt8TGhyIT979G44eP43ikjIMG9iTlxPu3HMYT770b0y+bTSiIkPxxXcz0alDW7z19yd5r3WKFaAgyqcevhNtW0XzSof8wmJ8/MV0rFy3Fe+/8RySEttg/+ETeOTZN9kiQPEK5B6gRHEMb70/Fb/O+ZPjE554cCI8Pd3x1n++ZuvDQ1NuxbgRA/EqBSlWLXMkEbR15348+/g9XM4NW3bjlXc+Q1x0BH799j8cpEgWBBEI1+p18nsh0LgERCA0Lk/JTQgwAZp1v/7ul7wZUmFRMe9CRtH5fr4+GD2Ulj7ei7Wbdl1VINw8ehB++GUBfvxtAW+0FBzoh+ycPIQEBeDtfz6FxPiW2LXvCA/IZLWgpZRpGefg7uaCB+6+GcMH9WZf/pIVGxAaEsgWhiPHz3BwIs3iyTXx4ec/gWb7NMB7uLty/hTsSO6JyPBQrgu5E2YvXIVPp85AcJA/ggP8cfJMKnJy89GnRyf8+9WnOYCwWiB8MBW/z13Gz6GVGBRjkJtfiG6d2uGtfzzJoqPmMsfla7biw89/ZPdHi5BApGZkcz1iIsMw++eP8ducP0UgyHslBG4AARII9P6b46jExXADGkEe2TwJ0N4DtCrg0NFTPEjS2n4a1EcN68txCTRYr1i7Ba1iozBiSG+OAdiycx+27TyIkUN6s9mf3BDL12zB7r1HWHQEBvhyJD/lQ8sDSTjsO3gM6zbvQm5eIefbo2sim/IdHB2QkZXDvn0a0MvK1fD39eJBnQL7aLXC+dwCLFm5ASdPp/Lsn0QBCQsy75uXLlLrkABZuXYr50OWDloOSTEAIcEBGDu8P28GVVMgLF25kS0ItFdCbm4BC4WxI/pzXAEtx1y6YiPyCgp5B0mtTodFyzbg+KmzUCoUiIsJZ4FAguXBe27F3oPHsGbDDowbMQCJ7VryfhAUO0EukpFD+nBZJQkBIdD4BMwCgXImkSACofEZS452ToAGcVqa5+LsfNmmQpaioUGUVhlQHrRq4dJEQqJCU8nBhpduXETX0uZCGk0l3N1deTOlSxNtVER7Mbi6OvMMv7ZEwUm0CRT9lsRJbYldDB9MxbLVm/Hysw+ySKioqGChQIP/lZLRaHJPUKqtfpZykuuEgBBoPAIiEBqPpeQkBOyewKUCgdwkkoSAELBNAjQpMe9uKhYE22xDKbUQsCoC5Mogqwm5VGruxmhVhZTCCAEhcE0CJA5MMQgKcTFck5ZcIASEgBAQAkLATghcLBDkNEc7aXapphAQAkJACAiBqxMQgSA9RAgIASEgBISAELiMgAgE6RRCQAgIASEgBISACATpA0JACAgBISAEhMC1CZgtCHQlByrKWQzXhiZXCAEhIASEgBBo7gREIDT3Fpb6CQEhIASEgBCoBwFa4kgbnZk3TxMLQj0gyi03ngBt0FNaVl69Zpd27qNth+uaaBthOvKYdht0cXG26HZ6iUrKyvn0Q3c3V4vuacyLqMxmE2Bd8jXdZjp+ujFSfctR12ebnmNal91USafT89bUtPOk4xV2jWyqZ0u+QsBaCIhAsJaWkHLUmwANGGdS0nH46CneUpiSu5sbOndsxwcc1SXRBj879h6El4c7Etu1vuatBoMRO/YcQEpaJjomtEXrltFX3VL4mhnW8QLaYjnrXC5UTo4ICvTnbZAtTXSAEp1nEB158bkLlt5/6XV07gN9UGKjw+ubhUX3nU5OYyFG50A0VcovKMaOPQfRo0sCfH28m+oxkq8QsGoC9D5rNBooq7ZnFwuCVTeXFK42AnROwR/zlyMsJBBtW8XwmQUHDp9AaEgQn0xISa838HkIzirVRXv900yRRIX553Tv6g3b+HChnl07Vt+r1mjg6uJy2TkBlOdvc5aiTcsYFhRkRaBDjkyTcyO/WCRg6KwDOr+ABvKqX8FgNPDsnUx4jo6OcHJ05IOIqAwqJ6crnrlQWaHlMxfozAKa5W7cthteHh7o3jmx+hwGOjOhgq+jfEznJpCYML/oRoMRBw4fx6nkVD5+mfIzWwDM1xAzhVJBc3UuK52lQGWjRNfXTCSU1m7ajvz8ItwybigclA48w6ejqtVqDfOt7YwIyoPuJQYOjo7VfOhn9D/6P7UPHSxFVh3iM2fBCj6dsnf3TtWMqKzlGg3cXOisClN9ufy8P6ypLar+wr/TaCrgTNdWffjoeWZrCv2d6pmedQ7hYcHcpmShIssSWZVqWhSImVpdAUcnalsneUGFQLMiIAKhWTWnfVaGOvEPv8xFv15d+bRASiWlZTy4eHi4Ied8PnbtO4TC4hI4OzmhZ7ckhIUGIS0jG7v2HoJ58B/QuysfOVxTIKRmZGHnnkM8oHh6uqNrUgILER6ADAbMX7Iap5NTERjgxwN0fkERD/ZpmdmIi4pA67go7DlwBBnZOTxAtYmLYssGnfS4//BxdovQcdA0UCUlxuPUmVQUFBUhNDgQPbp0gKeHe3WjnsvJw679h1FSUsbXd+nUDjTT3bx9Lw++Hdu3QbfOCcjKzsX23Qf4lEQvT3cuV3BgAJau2gBvL0/k5RfAzdUV2efOIycvH8GB/hjavxfO5xfwgU0d2rdmsfDnqk1o0yqGrTD7Dh5HWXk5iktKUanVIS46HN27dKgeYA8fO40NW3byINoyNhIDe3dDpU6H3fsPIy+/iEVTh3at0a5N3EUujbIyNTZs3cXcnF1USGrfFjFR4Th28gySUzK47sSjRWgwunVK4JMdd+45yAKFBBkxopMmd+09yCdmkkuga6cE5rdt534WRNQWMZHhCArwxdHjZ/jYbeLv6OSEfj07ISQoEMdOJuPc+VyUlJbD29MDnTrG8/106iUdcrVz3yGUlpVxG3Zs35oFIeWxe99hvk+hUPLpm+3btmpS14d9vuFS6xtFQATCjSIvz200AjS7W7F2K46fSubjiukPHUdMbgKaYa9avxUe7m48oJw+m4YDh47jjltHY/3mnfDz9Ubb1rHYtG03zw4H9+1RLRBax0Vj2epNiG8dy3keP5WC3Px8DOnfk03cNOfMyy/EvMWreBCOi4nAslWbkHU+F317dGYhQc8jgdK1U3s+n2Dx8nUYMbgvH49MA3BwkD+S2rfBxm17kHUuB907d0CAnw+27tqPrkntuWw0c6cXdevO/TyTp4GW3ArpWdno1ikRW7bv5fqROKCZ+nfTZ6Nrp0QuMwkjGvB6dO2A76fP5YGfjntuERaMk6dTkJySjqEDesHTww079h7i0xoH9u3O133z4yy+LzoiDItXrGexQc+j2fWSlesxqG93tG9rEmR0FPW6TTtQUFiM0cP688C8ZYdJuFB5i0vLsXbjdowY3IfLRYmeMW/Jar6mV7dOSM/M5vIM6NOVB/Ltu/Zj+OC+bD2gwbp7l0S0CA3ComXrEBTgj57dOjDTleu2IC4mErFR4XwcdWZ2Dgb1647V67YhM+c8+nTvjKiIUGRln8eajdvRq1tHFgz7Dx9DSnomJo4fyRYnci117tAObVpGs8hbsHQNRg/rh4NHTvK/SQBQ/aiMZF2i6/U6PZIS25osOVt3Y9jAXggLCWq0vi0ZCYEbScAsEExnMcgyxxvZFvLsBhAgc3JG1jkcOnYSp06nokytxq1jhsLbxxMr12zhgYl89HQdWRd8vD15gCotU3P8wP5Dx3gQuGXMkGqBQC6Fg0dOICG+FZycHHnGmJyajgG9u7HpmRKZ7af/sQj9e3VBVHgY5i9dzQNE7+5JPNNfsW4Lz8ITqgbSFeu2ori4BP16dcGmbXvQKbEtYqMjcPTEGazduAOP3HsbC4/lqzch0N+PhQWZzMlFQa6E3LwCFhGRLUJ4YDX/nFwMPbok8ktM9aIBi+IyaOALCvBD/95dMe3XeWxloLJR2nfoOFss6MRFssBv2bnvigJh7aYdaN8mjgULJRrsadZ/67jh1TNmKn9eQSFuu2k40jPPYduu/SwwIsJC+J4lKzfAxVnFAotSUVEJvpo2E4P792DBVVauwaGjJ3lwp/vPpmbgnonjUFGpxfI1mxAeFoKkhDaYs2glMyahQ9dTPdq1iWVxRBaZk2dS2P2wd/9RjlOg64gJWTlOnD7LzyeBRm337U+zMKhfD64LDf4D+3bjsuQVFLFAoOOq9x44ivzCYrZgREe0gKOjEjm5+dxeZKkI8PdhV8q+g8fYxUXXSRICzYFAZUUlW1hFIDSH1rTTOpjjC8yrFujfNFM8euI0bho5iGfn5Gc3iwIaGMjqsGXHPpxNzURYaCAPDuRrrykQ6KUggUCDgFJJfm0jaHUEDfb+fj4mgaCrEgi9LwiEVrFR6JjQBkXFJVi2ejM6dYhnVwMlmgmfTknjWTs9n2afMZEtWCDQDPTBeyawv3z5mi3w9/NmK4LZp05lJLdEckoaytUVbBHp0rEduxjINUICQavTY8WazWz2jmgRioLCIg6yY4Hwyzz06ZGEDu3bXFEgUH3IMkD+/29+/AM9unZkC8L6LbvYWmCuB7kOTpxKwaRbRlbHNdQUCDS479p3hAfn0KpgQhIZNCMZOaQvP5+sID/9Np/zJXFmTp07xOPEmRRkZGazpYcsFsuuIBB27z/CAzhZYhwdKA8jnyJJLgCyrMTFRiApoW21QCB3EAkSct2QaPj594VI6tAW5OqgD2GfHp1ZxJgFwk2jBnHMwYEjJ3DqTAo0FRVo2yqWhQIJPDc3Fw6IpURuFLJktIyJsNM3Uard3AjwKgaNhnZJEgtCc2tce6lPNvnm9x5Et86JPHCTH33b7gPsx75lzFCsXLuFB9q42EgWAhSYFxsVgSUr1vFATQKA4g7IQnDz6MHVFgTKi2aFZHIP8PPlWIH8wiKeEZPZ+0oWBLNAKC9XgwZFGqDJ/E/lIguDn68P+/nrIhAoUI9cFTS7pdnv4WOnsHzNZjxw9wSOoyDfe88uHdlM//vcP/HY/ZPg4qLChi272CLRv5fJgtCn+wWBsP//XS3keydRRGJo+54DPKunGTYF/E2fuYgtHSQQVqzdgpioFhw/QQJs6coN8HR3w7BBvau7GdWV4iQm3jISubkF2LR9D8+o6Q8FTC5YthoxkREsZChRvALFjgwf1BstY6I4xuHc+Ty2DuzZf4TrUrtAWFVlFenCVhISCH17dkZwUACXPze/gNuU3D2XCoS9B45gyICe/Ht6FrmHxo4YyPEotQmEUUP7sggkFwzFbySnZmL1+i0c70LWCIqXaNc6ji0vVBZyK5FYkyQEmgOBmgKB6iOrGJpDq9pZHShQb+PWXbxKgQZjGsBo5kyz+JYxkRwkSCZrWplAAoFcB2Rmp9gEsjqQVYAC4ujvt44dWi0QaKZNfnQyW/t4e/GSQK//jx3o0TmRZ6nXEghUDjJ302BOg4tWqwUtLRw5uC/HEtRFINBgunPvIRYpZAkpLCqBQqnEsAG9eDBNTs1g3zmZ4Rf+uYbdFg6ODkhJyUBoaBAG9iELwvyLLAh0Dw3qkS1COc6CnrFt5z4E+PuyYKBZMwkoEggUi0GrASjYkVYckKtj+OA+CAm6sNTwwJGTWL95B/vx46IjeBVAanoW/Hy82OVB7hCavft6ezE7Ei4U5EcDLeVj3n+C3ANkubmSQCBrBlkoaFkpxTOQG6W4pITbnqw2FI9BwaQkDC8VCCSY6B4SWpnnchDk74f+fbpxOWoTCBRTcOZsOoqKiTvVQ8NigCwyFItAYpOeS21LdezXszMHrEoSAs2BgAiE5tCKUgeOrs/OyeUlZ7Q0jwYhCmijYDkaeDKzclBaroazyokHUXc3F55B0oBNKwLIf01xBhRbQD+nJWtkQaB4BVrfT4MbmZ5pdkvBeuZEZuqzaZkI9PflQYeECJmvaRCnRDN/snDQzJZSUKAfrxqg/PLyCuDj48X3UfkpGp8C7ShRXchK4efjXR1XUFRVR1rmSPEHVA+a2ZLlg1ZJuKhUiAgPxbmc8ygoLOH60HVUHopnoPgJsoSYy0aCKj3jHErLyxEVHsrCiQZ1EkRkHaBVEBQMSHVct3knz9Ap4NFg0CPA349dBzU3WaIBNjklk4d+GoTJNUKBgZQftUlYcGC1a8bMj56Rlp6NkrIydjOEBPnD19sb+QWF3G6UD7mDiAeVj8pOrNIyz/HyQ2ovClSkNqJASWpHmsXTipPMrHMsFmhgN8cgHDl+GvFtYtmaQ3yiIsJYGJJLgQZ+EkfUH8itQTEt1N7kVqDnkxWE6kT1puBW4kduEuJPgaS02oPEQWNtPCWvtRC40QSqBQKbDyRI8Ua3hzy/gQSutpsf/e7Sj7elu/LxdfSC1LN8lj7HkuxrrUfVKv+awsXS3QYvze/Sf1MA34Ytu9G+bRwvYTR9K65Morb8rlWWuvKp2gTyoiWFV2sjs0A4czatOiiyrgP5lfK/XjtIWtI35Boh0JgEeBWD2hSkSB8/cTE0Jl3JSwg0AwK0BwTN2Gn5JblpbDGRoCBrUVFRMa82IeuBJCEgBK5OQASC9BAhIASEgBAQAkLgMgIiEKRTCAEhIASEgBAQAlcUCPQLWsYrLgbpJEJACAgBISAEhACvWNKoK5gEBXyLQJBOIQSEgBAQAkJACKBCU8GHrclOitIZhIAQEAJCQAgIgWoCZEFggUD/k2WO0jOEgBAQAkJACAgBIiACQfqBEBACQkAICAEhcBkBEQjSKYSAEBACQkAICAERCNIHhIAQEAJCQAgIgWsTEAvCtRnJFUJACAgBISAE7I6ACAS7a3KpsBAQAkJACAiBaxMQgXBtRnKFEBACQkAICAG7I2AWCFRxpUI2SrK7DiAVFgJCQAgIASFQGwERCNIvhIAQEAJCQAgIgcsIkEAoL1fzJkliQZAOIgSEgBAQAkJACDABOupdrRaBIN1BCAgBISAEhIAQqEGgpkDg7Zbzi8qMQkgICAEhIASEgBCwbwIiEOy7/aX2QkAICAEhIARqJSACQTqGEBACQkAICAEhcBmBiwSCnOYoPUQICAEhIASEgBAgAiIQpB8IASEgBISAEBACYkGQPiAEhIAQEAJCQAhcm4BYEK7NSK4QAkJACAgBIWB3BEQg2F2TS4WFgBAQAkJACFybgAiEazOSK4SAEBACQkAI2B0Bk0DQQKEAb7csGyXZXReQCgsBISAEhIAQuJyACATpFUJACAgBISAEhMBlBMwCATBCqZTjnqWLCAEhIASEgBAQAtX7IGggAkG6gxAQAkJACAgBIVBNgCwIpuOeIRYE6RdCQAgIASEgBISAiYAIBOkJQkAICAEhIASEwGUEagoEWcUgHUQICAEhIASEgBC4zIIgAkE6hRAQAkJACAgBISACQfqAEBACQkAICAEhUDuBCy4GhWmzpPyiMqPAEgJCQAgIASEgBOybgAgE+25/m6t9tXrlv4iWtbkGtLsC07TLVOmq/9gdAamw7RIQgWC7bWd3JTdWiQL6r5HEgegDu+sDtlZhMsuyNKB15KZ/SBICNkNABILNNJV9F5REgcFohMpRCTdXFR8cIgLBvvuETdReAVRU6qDWVLJQUCpFJNhEu0khmYAIBOkIVk+ADAVGgxF6vR4+Xm5QOTlafZmlgELATMBgMKKkrByVWgMcHJQmcStJCNgAAREINtBI9l5Eo9EInV4PnVaH0CBf+cDae4ewsfpT/y0tU6NMXQknJycolAqJR7CxNrTX4opAsNeWt5F6m60HWp0OlZoKRIYH2UjJpZhCwESABEJJaTmKSzVwcXWGUkFWBKEjBKyfgAgE628juy5htUDQaqEpVyM6KtSueUjlbY8ACYSiEhII5XBzdTUdeiMCwfYa0g5LLALBDhvdlqrMKxaMRlRWVkJdrkZsdJgtFV/KKgS4/xYVl7FIcHN3g4MIBOkVNkJABIKNNJS9FpMtCCQQKiqhVmsQKxYEe+0KNltv6r+FxWUoLikzCQQHB4lBsNnWtK+Ci0Cwr/a2udqaXQxsQRCBYHPtJwU2CdxqgeBWJRDExSBdwwYIiECwgUay5yKKQLDn1m8edReB0Dza0R5rIQLBHlvdhuosAsGGGkuKWisBEQjSMWyVwMUCQSGHNdlqQzbXcotAaK4taz/1EoFgP23d3GoqAqG5tWgzq48IhGbWoHZYHQlStMNGbyZVtkqBYD6Up5kwlmo0kABtVUtBihoKUpRljg2kKbdfbwJmgUBLHd3d3KDk7ZavdynkedZLQGG1/cGqBAIJA3pxVI4OcvKZ9fbm61oysiAYjAZe5lhWpkZEePB1fb48TAg0lAAJBFriWF6ugYeHu+k8Blno2FCszeZ+PS3j1uq4PtZ2TofVCAQ+rU+v55P63Fydm03jS0UaToA+sBUVlSgpKUNgoF/DM5QchMB1JED9l8SBTqeDu7sbHB0druPT5VHWTsBgMKCkVAOt3mB1u2xajUAgM7JWq4WvtzucVU7W3qZSvutIQATCdYQtj2p0AjT5UavV0GpFIDQ63GaQIVuYStXQVGhNh3lZkfvJKgQCm5H1Bmg0Gvj7esLVRSwIzaDfN1oVRCA0GkrJ6AYQEIFwA6Db0CNNLqhyPu3T2VkFpdJ6FILVCAS9Ts9BaAF+nnB1dbGh5pWiNjUBEQhNTVjyb0oCIhCakq7t520OYi1XV8LFxVkEwqVNShYEEgh0GE+AvxfcRCDYfq9vxBqIQGhEmJLVdScgAuG6I7epB5oP8ypVV7BAoMO8rCWZLQhUHj6FNL+ojMbr65roBdLrRSBcV+g29DARCDbUWFLUywiIQJBOcTUCZgtCGQkEZ2de5WItyToEglgQrKU/WGU5RCBYZbNIoSwkIALBQlB2eplYEK7R8OJisNM3w8Jqi0CwEJRcZpUERCBYZbNYTaFEIFxLIIiLwWo6qzUWRASCNbaKlMlSAiIQLCVln9dd5GKQGITLO4FYEOzzxbC01iIQLCUl11kjAREI1tgq1lMma7YgqNUalJereYfHGxekKDEI1tNbrbAkIhCssFGkSBYTEIFgMSq7vLDaglBeARdX61rFIALBLrukbVVaBIJttZeU9mICIhCkR1yNgFgQJAZB3pAGEBCB0AB4cusNJyAC4YY3gVUXwJpjEMSCYNVdRwpHBEQgSD+wZQIiEGy59Zq+7GJBuJYFQWIQmr4X2vATRCDYcONJ0SECQTqBuBga0AdkJ8UGwLODW0Ug2EEjN+MqikBoxo3bCFWz5p0UxcXQCA0sWTQtAREITctXcm9aAiIQmpavrecuLgZxMdh6H76h5ReBcEPxy8MbSEAEQgMBNvPbJUhRBEIz7+JNWz0RCE3LV3JvWgIiEJqWr63nLhYEEQi23odvaPlFINxQ/PLwBhIQgdBAgM38dpuyIBSWqK/7cc/U/nq9AeVl5fD39YSrq3Mz7xJSvboQEIFQF1pyrbUREIFgbS1iXeWh71txSTnKNZVwcXGBUqmwmgJSkGJpadmFrZbLNVrqzzAXsebfqdT1+d218mCBoNOjrLQcPt7ucHFRWQ0gKciNJyAC4ca3gZSg/gREINSfnT3cSd+3kjI1KhwIUNEAACAASURBVCv1cHE1CQQaf+sz1jZkjKZ7Lx33S0vLUVRcckEgqCt0192CYD6siQSCt5ebCAR7eCvqUEcRCHWAJZdaHQERCFbXJFZVIPq+lZJA0JoEgoNSaTXlKyktQ1HRJQKhNuVi/tnVfldTvVhyfU0lotPpUS4CwWo6hjUVRASCNbWGlKWuBEQg1JWYfV1/qUDgUxNrWBDM4+SlP7t0tm/JmFvXMbpWgXC9m0csCNebuG09TwSCbbWXlPZiAiIQpEdcjYDNWRAsbc5LYwtq3leX34lAsJS4fV4nAsE+27251FoEQnNpyaapx5UEwtXGUEtLUpdxuLbxu6YFQaFQQHGlGIS6FrYu14tAsLS57fM6EQj22e7NpdYiEJpLSzZNPa7lYqjvxPtapbVEPFgsEK71sIb8XgRCQ+g1/3tFIDT/Nm7ONRSB0Jxbt+F1u5JAaHjODc+hVoFQ3+UV9VE65gAM8zJHWcXQ8EZtbjmIQGhuLWpf9RGBYF/tXdfaWuJiuNZWATV3Trja+F3XMVosCHVtzTpcbzAaQRtNHD91FsWlZYiNDEdoSAAcHR1hNBhgMBj473VNdJ/BYISDg5LXpzb3ZC8CISMrB6Vl5VXNqYCvjye8vTygclKhrs2cX1iEk6dTERYSiPAWIdXrm+vbV9SaCpw7nwcvTw/4ens2ar+jehsNRoSFBoIiuJtbsgWBkJtfiLyCIvDZ1FWJvi8tQoLg6upyxSbR6XRQKJT8LWqqRJvopWZkwc3VFUEBvo3a95qqzHXJ11aCFKtjEK61lNFceUuWVViSF13T3JY50iB+4MhJTPttAehjrXJyQlm5Gt2S2mPKpHE4czYdO/cdxn2TboKHh1td+hM2bNuDYyeTcdvYofDz9a7TvbZ4sb0IhNfe+wq79h2Gt6cHf3BpUI4KD8VfHrkLURFhFjddfkERnn/tQ95p5a4JozBsYK8Gf1RPn03jvtyra0cMH9QLTvUQtleqwGvvfQmtVod/Pv8w3N1cLa6nrVxoCwKB2vaPBSvg40V9z4HReri74vnHp6B1XFStqKnNvvjhd7RrHcd9oqkS7RHw9n+/QXzLGEy+fQwcq8rXVM+73vnWJwbhem1FIBaEJuoNBJZeusPHT+PeSTchPCQIew4excnkVAzp14MHglUbtuGvT96Hti1j+MOYm1+A83kFoH20QoL94e/rg3K1hmduLs7O0FRUwNXFGb/O+RN7Dx7Dkw9OQkLblqysM7NzkF9YDGeVE88aPT3ceUZQWFQCf19vFimhwYF8v60lexIIaRlZuPPWUfDz8UJKWhZmzF6CHl0S8cT9E7l9SWhWarVoERrEAiAlPRNqTSW8Pd0REhQAslotW70J035fiFGD+2D8qIEICvRHZvZ5FFT1D7rXw90NlVodMrNyUFxayv2L+g39nPocXV+uVnO/DA8LAe2otnX3AcREhKFt6xie8aemZ6FMrYGnuxtCQwK57+UVFKKwiPJTcd9zd3dFeGgQW8q0Oh3SM86xlcTZWYWIFiHcH0Ug3Pg30iwQnn10Mvz9fLhANBC3jA5HXmExr8pXQMl9JcDPFwF+PiDR+PK/PkHnDu3w4ORbEBzoD51eh/TMcygrU8PDwx3hYUEsTrNz8qBydERFpZbFL1mi6HtHQrO4pBRkIotsEcL9j3buKygsgZubC/+O+vW6zbsQ4O+L7p3ac5+jfkt5kYWNvmsqJ0eegJE1ir6Tvt5eCAsJalLLRmO1ms1ZEBqr4pbm0xyDFAuKivH9jHk4cToFt48fjjYtoxEc6Mcf2tSMbHz/yzwkp2YgLjoC90wcCx9PD/yxcAUP6mRNIVfEY/fejvO5BfjxtwVQOatQXq5BUkJrLFm1CcXFpeiU2Ba33TQMGk0FFq/cwOdZkKpPbNcS44YPwPbdB7F2804E+vuCykMvcUxkC0ubxWqusyeBQAPsK88+xIM1fUCf+ft7PMCTJWDOolU8oOoNBjz5wCT+aO7ef4Q/wCqVEwb3684Wh3c//Z4H+NiocEy6eQR/6P9cvYmtxxWVlUhKaItRQ/pg36HjWLNxB5z441qOxPhWbG3YsnM/du87woM6iYS+PTpzn5q7ZDU6JbRFnx5JWLpyE7bu2s950se5f68uGNi3G1Zv2I6V67fCw82Ny0+DxD23j0WHdq2wcv02rFq/DZUVlVAolZzPzaMG480PvxYLwg1+28wC4a2Xn0BQgB+XxsfLk60IH37xM08waAtgGrhjIsMwcfwI/D5/GTZs3cPXkQVh3IgB2LxjHzZv38fn6VRUVGJo/x7o0L41fp+3jN2sJSVl/A3q2SWR7ydrRWWllgf3TonxmHTzcBw8egpLV22Cq4sK5/MK8dzj92D2ghWIjgjDkP49sHjFBhw5cQbOKhW0Oi2G9u/Jz1i2ejP2HzoGZ2dn3jN47LD+6NY5Acq6+ueuc1vYnECwxC1ADGtzMVzqfqjJ+krXN0eBQL65Tdv3Ycasxax0fX28+MXr26MT2raKxqyFK7F+yy48ft9EtG/bEkeOn2aXQ4/OCUhJz+LB4M2/PcG+59ff/wpxUREY1Lcb4lvHYNaCFTh47DQenHwzQoMC8cvsJfD0dOcX9GxqJhYsW4u7bx+LtPRszFq4AvGtYzFycB8WFF6e7te5+zf8cfYkEI6dPIPunRJ45p6Vk4s9+4/yIB8WGoSPvvwZnRPb8kCsUjni06m/YszQvkhKbIvVG3dw25M7gj7Si5avwy2jByO+dRxmL1rJszv6iJ9JSceiZevZsrBr3xHum5MnjGYBSbO16MgW+Hb6HMREtcCQvj2QnnWOrQE0i/ty2kz069kFLWMi8O4n32FA767o1a0j1m/dzf33lecewoYtuzF3yRqMHtqXZ5oLl6/j+jx67234/LvfoPx/sUJ9nD7yuXmF+O/bL+Lt/34rAqHhr0mDcjALhMjwELZSUaI2HNinK55/9SPk5hXggbtu5j65Yu0Wbk+a7b/z3++Q2K4Vpkwcx9f8NHMhBvfrgcT4lli/ZTdOnknFxPHDMXvxKpxJTsP40YNYoJKVgPrzwD7d0Kd7Eg4dO4klKzfisfsmsrD4dsZctGsdw7+n6//10ddo2yqGXVxf/ED9sDN6dE5kCxpZWknA0DfzljFD2BIx/8+1oG/wkw/ewdYOa06N7WKwZMytOX5f7XpxMTRhzyFlTBaBo/8fL3Do6Els33MILioV7r9rPM/w5i9dg/+9+zK7AHJy87Fx6x52SZxKTkVObgHefOlxPpfig89/5AF/2ICePKv76feF2LB1NwuIrHO5+PKHmfyh9/H2ZPMzuSkmjR8BvV6HBcvX48PXnwe9+LYaAGZPAmHn3oNwc3XhWRBZfvr16ISRQ/pw36GP7yP3TECvrh3w/S/zsXTVRnz1wSsICQpksfn9L3Px3GP38Gzss+9+wzMP3ckD8tc/zuKAWDLrVlZWcp+8acQA7ifb9xzkgTwhPo4tBWTl+uL7mThxJgWhQQE8MyPLBFmnPv/+NxYI5eVqzFq0Ep++/RJio8OxbdcBfP3TLDw0+VYkp6azpeD1Fx+Dj7cX913qly89fT9OnD6LdZt24UxqBk4np8HLwx1ff/Qq3hGB0IRfIcuyNguEybeNhreXJ9/UJi6KZ+1/eeV9dh99+NYLLAQ//+533Dp2CE927nv6VRaKTz14B09Gfpu7jCdD5LKiwYWsW7eMGcxWKYpvoJgGyotELFlRaYLUvXMCWxYefuEt9O/VGdERLdji8Nxjd6Nj+zbs8vrHO5+yQBg2oBc+mTqD+zAFUHbuGI/e3TpixbptWLpyA4KD/NltQe40Hx8vPP3QnWjXOtYyCDfoKlnmeAn4Sy0U9OvmtsyRVhlQXACZhM0+PZq9vfyvT3HzqEHsG1vw5zoWCGTG++HXBWyypZeODutYsGwdm5pJIHwy9Rd2D5BqpmQWCG/87QlkZJ3jAYDiGlrGRnIUMvGNCAvmmd3iFevx7cevc0yCrSZ7Egg1XQzm9qLBfe3mXfzRpA9xx/atMfXn2fhz1WZ898nrPEPatH0vvvl5Nv7yyGT+oJoFAnmOv5sxFyMH9UJ0VLgpSl2hQHhYMMc50If74OET2LRjHwL8ffDXx6dwf926cz/2HDyGHXsOoVVcFO68dSRbqkggkACZs2glPv/PP1h4UjwNzeruv/NmpKRlYNWGHfjX35/kYMv3PpvGfe/ph+/Eky+9Aw93dwzq2xX7Dx1ncfvF+6+IQLCCF9MsEL775A20CAmsLpFer8dTL/8H7m4u+PDNF3gCQ31r/KhBLF5rCgTqn3+u3oy7bh0Jb28v0HtL1giKJaD8o8ND8cQDkzhv6q8//DqfXWVdk9pzn73/mdf4+0eusbmLV+Hvzz7E1iqKWfn72yaB8MiU25CXX4hN2/Zg36ET7Cbr0rEdi2py2d42bijc3d342bT6Ii4q3OqtprLM8RovQHN0MZxKTuMIXzcXF1bb9NHdtG0vVq7bivsn34y8vEKOOXjh8SkICQ7gD6yXhxvuuGUktuzYj5kLluOV5x5mP9ylAmHGrCVYtmYzHr9/Ilsf6EWjj/B9d9zEloi1m3ZixKDeOHDkBBaJQLCCz69lRaBVDJYKBLIoUKzB7eOGoWfXDiwEjxw/g9defJRXyJgFQouwYLYIkIuBXBXUP1Zv3M4zNXJBRUaEsZik/GgGNmHcUJ7NkSgglxj5iSlYcuL4YewWYxdDdDje+ugbNkGTT5h8v+Qee/2vj7JlqzaBQALjhdc+wq1jhrCLYfrsJfz8rz4kgfCduBgs6yJNdpVZIPzj2Qc5GJASTVRCgwPw0puf1CoQ+vfsjPuffpVdpA9PmcDLan+euRAjh/RlK9fhY6fZatSvVxf8MmfpZQLho69+5u8UTW527j3EMS4kACgG60oCYUj/nti19zC6dW7PMQjkwtXpDWgZHcGWq3smjkGbuGhs3XUApWVl3N/IkmXNyaYtCGawtW3LKDEIV+52pIhJJdNgTYqXYglUKhV6d+2IcSMH4PjpFPwxfzn7YUcM7s1KmwIKHR0dOKimuKQMj0yZwL7o6bMW49axQ9GlQzw/kALIvv9tPr/At980nPMmX69Wq4dBr0fL2ChMGDuE1fW6zTvxxkuP2/TyMXuxIHzx/e8oLC5hN0JgVaAYtTdZo+gDSoGGtMKBAl51ej1++m0h9h46xq4j6jf0sR3UpxsOHj2JX+f+ybEFSQlt2BdM/l2D0cABYRSTQmZZCmKlGSFZsMrVFRyjQtYJErEZWec50Iz68ZB+3dnP/Mf8FejSMR79e3fluAZyLZAJmfohuSGGD+yFFeu2YtvuA2zapZncD7/M58Fl8m1j8PHX05GdncszSk1FJffJ1198FN9On8v+4kfvvd0mV9lca/CxhWWO85auwfK1W2DQG6qrQ+3z2H23Y+b85Twbf/HJe0ETn1/nLOX2phiAT76ZgeOnUtgdQQHT5LKiiRBZTisqtOjbsxOLBVpCSYG3NAEyWxD+9+2vbP2ifRS0Wi33sfvvHM8rtGiwf/ieCRxPQH2Q3AoU3EjCdenKjfxNpTKRhWPUkL7o0K415v+5hu81/5z6IwUwUhCuNaeGxiA05RgtMQhN2HPow05LFOkPdWSa5VMnpw5LH/izaZkoKipFi9BAXq5zNjWLl+iQVaCopIx/TsKBlg3RUh66hhJFsZ86k8ofWbOpmJac0WYndH1EeAhHFp87n88zUnp5zWubm7C6TZa1vQgECjKkpYC0EoFWJVS/+EagsLiYZ//kd6XgMEo006JVMuqKCnYX0PJFan8KAKPlXi1Cg7nPUD+kYC7aH4F+T3sqULAquQqo39AHmHzGFE9AH3by39L9tOKBnkVmXloSSe4s8k/TR53yPHkmhfOgGAPqhzSjo75O91M/pz6XlpHN7rTI/9/PgQIhqY5UN7qWREGr2Ci+hsRLVHiYTSxLq2tHtwWBkJ2Ty3FP9K6ZE61+iY4IRUb2eW4XWnFlXkpIfYBiDYqKS/k7RmKCBnMSjKdT0jlOhZa40uZwtKIgLcMU7Ep9lJ5Bk6cff1+ASTePZOsWbRzXKi6axSTFF1DAI/UZXrWj1+NMSgYLy7BgWt1TyO5b6v9UBoqTIJFMZSM3AwU50vcvOpL6k2lPB2tONreK4XrDbI4uhuvNsDk/z14EQnNuQ3uumy0IhOvZPvQ+U+wLuQfIpUCWK3tONicQrtcuTdQpzHq1ue2kaM8dvrHrLgKhsYlKfteTgAiEy2mT1Yo20iLLl4sNbt7WmP2noS6GS13919qmoC7Xi4uhMVta8moSAiIQmgSrZHqdCIhAuE6gbfQxzcKCYGbfmCdF1bQgNLdljjbaV62y2CIQrLJZpFAWEhCBYCEoO71Mljleo+ElBsFO3wwLqy0CwUJQcplVEhCBYJXNYjWFsrlljrWRq22Z49UI1+V6EQhW01etsiAiEKyyWaRQFhIQgWAhKDu9rLEEQl3GXLP1XnEN5g2KQbhageryOxEIdvpmWFhtEQgWgpLLrJKACASrbBarKZQlLob6FrYu43DNZ5jva5BAqG+hL71PBEJjkWye+YhAaJ7tai+1EoFgLy1dv3o2iyDFmksjCAOZJmrbSbEuSygubMlh2vSlvLQc3l5ufP6AJCFgJiACQfqCLRMQgWDLrdf0Zb/WMkfzOFmXMbexxmixIDR9+8sTGkhABEIDAcrtN5SACIQbit/qH94sLAi1UW6of6N6htgMT3O0+l5pQwUUgWBDjSVFvYyACATpFFcjUJ8YhMbebuDS8kkMgvRZmyEgAsFmmkoKWgsBEQjSLeoiEOhciWutLrheRMXFcL1Iy3PqTUAEQr3RyY1WQEAEghU0ghUXobGWOTZFFWsVCNfLfCEuhqZo0uaXpwiE5tem9lQjEQj21Np1r6u4GK7BTJY51gBkNMCoL4GxIg9GXQlgrACMBkDhBIWDKxROPoAqAAql/az0EIFQ94/Ote4wwohyXTmKdcUo16mhM+hggB6OCic4O6jg4egBLycvOCocr5WV/P5a3zcjoFarodXq4O7uBkdH6z+CuLEa1QBArdejRKeDxmCA1mCA3miEk1IJlVIJDwcHeDo6wlFhLUb1xqq55fk0iyBFS5Y0EhJZ5mh5x2BahkoYdaUwlB6BvmA79HmbYSg/DWPlef65UU8CQW8SBFUCQeEcBAefznDw6w8H7yQoXFpA4eAGKJrnh0cEQl361OXXkhggAVChr8DZ8rM4VnwCh4sOI1OdiSJtMTR6DSqNlTAYDHBSOkGlNAkEbycvtPZqhUTvRMR6xCLQOQBOShUcFMqGFcjO7rYXCwJ9+3VGIwuCDI0GJ8rKcKSkBFkVFSwQ6OdaoxEGEggKBVQODnB3cICPoyNi3d2R4OGBKDc3BKhUUCkUUNqJaGiKZY5muWXJuH210x8lBuFGfKzISqArhKH0JHS5a6DP+RP64kMwagtrHIBtQcGUKihdI+Dg1xeOQaPh4NsdSpdQQOlswc22c4kIhPq1FQmDUl0ZMsrTsa9wP3bk7UJKWQpKdaV1ytBB4YAglyAkeLdHN7+uaOPVGgHOAWJdsJBicxcINMCUVYmCg8XF2FNUhLNqNcr1egsJmS5zUCgQqFKhnYcHOvv4oGWVWGju1gWbsyBY2qqyzNFSUjWu05VCX7wP2uxF0OUshaHkGGDU1SOji29RqHzh4NsLTqET4BA4GEqXiGZjURCBUPfuQdaCU6WnsS1vGwuD9PJ06Bqhn3k6eiLeOx79AvsgybcjAlQBUIpF4aoN1JwFQoXBgOTycuwoLMTuoiK2HJAVoSGJZr8ejo5o6+GBnj4+6OjlBT+VCs3VblWfGARL+TZ0jLbYgtAUB0GYK2kvMQgGTQZ06TOgzZoHffFBQF9uaTtbfJ3COQSOgYPhFD4ZDv4DoHBwt/hea71QBELdWqZQW4hlWSuwNXcrkkuTUWGorFsGFlzto/JGJ99OGBw8CB19OsC5mVmtLEBg8SXNVSDkVVZiTV4ei4MUtRqVBoo4aLxEQsHb0RGJXl4Y4O+PRE9POCubn0y4louhJtH6Dvi1tYoleVksEBqv2S/PyR4EgqF4PypO/Bu63NUwVubXzZVQV/jkevBoA1XkQ3CKmGIKbLThJALB8sY7WXoKv6X8jv0FB1CmKwO5GZoqUQBjuFsLjAodgSEhQ0DWBUm1fN+aWZAiyYBTZWWYn52N/cXF7F5oykSuhxYuLhgaEICB/v7wcmxegbPNapljYy+BNH++9Do9/o+99wCP7KjSht/OQTlnaTSSZjQ55/HYHnsccAYnbBazBJsl7MIGYL1sgoX99uMDlmVZwAZjwhrbOGeP43g8OeeorFHOoXP4/3OkHmt6Wt33dlLf7ioeHo2lulV1T51b9dZ7zqkznpS5GLxw9X8A+7G/hHv0FOB1xvJbmtK2CmR20M/6IvRzvg2V2hSnfqPfjQAI0mR6ZOgoHml4FI1jTfBQ5EscigoqpOvScUvpTbir8k6YyVlWlEskkEwMAmkV+Rk8ceECGiyWiM0JUlWF2AQCBlsKCnBrUVFSgQQpJgb/036wfTiae7RgEKRqaDj1vB64+t6G7fjX4CFwMBOFvNKrHoJh3vehUugJTwCE4IrjgQeHB4/gkfOPonm8JaaswXQj0ao0uK38Vnx29p8L50U/ISULQKDwxOOjo/hdezsaLZYYclPT6zuZGG4sLMRdJSUcAZEMRXFOisHCHqZOSKQhFL62ODwm2bI5ep1w9e+A/dTDcA/t5VDFGStqDQw1fwN9zd9Bpc+fsWGE27EACNNLzu1149TIKTzW+DhODp+aEXDgGx1FO9xdcRczCWlawSRcXN+SwMRAoYlnxsfx+wsXcGp0dEbAgU+eBBJuLyrC7cXFMCUBSAjHByHYHh1q/5ZzFYFgEMLdtYI95/XAPXoM9lPfhqv3TcATL7PC9INS6XJgqPsWdLO+CJU2MxZvHbM2BUCYXrRtljY80vAr7B84EDezQrCJpjsUPl39KdxadotwXJwUVDIwCB02G37d1oZDIyN8j8FMFwIG95aW4saCAr5wSclFcQxCvIWdbE6KXkc/7Ge/A0fLr2ISqRDe/KjYcdE473vQFt0CqHXhNTMDTwmAEFjodo8dv254DK92vB6VEMZoTW2RsQgP1X4B6/LWpcxlN0HPCwpnEKweD37b1oa3+/ri5nMgRRfpQqUvVFZidXZ2wiQ3kjJu/zqKAwihKIqppgFyHgkULhHsd4EcLpLJSdF54Y/sd+C194SjL7F7RqWFrugmGOb/H6jT62PXT5RbFgAhsEC39XyAn5z9L4y7oh8uG8kU0r0IK3KX44s1D3GUQ6oXJTMIxBa8PzCAR1tb+SbERCrEG1AI5EOVlSg1GhNpaLLGEm0Tw9TOA7kB+O/fweoLE4OsqQxd2eschGXX9XAP7Y9tKGPooQSsQeYFQ/13oKt6kHM7KKEIgHD5LI04R/C1g3+NC9aOqEwhbep0vTK1G41i1ppxX9UncXvZrXx9cyoXJQOELrsd3z9/Hq1Wa0JOoVmjYV+EO4qKOL+DEosIc/SbNX+Ggv6cLAyCo/EnsJ34G5lOiaESlUTX5qfJXQ/TssegTpuriO9JAITLp+nJ1qfwm8bfRm3+Fucs5s38v8/+Dwb4no7Iy4KsBfhq3ZdQnV4deWMKbkGpAIGiFp7p6sIznZ2cZElOCbaiRXM1o37mpqfjwcpKzDYr0zFWhDmG0Kxk8UHw2joxvmMTPOPnJX5LKqhMZdBkLoJKTcmW1BPXI3PSpcl/uy3wjJ+Be+xc1PwZVGoDDIt+An3l5wAFZOsTAOFSdeq19+FbR/4e7ZYLEvUseDU64f/rwn9GbUYNftv0e7ze+UZUHB6p3YdqvoAbSq5PaRZBqQCh3WbDfzY1oWGcLtwKXWizJr+ACpOJbzykZEt0pvf9VKlUfNviBasVF+z2qN28SCzCPQp2WFQ0g+BTCzk+BfSMnPrJAhAczT+H7dhXJbMHKl0WjIv+B9qijwFqPVR8pz0BA/qpmvjpsXMiJ0fzz+DqfGEyoVPojzVUDU3+1TCvfAYqfW6oqjP+dwEQLp2CFy68iMcbfwerOzq07+q8Vfjnhf8IClPc3bcHPz//S3TbuqMy78tzl+Fv6/8aefq8qLSnxEaUCBCIPXijpwdPdnZyJkYpJUenw/1lZViTnc2RBQQMCDT4/k//TXkaCHi83N2N3YODUbmFkdpfnpWFz1dWosSgvER1kfogxHKPFj4IUjRfQh2vawTWA/fB1f2qhNoTVTSZC2Fe9xYofwLcVngsjZy4SWWugUqbPqUdL2d+tDf8CM72/wXc8rLxBRyQNh1pa17hfA2JXgRA+GiG6PrkH5z+Ifb0743KKZ98BYg9WJy9iDsZdAzh0YZH8X7PB6A7FiIt1P53Fv0LFmUtjLQpxT6vRIAw5HTisbY27BgcBIEFKYWo/i9VVaHKZGIgQImbyMmxyGAAnfKnbmTk2/BSdzc+6O+PCkggcPLlWbOwPDNTcZEziotikKIM0ayTDAyCe2gfrAc+Cc94g2TRaHLWwLzmVb6XwNX9ChxNP4XXbYeu8gHoKx7wS9vshcfSBPv5/wtXy6/hjUJmPkPdN2Go/3cgwfOuC4DwkUqdGjmNH5/5Cadtjka5uvBKfL3+axfvLKDcDdt7tuOXDY+iz94fjS7wZ7M+hftnfRIT58nUK0oECKfHxvBIayvfmCi1LJ4SUbBrcJBZAiqb8vJwVW7uJZca0ZrfSSChqwvv9/fDJtPHwX9MlK/h7pISdlhUWkInxQGEeN3SRJPsw6ZKv0nR0fIo7Ce/CYpikFo0uRtgXvMy+xzYjnwRzo6nAK8X2ryNMK38E1SGIr+mvPDau2E//S9wtD4WcV4HBijr3oFKm9gZHwVA+EgNyD+AnBOHncNS1Wzaehm6DPzD/G9hac7SSzZvYin+7+kfYm+UWIrF2YvxnPy44QAAIABJREFUH0v+XXEnu4gFPNmA0gACMQYfDAzg8bY2DEs0L9CrLsvM5HsJ8gwGjnw4Ojyho5Sumej/cr9QRFr7+xwOPN3RwVkhpTIV083Lquxs/OWsWchQWDKnSE0Mcm5G9O25U68nCLbfCxNDNFYBrwe2E1+Do/kR9hmQWrR5m2Ba8xL7HdiOfx3ONtr0vdAWbIFp5R+h0k1jt3WNwnbyG3AykxDBLY0aE9I3n4XaVC51yDNSTwCECbHT6Z4uRnq2/XlZ5gU6uVM65gx9BrK0mcgz5KHMXIaFWQuwPGc5TJrLY8hbLW3Y078HreOt6LR1YcgxjBHXCMacY7JNDwaNAc9t+BO06uTKwif1Y1AaQCBHwue7uvBUZ6esWxNXTPoBFOh0+EFTE/YMDjJntDI7G5+tqJjWP2DM5cKjbW1sbpBmzAgs+QK9Ht+vrwf9VFJJCgbBJ/BoZoqayiAoOczR6xyaYAA6n5HsoEjvrs3fDNPq56HSpMM9fBAUIgm3BfpZX4Im/6rJaIbAqu61dcB25l9AlzLBFb5PQtqGbdDkbUro70kAhInpGXON4xfnf4m3ut6WPF/VadX4eMXtqMuo5XsOKCUzbdhy6H7yRSBWYcw1xszFW13v4NWO1ySPgSr+avUvUWGukPVMslRWGkAYcbnwvxcu4M3eXllTQCf4z1dUsM9Bi9XKzADtF5vz85ldIDPAdIVSRv+qtZV9HgighFMoedM/zZmDuWmJzYj6v5sIcwwx20r3QfBYmmE78hBnboSMNLvMFKx6btIh0cuOil6vBypKmcuRDMGKF57xxgmfhI6nw45uMC55FPqqz4fzPcbtGQEQJkTdZevG/5z7OTsoSi107fF9VffiqsIrYQzAFEhtZwLMe/liJmIxdvbtkvMo/nHBP2BjwQZZzyRLZaUBhB6Hg/MuEAMgp6zNyWGmoHDyBG/3eJiBMGo0krxP+p1OBhUfDgyE5bhIkRN/VV2NDTk5coY943UVF+YYSGKBwhaDb18T4S1SiuIBwugJWI88CPcALZrSSTJt4XUwrXzWL2JBisR8dSajGxopuuEJwDUq52Gua5j3XRjqvi37uXg+IADChLTJMfG/z/0cR4eOyhJ/makMd1feiWuKNod9H4HH6+FU0k+3/Qkf9u6AU2YCsi/VfpHTQadiURpAoOiDn7e0cGpnOcUfIMh5dgKAAr7ohu39/RiTebUzMRR0YdL1BQVyu57R+tECCLHYoyPyQQg2IDl/UzpAcI8cge3wgxNpnWUUTfYKmNe+EWEKZmISKLrhB3C2/lq24yJleDTM+3cZo45/VQEQJmTeMNaIn537H5wYPil7EgqNhbir4hO4seQG2SCBmIOmsSb8seUp7B3YC5tbup+Nb6CfqX4An6y6R/a4k+EBpQGENqsVP2tpAUUyyCkLMzI4LwJdlBRuYZBgs3EI5LaBAVhkgAQ6kBKDcUuRv3N3uKOJz3NSTAzhjkTOPjy1D99zEQGEcAft/1xSAARiEAblAQRo0mFa+kvoyj45eZ1IuBL1gm5xtJ39Llwtv5IVAmmo+3sY5n0/3I7j8pwACJEDBGohU5eJuyvvkpUfgcBB23g7ftP0OKeUdngcYc35n8/+DO6tvDusZ5X+UKoAhCytFg9UVGBTbi60EYRO037Qa7fzNc/vysggmWwAIRH0PiBACBXmSAOXGiYhpS1qT8lhjp7RU7AefRDu/h2yTAwsR2MxzMt+D03+NZHfR+Aawfjuj8E9QOOQVgzzvgdD3cPSKs9QLQEQJgTfYmnFz879HEcGj4Q9E+SoSEmUPlFxh6Q2xt3j+LcT38fhwSOyIif8G/9y3V/g1rJbJPWZbJWUBhA6bDb8orUVR0fkJ+6irIp0WRKxCZEWCoH87rlz7PAopZCJgRiM65LExDA1fFHuniu3vs8dwD9kUjAIUjQvRJ0JJ8UH4ep7R5aToq9ZtXkWjIt/Bm3+tXzlctiFwi2PPgRHy68kNyGcFCWLasYrhuOk6D9oytq4qeAK/P38b0p6H4paeGD3ZyO+1vnbCx7GFQUbJfWZbJWUBhDYSbG1FXuGhsKaimKDge8joJsVg0UuhGrc6fXi/zU2SnaWpGyOX0sCJ0VNAmWllMwgBJrMSO0bvjaVbmLgMMejD8HZ8aysMMeLMlWp+dplw5x/gabw+okoBtmFHBZPw7L/HnhGjkl+2rz+PWgppDKBi2AQJiaHwgwpT8LbXe+EPVsGtR4fr7gD5BMgpVB4498d/hYaxqTfEBqo3UdW/RxVaVVSuky6OkoDCOGGOU6duBKjkf0BlmRkcF4GuYWiHxosFvyoqQmdNpukx+k6ZwpzrE/CMEd/AUT7uoHp2hcMgiTVC1HJ64LtxNfhaH5U1kVJl7Sq0kCTtRT6uoehLbxBHkjwekCOkvbT/wRXz+vSQYrGjPSrj0NtTux0vAIgTGgK3UfwWONv8Hz7i7IvK/LpGpkYHqr9Aq4r3iJJ821uG3505j+xrecDSfUDVaKLmJ5c/0TEYZZhD2CGH1QaQKDwRLoo6U+dnRHdbjjLZOIsi5RISc71x3SjIl3xTP0fGB6WPAa6IOnf5s7lexiUVKIVxRCLdxYAIUpSpUyO9lMPh30fAQ/jIkj4NnSTGR5DDo/AwdA+2M98B67eN6WDA0oWlbUcaRveB7SR2wtDjjOCCgIgfCS8Vzpew2+bfocRp3z7MLWSo88B0f10i+LUQqYEui2x2FR0MS8D/Z3CGf/Y+hT+t/mJsGdwftY8/HDpD0DmjVQsSgMItEFTfoTftreD2IRwC2VvrDaZ8PGSEqzKypLEJBBzcN5iwbOdnTg0MiLr0qRlWVn4enU1MpPkquVw5R7N54SJIUrSdA/ugvXA/ZxQKaKi0kCdPg/G+f8BbeGNwR0XfeDg7L/C1fuubPZCX/M1GBf8cCLFdAIXARA+mpzjwyfwkzP/BboKOZxC4Y7/ufxHyJtM821xWbB/8ACbLQYcg1iWswRXF16NqrRKTv9M9x+837MN/3HqB+F0x89QeOMD1Z+WdXtj2J0l4INKAwgkwpOTyZqaZSRrCiR68kGoNJlwb2kp6CrmYNENRJs3WSx4oqODHSTl3KhI/Xy8uBifKCmBMQyTxkyqTThhjsLEMJMzFkbfXtcYrPtuh6s3fPvwR92qOD+CcemvJxwXA4YMeeEZPgLb6Ycn+pQbfqbWc6ppygeR6EUAhI9myOK24nsnvo8DAwf5ZkO5ha5c/umKnzAzQPcpvNj+Eo4MHYXNYwPJmfIlFBkKsaX4WlxXch1y9TkgUPLwkW/DLiPPiG9cOrUO/2fJ97BQpHuG0+lCWpoZWu1HqY/lzl+86g9RfoTWVuwcGAhDyy4dJXnIlxmNnMiJEjdNV8jXgDJIHh0dlWxW8LVFrMFXq6sZhCT2cefyt0+KXAz+4Q/0mlJ+lwphjr4pdzT+J2zH/wZAeHeJ+6uOylQO0+JfQFtwHaDWTfmzF56RE7Ce/AbcvVtlmRV8jWhy18K85pXpE0LFayWS0I8ACJcK6U9tz+APzU+A/APkFsrc+NnqB/Ba5xvY0bsDo9Pk8aBcDRXmctxRfjsnd6IU04MOeVfv0tgWZS/Ct+b9HfIN+XKHmjT1lcggkJnhlZ4e9gOgZErRKBTdQJv4vLS0SzJ7+m5Q/FlzM06MjoYFSAh40C2KBESUVkJlc/QdA6JxtUCgfTvYHi18EKKoTWResOy8JnIzw8UxqaDOmAdD/fdA1zJzdIPXA8/YCdhOfguunjfCCquE2gC+/2D2XwGqxM+wJwDCpUp6wXoB/3j0nzkvgtyi1+iRoU3HgH1QEgOhVWmRo89Gv30AHpnAl9gDipa4texm6CMJ35X7kglWX4kAgURIdP9Pm5v5p3yuKvAkFBoMfFfBosnoBgIizVYrftPWJvtqZ18PJo2GzQt0g6LSzAu8YXu9GBu3wuF0w2gyIuHDHKV+XyLM0V9SXnYWtJ/9N8AbHdTNjouZS6Cv/jLUWcsBexdsDT+GW2ZiqKkj1WSvhGnpr6HOXBThDY5SNSWyegIgXCo/Mi083vRbPNnydGSCjfHTczLm4Ktzvow5GXUx7imxm1cqQKB7CJ68cIGvPaZ/R6uQT8JtRUWYbTaj1+HAqz097HMQTg90qq5NS8PnKipQn54erSHGtZ1wfBCkDjDSPVoygxCLRBC+l1T6PQhTJ8trbYNl3x1wDx2QOoeh65HjoqkMKmMlvI5eeMbOhW3GUGkzoa/7FvTVX4EqwaMXLuqH1wu73YHR0XEUFOSGllcK1OiydeHhI/8IYhMSsZi1Zs79QCYKkyb8u/kT8d3kjkmpAIHek073P2psRKvE2wylyIY29Vy9HhSWSFES3Xa7bJ8DXz909wExB7cXFYGYBCWWUCaGS/aXIEe6aO7RIhdDzDTJC2fb72E7/jV4nfJttjEbFjWsUkNbeD2M838AdcZ8RbAHNGzBIFyuFcQivN/9Pt9R4JCZWTGmOsZapcKSnMX4St2XUGGuiHV3Cd++kgECmQDe7e/HIy0tUWURojFpBDTmZ2TgL6qqUK5A34OpB6CpJga1Wi05E3I05BisDdlhjtEOr/DRSm6XG+NjFmRlmmE0RnDdcKwlJqF9r6OPLy3iK4+9TglPxKeK2jx7Inyy+DY/p8f49B9uLwIgBJac3W3HLxsexWsdr0vyJwhX/nKfy9XngnIvrM9fl7J3H1xy6vMCVqtVUVEMU8dv83g4ooESJ4VjBpCrP1LrZ2g0+MqsWVidk5MwG6rUsV+qH4F9EILtteH+TS4bIdnEEM6LS30mmUwMvnd2jxxlFsHdvy08R0KpwpNYj8wJ+pq/hr72m1ApjPIVAGH6Se6wduCHp3/MIYvhhD1KVB/J1ejuhHur7sanqu4X4GBSakpmEHwTT/kZyNRwZmwsIUAC5V24q6QEdxUXQxVB5kjJih3DiopzUgwW9hAIgYQKZZwuU9RFikXh2RwD6o7XBVfvW8wkuIcPhRWKGDWdVBuhr/w0R0Oo9MoLNxMAYXpNoIuM6B6DXzc8hobxxogyLkaqbxSpsLnoavxF7UMpe61yIBkmA0CgwG0KQXy8vZ2jGujGw5kqFKmwOT8fD5SXy7rCeabGG6rfcHwQItlz/a8nEGGOoWYoVn/3OODsegGOc/8OYhQoRDHehZgDbcmdMMz7N6iNpfHuPir9CYAQXIx06dHu/j34Y8tTaBpvmhGQQE6JVxZcgc/XfA6U70GUjySQDACB3sbp8WD/8DBfg9xktYbtWBiJbqRrtdiQk8M3M+bopt4NE0mrM/us4hiEeIsrGU0MF9kRjw3unq2wE0gY2hdXJkFlKIS+4tPQzf66YsEByVEAhNBfpMPjwMHBQ3iy5SmcHjkTV3NDti4b1xZfwxEL+Ya80INNsRrJAhBo2iiR0+GREbzY3c3mBnJijEchFjpLp8NVeXm4saAAdJ+Cj5mOR/+x7ENxACESE8PFjTGAj3ygmxd5A6BMdUnkpHiZMnldbGZwNP4Ezs4XAPd4LPWNoxXU6XOhr3oIurJ7oDIUx7a/GLcuAII0Abu8LpwfbcDz7c9jR98uvk45loWiFcrMZbil9CZcWbgJ2frslM23EEzOyQQQmEmgVMzj43x/wa7BQbhiDBIICFD6aAIGG3JzmTlIFnDgOwAFimIIFLYo5fbiqbo43Z7r23f95ehfXzgpxnIFvaRtL7y2Ljjbn4Cj5RfwWBpjY3LQGKEt2AL97L+CNmctQLcvKvxzEgBBupKSoyJlenyn+1282P4y6L6EWBRyRlyeuwx3VdyJ+sy5l2SAjEV/Sm4z2QACzQX5INAdBtsGBhgo9NrtMXFepFsFl2Zk4I7iYtSlpSWFz4G/Lisu3XO8Qih8KIZ+JjWDcAmkc7E/gqPxx3B1vQwvp+2NlKZTcUIntWkWDDV/DW35/VDpspW8pl4KrcRFSbLnkpwXm8eb8Uzbc+yfQFkboxHlQKxBiakEd1Z8nB0SU/0SJCkTk4wAYSpTTJcovdDVhb1DQ7C43RGvZtQ2pYouNRhwS3ExrsrNTUpgcFGG01y1HO4+HM2rCASDIOULj0Edr2scnsFdcLQ/Ac/QXnjsXaDfweuQxiyotFBpjIAuG+q0OuiKboG29E7OAql0xiAQwhY3KYanhJTQ6dTIabzX8z5ODZ/GoHMQdH8CmSMIRIQqxBRQdEK6Ng2lplKszV+DK/I3osBYEOpR8fdJCSQzQPBNMt2VcHpsDDsGBnB6fByDTif7K7g8HkmAgdI161QqkBNiqdGIlVlZWJOTg0K9XuH8Z+jPQNEMwlSkGMpecclBWfgghNYM4g48dnjHG+Ae3MXMgme8ka9T9jqHAbcFXrpoyeuBipIqqQ1QkYc4gQJTOdTp9dBkr4ImaylU+kL2PUjGIkwMkc8qOTF227o5dXPTeDO6rF0Ycg5j3DUOh8cOl8fNyZgoORP936Q1IV2ThgJjPsrN5aC8CrXpNcjSZYn7DWRORyoABJ9IHB4Puux2BgstViu6HQ4MO53MLNDfyF+BTrg+QEAhi2laLfL1emYMyIxQbTYjS6u9JOOjTJErqnqkYY6x3KMFg5AwquSF122F1zkAr71vEiSMAF474HEDaj1fcKTS5zIYUOnzoNJlKSIbY6QiFgAhUgle+jwxCKOuUQw7RzDkHGLzAzk0EqNAGRiJMcjUZSJbn4UMbQbStGkgJkGU8CSQSgBhqoSIQaBU0eSrMOxywep2s4MjRT4QW2BQq5kxIDCQodUyUEjOI05wvVFcFEN4n0H4TyV9FEP4ohFPijBHoQMKl0CqAgSFT1vchq84gBCvW5poBnzueS6XG5YkycUQN81KkY4Eg5AiE52krykAQpJObJReK1ITg5ybEX17LrkLSAmZFCaGKE2yaCZ2EhAAIXayFS3HXgICIMRexkruISkYBN8ERDOEYiqDkDJhjkrW5BkauwAIMyR40W1UJCAAQlTEmLSNTAcQRJjj5JQLH4Sk1f2ovJgACFERo2hkhiQgAMIMCV4h3SouzDGQXANd+xhM/nLqC4CgEE2eoWEKgDBDghfdRkUCAiBERYxJ20i0AIKcPdfH3oe6sjoiH4RgA5LzNwEQklb3o/JiAiBERYyikRmSgAAIMyR4hXQrxcQQ7qvI2Yen9uF7LiKAEO6g/Z8TACFakkzOdgRASM55TZW3EgAhVWY6vPdMCifFqSERJAapYRKhQiZ9IhVhjuEpVyo8JQBCKsxy8r6jAAjJO7fReLNQYY6+qwDk7LnR2qMFgxCNGRZtxFQCAiDEVLyi8RhLQACEGAtY4c0nBYMQaA4itW/42hQmBoVreIyHLwBCjAUsmo+pBARAiKl4Fd94OD4I0b5uwF+IwgdB8WqVOi8gAELqzHUyvqkACMk4q9F7p2hFMURvRB+1JEwMsZCqaDOqEhAAIariFI3FWQICIMRZ4ArrTnEAIV70hTAxKEyTZ2i4AiDMkOBFt1GRgAAIURFj0jaiOBNDqMgD3+UKUpI9hGrLN+vKjmLwAF6PQhVYBagoyWqoKzNm7vUEQJiQvQcekCyUWtQqNVQJrGexkqvSAAKN13MxjV6spBKbdkm/VLSkxab5mLQaiyiG6fZouRERwsQQzpQTGHBb4HWPAG4rvF53OK0k0DMqQK2HSpsBlSYDUGsTCjCkKkAgQODwOGBxWWD32OFRLAj9SNV1ah1MGhP/X6PSpARgSHSAQJuG3e2B1eOB3eOBR8Eg1KdpOpUKRo0GJo0aGlViw1IRxeC3FfpHPygmioGAgMcKr3MQXrc1gTb4KA6FFm1dNlSaTECti2LD4TeVagCBgAABgzHXGAODZCwEDtK0aQwUtCoCpMlbEhUgMDDweDDmcsPhUSoDGlxvCByYJ4GClqiFBCyKMzHEW4aKAAheF7zOYXhdQ4DiGYPQM6zSmAFdLvjnDJdUAggEDsbd4xh3jcOdAnpmUBuQqcuEXq2fYS2LXfeJCBA8XmDc7YbF7YY7CRiDULNnUKuRodVAryZzamIVxTkpxlt8CQ8QvG54nUMpAw4uzr/aCLU+H5hhkJAqAMELL0adowwQksGcIHUdIXBAIIHAQjKWRAMItN6OutwYd7kU6mkQnpbo1CpkaXXQqxOLSVAcQBBRDFMV0AuvawReR19KMAeXfnoqZhBU+gL2UZipkioAweK2YNg5nFLgwKdTRrURWbosaNn/JblKogEEYg2GnakFDnwaRQxCjk7LfgmJUoSJIcRMJDSD4HXBY20DvM5E0ac4j0MFlT4PKl3OjDkupgJAIHNCj70nJcEBKTS5kaVr05Ghy0g6x8VEAggurxd9DgfIxJCKhWCBWatBljZxgGhSOCmmarImYg68zoEwviUvQCsDhxAqu6jUBqgMxcAMUcCpABCIOSCnRLmFzBK+DVbus4lWn0wNxCIkmz9CIgGEYZcL4y75UVdTw+MSTW/kjodMDdlaLXQJ4o8QizDHiTUBvDpM/Um/9/9dsKsIRJhjUO3ywmNpArwuGTpIz7TCM34ecI9DbaqCKq0GKrUeXmc/VLo8yXS9197Dm7JKlyWj/9hUVRmKoNJmzgiLkOwAgcIZe2w9spwSCRj02fvQZe2C1W1DgSEfxaZijggYcY0gW5fNYYShCrUz7BiGQWPgiIKZLMQiEECg6IZkKokCEMgZsd/hBLEIUguFPPY5nbhgs3HEQ4nBgAK9nil6MlVk6XSQcgSiHkdcLuhVKpg0ofVS6vjCqUd6lqHTIH2Gx+Ebu+IYBKlCT/pkTW4rPLY2qeLgel5bJ2wnvwF4bIA2g30X9FVfgDptDhxNP4V+9tegTquV1Kb99LehTp8HXfn9kurHshLfkaAvmhFGJNkBgs1jw4B9AD42QMo89tn78evGxxhUmDVmjLpGcW3RZpSYSvBc+wt4YNankWfIDdkUPf+bxsexOGcxVueuClk/1hXoXchhUQq4ifVYotV+ogAEm8eDIadL1j0HbVYrnuzogIruFVCrOfJhU24uMnU67BgYwKfKyjiMMFQhcPGnri7MMZuxOjs7VPWY/51ASpZWA3UC+CKE44MgVUCR7tGSGYRgHQUarJz6ieqDwJELjh6pc8H1XD2vwX7muzDUfQua7BVwDe7hSABX7ztwdr8MXek90JXcwXcpuIf2Ax47gwBNzhq4B3ZO3LHgsUKlzWJAoTaVQ1f1RWjzNgEqDVw9b0ywGnRHgdsOTe56aDIXwT18GO6BHXzCV2cuYr8Bz/ARaAuvh9fRD9fgbuiKboZn7CS8Hju0uRtlRSeoNEaoDGU8hniXZAcIZFoYcY7IAgh7+vfiN02P4/OzP4ea9BqcGz0Ho8aAY8Mn8F73e7iu5Dqsz1vLERFnRs7C5XVhdtpszMuqx4GBQ7C4xi/29/KFV1CVXoUtRddicfYint59A/sx5Bji+xgIuCzImo8qcxWaxptxcuQknB4nZqdVo9BYiLOj57Egax5sbhuODh3D1UVXo3W8lU0mC7MWwKgxSlYZMi/k6HOS6m6ERAEIdN/BqMzIhbf7+vB6by8+W16OEqMRDRYLm07PjI9j//AwrszNxfqcHG737Pg4sxNVJhMWZ2Zi5+AgrG43sw0ETj4YGECRXo+r8vKwNDOTgcrx0VH0Ohx8DwPdxDA3PR3VJhOarFacGxuD0+vFLJMJxUYjTo6Ooj49HWMuF1qtVmzKy+M+iclYlJEBCmWUWqhulk6LRLgbIVpRDHL2XD7MSuCDJQMEqYIPp17iAoR+3lzlFM/oCVgPfwFqcyXUGfOhyVwKTc46OBp/DGfPa9CVfByarJVwdb0IaNMnLtAdOw19zTfh6nga7tHj0GQuhCZrORytj0FlLIW+6kFo86/hzdl24u/g6nubAYPH0gxNxkIGAY7mX0BlIGfCPG5Pk7UKrsFd0M96CJ7hg3B2vwJD7Tfg6tsGtbkKusrPybrjgP0QjOUCIMhRBol1ySQw5hyTBRCax5vxw9M/Rpm5DBXmCsxJr0V1+mxs7XoL73a/i2uKr8GcjDrs7tvD5gPavDttnfhy7V/gydan2TRRkz4bZeZybO3cisq0ClxbdA2W5izlUT/S8CucGj7FgKHF0spgYE3earzR9SYzFmQKIFCyMHshzo+ex8aCjWiztOOd7nfw5bov4dDAIZi1ZtxcdpOs8EW6aTFXnysAgkTdkVONKH7yP5BuYACOjY7i9+3tDA7IvFCbloZigwEf9Pdj3/Aw1uXkYElGBt7t72cgQGaMAacTf1VdjV+0tKDf4cDstDTk6XTYOzTE5okr8/KwMiuLwcTTnZ04OjKC+enpaLZaUWo0Yl12Nt7r70eaVssmiUaLhVkHAhPUH4EDAid/XV2N13p62MxxRzGZ16RHJrAfgk4HunFxpku0AEIs3iMgQAgW5hjtEEifsropLnfMgqxMM4zGmQupmypk8hmQCxDIX8EzchTOnq3wDB+Ax9YBXcknoMleBdupb8C44EdQZy6GZ2gf3MMH4R7YBY+1Ffq6h5kdILZBRyYJfT4sB+5hMEFshM9B0Hbib+AZPgzT8t/DyYDiBNTGErgGPoR5xVPwui1wnP0eVPpCeO0dUKXXwd2/nX+vyVoGOAagLb8f2oItEvDjR9IQACEWn99Em8Qe0GlbjomBTAO0Ie8f2I+GsUb2YaBNusJcjl+c/yW+veBhFBuLcX6sgTfykyOn0Gppxd/P+yabIPIN+bil9CbQhvyd4/+GjQUbcGPJDfzfVH55/hEMOofwF7VfZEaiebwFleYKHBs5jodqvsARB8RgGOiuDJUaaZo0nB09y/4PK3KWo9vWjbV5a7Euf60swQmAIEtcsiqPOF1sIpADEOgE32K14sjICLMHgw4H1ufmsv3+jd5e/O3s2cjUankTPz02hnPj4+i02/FPdXX4dVsbb8J3Fhdznz9raWEwcUNhIW/MBBCe6uhAj92Oz1VWMsNALAGxCMQM3FVSgkK9Hj9uakJOPFJFAAAgAElEQVSeXo80jYZZhy67nVmHGwsKsGdoCJvz8rA2h6KspJdEBgiaSSYk3H04mnu0YBCC6BRFL/D9BzKK1zHAJgBN9jLA44L97HfgGW9g3wPbia/DuOi/2XnRce4/oEqvh9pQAGfnc5MA4U1oMuqhq/w8n+4te2+DJns1DHMevriZM0AYPQHz6hfgaPsd3EN7GUy4hw/BvOY1NlHYz353IuqAEH3vu/wO2tJ74Op6FuqMBTDUfAPqjHky3opcDwSDIEtgMiqHY2IgUEF+CNXps+DyuPDihZcYMGzIX49HGh7Fvy76F7506Y+tT6LcVA6TxojtfTvwrXnf4LqzzFW4tewW9mH49tF/wqbCTbip9MaLoyaAYHVb8ZU5X8ZbXW/jzMgZlJpKcW70PL4y50vMIjze9FsGFEXGIuzo28kgZ0vxFrzd9Q6KDUX4ZNU9qEyrlCEJcHuCQZAlMsmV6XIkouflAIQehwMuck40GmFzu/FGXx9v0GQGoFP+w7W1GHY68Vh7O0oNBvZTODY2hodravh35QYD7iktZTPAj5ubsTwzkzd2Kj6AQJEVD1ZWcnsHh4dRl5bGbMJ9paUoMhjw/xobmYGoNpuxtbeXcyxUkbnDamWzwucqKpjdkFPosiRiHhKRQfABBDnvE6u6khkEKeESNEg5IRS++qwsLjcsicYguEbhtXfKkr39zD/D1b8d2sIboNZmwtm7lTd5beGNsB39AnRlnwQ0Jrh63oSu7H54x04x/a+v+3u4erZeAhCsB+5lSl9f/ZfszwCVFoEAgrbgOjjbfgNN3maojcVwdjwLfeWfQ6XLhe30P0BlLIah9mHYjnyex6Gv+VvZkRF8YZKhRJgYZGmDtMqUjGmI/F1kLN1PtT6Nvf37sT5/Ld8dcGjwEGan12B+5jz819mf4uayj8GkMWNv/z4GDWSS2Nm/C9+c9w28dOHliwCBLL/EIOQZ8vCxkhtRlzHhQBsIIKzNX8vmi/mZ81FkLMQbXVvZLEERFH9ofoLbuK/qXvzr8e9iac4SfLr6z0AXIMkp5K8gNQJDTrszWTdRfBBokx5xuSU7KZK5gEwAJ0ZHsSY7mzfjo6OjbGagk/2L3d18eqeN9t2+PqzKzmY24ODICP6htha/mQIQyAfhp83NMKhU2FJQgHnp6QEBwqGREWzIyWH/BWISMjQakB/ErUVFzFSQwyT5OKzIzsajra1YnJHBAEHuxUdGjZrvQpD7XCz0KFSY49Q+pezDwcIW5e7RgkEINuN8SVKzrFTO5Njo7HgKntGTfPOiOq0G2tJ7odJlwnH+h4DXzj4J5D9AvgLkTEhmCW3RzXCPnoTaWAZt/mYOhXR1vgBX//tsntCV3sW/c7b/Hl5rO2/yrv5t8FgaoCu6Fe6hfeybQE6KDEiKbwU8TjhaHoE6vR7a/KvgpH9nLYM2/1pmF+QU8m1Q6ckrXt5zcvqYrm6yOymSA2GvvVfWJUmUq2F774e88VNq3hJjMZsY0rVpeK79edjddvYPIKq/3dKOdG0GZ4W8pexmHB46jAJDAVbmrGDv9G0923Bq5DTmZMzB5qKreRqIBSAHxRtKrmfHww5rB9YXrEPDaAMODh6C0+tCXXotrijYyA6L7/a8xwzD8pxleKbtWVSnVWN1nvyoiAxtRtJdlpQoAMHp8WDA6ZKVe2HI6cSuwUG022wMX+mkTnQ+nby39vVx6CL5BbRYLBwKSdEBBCxuKyrCh4ODyNXp2ImRnv1wYACnxsbY6fC6ggIGKgQECLhck5+PE2NjaLZYsCE3F00WC/s/0JhrzGZ2SCT2g+qTnwKxDM93dTHQIH8GOYVWsDStBhla7QysZpePNGnDHOVMStB9GEAi+iDQmD32DiCMC2xocwbcgEo/JTSQEq07JyIQaNXwOiZ9C4JsulSfLluSEj3gcbDTI2Se2kLOo0oLNZksZignQ7IDBJJ/v6OfHQnlFjIREPPgnzqZzA50bTHJjlgC8hMIlvSW2glVxzc2X5/RzsJI70DsgZyoB7nymon6iQIQaJMedDphc8vP3EjmANrQ6XIh32pF7dEGTtcXs6O5l/QweGpl8mmgOlLiDahP0t9oX2hE/VMEA5lDEqEoDiAECn8I9rtI6ydqFAMrj4fuQrggi0VIBKWL5hjooiaVLl8aSIlmx5NtpQJAoLTOBBLoXVO1+KIjCKgkU0kUgEAyJap/wJGq18ZPaBWZF+gmxUS4A4HGE6mJwfetxGKPFiaGkCuRF15HL2dzTMmi1nNExEymfU4FgEC6RX4IZDpIxUJsBIVOJht7MLEBAFarFU6nC2lpZmi18b9LZOomQomaiNZPxULsQbZOK+vOhFjLSYQ5+knY34mC/pyoJgYeutcJr72bQwVTqhAtTb4HnKhp5kqqAARK8TzgGACxCalUiJSm2xMpdDIZSyIBBF7OAPTSlcse+aYGpc8PmRYoXDKRipSbFP3ZgXBDIKe+d7CLknx/EwyCVE3x2Dhc0Ou2Tn5iUh9UaD2Vhm9z5NwRMh0ao/3GqQIQSG5Or5NzI/huMIy2LBOtPd8dCgQQkrUkGkAgObs8Xgy6CCTIiZ1R7gyR0Spdp02Y/AuXbNReL8bGrXA43TCajFBP8fOYaYnLDnMMhECS2gdh6gt77BNXIROTICuB00xPs5z+VRcTRM1Ucib/0aYSQODF2+vi3AoUiUAOgclYiDUgJ8p0TTrfuJjMJREBwoSeeUHXL1OeBHIwTMZCDpV0KRLli5CSM2ImZBCpD0Kg0Effe0j5W7A9XTAIcjWCFmz3OLz0f6KCOVohCT4uYgwonbPaxFdA878TpKQaQCCxk7mBkjgRSCA2wRc5kCBTEvYwiDGgy5Ao54JJbbp4c2PYDSrgwUQFCKxnAOxuD4MEyodAQCEJVjN2QKRQTIqwIKfERLgQaTpVVVwUQ7y/uYSOYph2Vl0AJbLxhTMq9rMijK3iS5gmAAJdtRv/uw6C6VwqAgSfPAgokNmBwhYn0tkotHjJUqXicExiDsgpMXhAnELfM8CwExkgfKRnXji9xCp4JiKwFSx+Wr00KmIO1CHDLhPhNRUHEELdxBSMvpB7kyK1Rc8k4k2K0pRHyZ+S/xsmFjC4qGdeL+x2B0ZHx1FQEDqFsbR5U1at5DjXEfRMTB2LpTYoASBMXdNjKYt4ta0kLYu2iSHU/i1njxYmhnhprOgnbAmkMoMQttDEgwkjASUBhIQRWgoNJCkYBH/WwHfynw6pSQmh8LVBPxM6zDGFlDURX1UAhEScFTEmqRIQAEGqpFKznghzDDHvivRBSE1dnpG3FgBhRsQuOo2SBARAiJIgk7QZxV2UFGgegjECkdYXACFJNT9KryUAQpQEKZqZEQkIgDAjYldMp+H4IES650q1AETkgyDVjOD/MoFuhRImBsXoc9wHKgBC3EUuOoyiBARAiKIwk7ApKSaGcF870j06IoAQ7qADAQYBEKIlzeRrRwCE5JvTVHojARBSabblv2tSOCkGupFJyu+ChVxMDRBUbpijfIUQT8iTgAAI8uQlaieWBARASKz5SLTRhDIx+PZJCgiIdM+dalqQ0pZgEBJNW8R4LpOAAAhCKZQsAQEQlDx7sR97UjAIgcQUqX3D16ZwUoy9Eiq5BwEQlDx7YuwCIAgdCCaBcHwQAjHzsdijBYMgdDfhJSAAQsJPkRhgEAkIgCDUQw5ASPhsjvGeTsEgxFviyupPAARlzZcY7aUSEABBaERSAYR40RfCxCA+HCkSEABBipREnUSVgAAIiToziTEuYWIIMQ+CQUgMRU3UUQiAkKgzI8YlRQICIEiRUurWSQonxakhETSV0Qi5EGGOqftRyHlzARDkSEvUTTQJCICQaDOSWOOJRZhjtPZo4aSYWLoiRhNAAgIgCLVQsgQEQFDy7MV+7IpjEKSKRIQ5SpWUqBeJBARAiER64tmZloAACDM9A4ndfzg+CFLfKNI9WjKDIJI1SZ0SUS/aEhAAIdoSFe3FUwICIMRT2srrK1rZHGOxR0sGCLEUu3BSjKV0ld+2AAjKn8NUfgMBEFJ59kO/e7QAQuie5NcICBCChTlGOwTS56gokjXJn7xUeUIAhFSZ6eR8TwEQknNeo/VWUkwMgTIgU6AAFTl/mzpmKeaHxGIQxq3IyjDDaNRFS/ainSSQgAAISTCJKfwKAiCk8ORLeHVa30bHrXC6PDAajdCofVu/hIdjXEUygyAl89NUNCOnPj3ndntgsVhh0GuQkWaeiKMURUjAC3i9HtjtDoyNWVBYmCdkIiSgKAnQBkBrm9PpQlqaGRqNGlCJBU5RkxijwZIW0N43NDIGjUYLg8EAlVp1yTUCgU79obIk+7ML4dZPGAbB45nYBGxWGww6Lbz0P4LeoqS8BDweL1xOJ2w2O2pqKlNeHkIAypIArWODgyMYHhmFyWQE37UvAIKyJjFGo1WrVGwicLm9MJtN0Oq0oN8lSkkIgMDMg5eE5ILNaueNwOV0wcMAIQyQINedM5qzkap9R1OGfm15PISyXfB6vJhXPyuGPYmmhQSiLwECCP0DI+jp6YdOr2dwEJc9YCbXouiLMQlbVEGjVkNv0MNkMkCv10OtUScUeR7SxOCblUC6FsiMEEl92gDcHg88bvcEOPASjyBKSkuA1cALp9MJu82OqsrilBaHeHnlSYD0d2R0HCOj1osMQkLtAsoTaVKMmAwJBBYJJBAwUJNpYZJRmHpTcSgTQyR7rj9X4b+nJwyD4HtJD5MGPlgQJjyYSeQs+o76x0smBjI/WS0WlJcVRr190aCQQCwl4HNCGx+3X/RBSHoGQUnrYDTHKrMtL4MEcrmLE6skU9FDMgixDKFg08JkXgd/FBQmNJD5+qJ6wkuAWCSvF3aHE5bxcZSVFCT8kMUAhQQuOfV5vRgbt8JidTBAYBo5LghBzIMSJDCdx0G41w1E8yqChGMQlDChYozxkwATSpMMgsUiAEL8JC96ipYEfHHuPoCg0Wji44MQrRcQ7aSsBCQzCPHwQfC3u0jxcQg2Lrm2m2ChIHLbkltf9P0Rm+QvCwEQUnZ9SooXnw4gSF1TxTp4edS7FJnIXYPl1o/m3hNJ31JkEe5YBYOQFEtQ8r6EYBCSd25T5c0Eg5AqM5187ykAQvLNaVK9kQAISTWdKfkyAiCk5LQnxUtH3cTgT3dEQp3LpU5E3xNUXCLLXO4cXQQIDodwUkyKJSf1XiLeJga535hvRgKtt7Feg2M51lDroOg79H4hGITUW68U9cYT12FMhDkKJ0VFTZ0Y7KQEBIMgVEGpEpDMIPijTPrvQI4Pger5CycRwjcCjT/ccQVyMAmkEOG2H+y5ZO+b54miGASDoNQ1JuXHfRlA0GqmvScp3mtqsq8f02U8FO8tbf8WDELKL1+JLQDhg5DY8yNGF1oCgkEILSNRIzElIBkgBEO2oU7LUl49XOQs+v5IAtGcI6lhMVIYI7lz5M+YiDBHKV+QqJOoEpADEJS0DsZrrImyFklZ65JtDZYMECJZ5IOZGML9qMNVTrkTKN5bGgAJdz5Czb9gEEJJSPw90SUwUwBBrlxi9Q1LGUes+w63/VTfLyICCFImXtQREohEAgIgRCI98WwiSEAOQEiE8YoxCAn4JCDZSVFqCIyc0BGqS2VqaF6w0JRw6vs7qUwdXyr2Te8c6zmaTubh9n0ximF8DGUlIlmTWL6UJYHpnBQTYS0K95uUs2ZHez0QfQcPZQ+2h8qdb8EgKGutSbnR+sIcHZPJmkqK80Sim5TTAmW/MGdzHLPAbnfDnGaCWk3JmpT9TmL0qSEByQxCIHHEwq4T7ZA+/3FLHbPUeuG2H+w50fdH0vGZGJxOF8bGxpCVmYY0s1GAhNRYn5LiLUl3B4dGodHqYDQaggKEaHz7/m3Ec02NxvjDXVNF35d/LpHKRDAISbEEJe9LMEDweuF2eWCxWOB2uWA06pljo9+LIiSQqBIglkCt1sDhdMLp9nCqZ51OC7VKMAiJOmdiXJdKQAAEoREJLwHCAR6PB3QSs1qtsNscvOjS7wRGSPjpS8kBkgVBpVZBp9VBb9DBZDLAYJhkD9SqaS9KSklhiZdOWAkIE8OUqYknFSdMDBMSkCpzj9cLj9sDt9sDp8vF/xYMQsKuK2Jgk87XKrUaWq0GWq0WGg0xByr2yp7OBSFSStj/mwqXrg/3uWiMX/R9+do4U/uFYBDEUqYICbAxgUCCh374mANhYlDE5KXyIFWqiyYFAgfCOTGVlUF57y6ZQYgkJEeEGl4eykmqIidcR279ZJY5AQUBDZS32KTqiPlbJHAwKYBAYcZyv2+59UXfoTMXxivEfirL468L0/1N7nzLrT+dfggGIVVXLfHeQgJCAkICQgJCAkEkEBFAiIW9Sepsib4vl1S4MhEyDy6BcOUa7Dkhc2nZ5ALJKdz5mNpWuG2E+1wy9y10OXnXD8kAQe5iJ7d+MBHLbUtufakKLqWe3L7l1k9UOcl9D7n1xXvLA4RyN1Ypui11k0vmvoWcpElA7vctt75YD+KzHkgGCNLUQtQSEhASEBIQEhASEBJIBglIdlL0vazUsDSpVJx/vWDti76jQ8sKmU9oc7T1yX9BiKcui75Dz6mY7+isH0LX4q9rM7VmCwYhGWCeeAchASEBIQEhASGBKEtAMoMgJRxj6qksFvWDhaGIvi/P0hhIJuHIyZ89CjYP0Z4j0Xdk4VlKm2//dSOeuib6Dq1rU/cfKWu8WA+krcuh5DRT66BgEKKMuERzQgJCAkICQgJCAskggaQECNH0iJU7yTPZt9yxivpCAkICQgJCAkIC00kgpInBn9oIRTFFs3402wpEhwVrP1X7liKnQCAo2O+iWT+abcnVZdH3RxKL13wHWrhE35fPg9DN+OtmKsg8KRkEgQeFBIQEhASEBIQEhAQik0BIBkFOeEWgE1moE4Cc9qMdpiT6npideIbjxVrm0Wo/HF0TfUemT0Lm0sMQha4JXfPPnxCI9Q5m8pbyN8EgRAawxNNCAkICQgJCAkICSSkByQxCvOx+kYR7ROo3IPoOHJLjL9do2t5mUuZK9UGIt5/ITM6R6Du1vsmZnG+xHlyua4JBSErcJ15KSEBIQEhASEBIIDIJCIAQmfzE00ICQgJCAkICQgJJKYGomxj86c9IKCO5VKroO/o3oYWi3eTKXG79YOYNuW3JrS/6jr4+ifVAvskgmddB8U3G/xuTI3PBICQl7hMvJSQgJCAkICQgJBCZBCQzCIEcAKWESQQaXrhhdXLCoFwuN1wuF4xGA3zhIHanE2NjFphNRpiMhkvC+2ic07XvdruhUquhVk20lMjv7XtXf7nHQ+ai7wndgNcLlUoVdvjodHPl8XgAlSqgHnq83HPAv/nra7i6EIhNiub3HU770dJzpfbtDaFrE1oxsWjR8iVl7SJVmlzqLoolXJ2ZqpdS+o6mPsnZL8TadankfbJTHIMQTMnoFV1uNwYHh9HS3omxcQuuWLcCGrUaHo8X23cdQG//ANauXILy0iJJ0MrhdOF8YyvKy4qQmZ4m6RlRKXUk0NHdC6PBgNzsTH5pi9WGvv5BVJaXBBUCgU6b3QGDXg+tVhO0LgGDzu4+DAwNQ6vRoLgoH9mZGQxCqIyMjeNCZzfyc3OQl5t9ESQEa5Q2lnGLFUYD9a9NnQlT8Jt2TupazqSu0fz19Q+hqiKwrvUPDsPpdCIjPQ3DI2PIz82GXq8LKoGR0XEMj46htKgAVpuNdTuUflKDNpud9TArMwOGyT7o+Zb2Ll43iwvzoVZPtw1/NCQCFNQW6XmosSp4KhUzdMkAIdTGHAzJS5FGKHTp9XjQ2z/IH0RhQe60C+GYxYJDR0+hsbkdOdlZuGnLFVCr1Wjv7MFzr7yNeXXVWLF0ATQaNXp6+xk4lBYXIiPdDPqgRkbH4HS6oNNpUV5ajNb2Tnywcx8WzqvD/Lk1SE8zB32daMopmm2FQuZS5i/UHIX+/D/qRW5bcusH3RwxYfcLJhPqz3c6o3rT1X/+1XdQUlSAtSsXc3PNbRewbcd+PHDvbUHbHxoZZeA5q7KMF24qgd6RftfZ1YttO/dzvXGLBUajEVdtWAWDQQ8CGgePnERjSzs2rVuB4qKCaQHC1PYdDhf2HjyKubWzUJCfO23foeQk5due7t0inaNk6Vuqrr3w2rsoKynEqmUL+dVpzknX/vy+2wOKYufewwwq16xYjAsd3aidXRl0/aJxdHT2oKOrB/V1s3H81DnMqa1CXk52SP3o6OrFidPnsXRhPQryc7j+qTMN2HvwOK7csBJV5SW8Dk9XfLpJoJmey83N5meCfRfx0M3pvslU6VsyQIjGBuNrQ+7GR88RG/D2tl04fa6Jlff6zRvYTOBfaMEcHbfgyPEzGB4ZxU1bNrF5gBbjF19/F4sXzEFtdSXaLnSBzBB0CiPEumn9Chw/fR6NzW284Pf0DWDl0oWw2Wz4cPdBzK2rxrJF9cjOypRE08mVVzQWu2huonLHn0x9Ewt1vqkVZ883o7qqHPPmzOYTTaASDCDsO3QCdrud9TArKwPLFs1DmtnEpq8DR05i/+ETDE43b1oDl3Pidy63C7MqylA3u4pBKsmVQOrQ8AgWzZ+D9o5u7Np3mPU6Lc2Mru5evPT6e1Br1Lj+6g1IM5tx8OhJOBxOVJQVYW7dbH6GWI3+wSGmjpcsqGcgvPW9HSjIy+X+iWU7dOw0M3A1syowu6oMGq02JJCSqrdy68Van+IFTkK9N61BZxtbcL6xheVOujbdRjodQHjg3ltZd6xWG5/+iR1dWF+HfYeOM0BYt2opb/qzKkpx/NR51isCAvl5OTCbTWi/0IX8/BysXLoAg0MjvFYSs7R990EUFebhxms2QqVS48CRExgft6J6VjnqqisZNe87eAz9gyMTLK3XgzXLFzNAIJ1/+oU34XS5cM2mtcjKTOe+aYxVlaVYMLcWxIi0d3ZjeHgUdocTyxfPg81ux9b3diE9zYQtV61j/T9y/DRD9NrqCv4ep/sWYzGn4exV/uMIV5cToe+IAEIo5Y/m32mBfO6Vd3C2oRlzambhnjtu4MV2urLn4DF09/TxQqrRaBhg/P7pl1npCESca2zD6uWLmMZ6+Y33sHzJfAwMDvEHQB/Uzr2HGG0vWTAXW9/fyai9oqw4KAqO5vuKtmZOArS4vbr1AwaMJUX5+NynPsF+K3IBwu+fepnp3QXza3HqdAMKC/KwZsUiclFAc2s7Dhw9xQstneyeffkt3hyoPoETAqQEEuikQpsI6e/JM+fR3NaByvJSrFm+iBd6oo7f3b6HfW3WrliMre/tZMo5Nycb5xpbWGepTkNjKzasXcbAeHR0HKtXLGbAXV9XjQX1tfhg5wFelMlEQWYSYhZCsWUzN0PJ0/PA4DDr2qlzjSgtLsCDD9wFvS6wGWA6gPBnd9+CJ597HTk5mcwwHD1xlg9QDU1tDBAIWJ44dZ4BwEtvvs8mqtmV5dh74Cg/U11VwWzSjddewYelPfuPYsOa5dix5xDq58zCgvo6bH13B7KzMpCfn8t6tWzhPFzo7EJzawdWLV/IetnT049rr1zHAMHucODtbbu5PVpnDx49xe9HoISAMbGxBGKPnjiDpYvm8dpLQPa6q9dzv8SW0ZpMAHzRvDkwGHWwWEgvq1lPRYmPBCQ7KfrQTCDHj2C/C/U3ek1aBEO1T6euM+ebca6hBfPra1AzqxJajTqgIxi1tXcSIHxsyyZGnFa7A7/944u44ZoNvEASor5ywypeZOkERou3F1543F5sWL2U/RXov1evWISt7+5kmq6kuEDSWKe+z1SKbOo7Sn1vX1ty6/vf0x1qHqarT8+lWt+kH6++9QGfXGZXleNT99wKs59Tq0+ePgZhzcrFrBtTTQx0glqycC4DWjoh7j9yEnfdfj20ajWbyw4fO40F9TVwuT14+Y338dBn7uY2dh84Co/Hzb4y5B9AvyP9JVBB+m+12XHzdVfBbDbCYXdg574j/O+K0mK89tYH+Mx9t0OtUuPoyTPo7u2HVjPhY3DVxtXo7unFux/sxc3XX4n3duzFqqUL+cT52tvb0dXdh0UL6vidyTxH7JoUXZ5JXYuWboaj59Hom07Pr2zdxnQ+MZufvvc26CeZI3+5+gDCykkTQ9OkiYEAwnOvvs2HmeqqMjz70lsXWQMCCGQeZYCwbCFeeuM9XL95PQrz85iJokMW/f7Zl7Zi8YK57G+w58Ax3LB5I3bsPYQVS+ezv8t//vL3WDSvDjqdDtQvbfr7Dh3Dlis3YHZ1OdraO9nEsGLpQhTm54B8CQhokJ8EmdFOnW1kf7DszHQcOXEGTa0XUFlWzCbjDWuWwWZ34g9Pv4QHPnkbDh45xcCcQPIfnn6FfRcIyBLDQkwcOYuH2i9C6e1067JYBy/djxXDIMjFS/4MAtm2Hv/ji7jx2o3MIBDdtWrZArbj0oe3ad1KdPf2wU0AYc1SbN85ARDopPbGuzvYvEAnN/JdECX5JTA0PMp+K+UlhbwoTWdzfP3t7UzFb7lyLQuFWAc6wd1/501MsS5dVI85NVU439TGdOzdd9zAdOxUgEA+LwRIvviZu7kNArf0u7WrlkCn1eLIibMoyM1GaUkhn+6pXVrkyRRmnwQIaWYjnx5ff2cHPnvf7by5Hzt5Dp09vQwQqE+yBZOOv/3+HgYI73+4lzeHspIipnaJ7j15uoHpYaKVyTdBlNhLYGBohCl/cmzNzJjeEfq1t7bDYNRj88bVPCjSs2OnzuHeO27kkzbpWnVlKZ55cSvrDvkFMIMwr47XOx9AIL+svNwc1jM6jZPpi/yziEnyBwgrl85HZkY6fvmbp/GJW7ewA6LT5WZnxCeefRU3XLORTRfETDFAWLJgwgfB68XuSYBAjNaZc83YtH4lv9+J0w0429CCyooSDA4NY/2qpXA6XHj8jy9MAISjEwCBQAH5yjS1tvPhkD0biw4AACAASURBVDYrYiiKC/NiPymiB5aAZAYhkLxiYVsJdNINp29CzH0DgxejGIjOeumN97Fx7TJWeDq9dfcO8EktNyeLlfTUuSaQxzid+g4dOcUAgf5NDmIkKPJJoFMa7RbhOKlIlZfUev5yicZz0Wgj3HEpse/W9i68vW0nVi9fDL1Bx3pVRSaAFYvYpEW0LFG8dEIkvbti7XLevMkhds+BoyjMz0Xt7Co889KbWLFkPtP6tBjWVFegvraa48127z/CJzRa4MlccPpcI4gZo/amMgjkIPbMS1t5YSVPd2qnqCAP4+MWuN2eSwDCLTdchfd37GVWrLa6ih0dK8pL4HG7efFet3IxCgryItZz/zmN1vct5ftLtr4bWy6wwzSZO4n5pI2UTtW0wUcbIHzs2it43SN2iU7yBITLS4rYJ6G55QL/rqG5Dd09/cyytrR1MCu7+Yq1zCBMBQgrly3Ae9v3MpNAJizyZaiuLGefBTKx0NpLQOC3f3wBn7n/djZBEOtLzBuxDWTuIlMFsQ5LFsxBaUnRRb2Mpz4FW9eUuHZJGXPSMgjEGBBTQE44TDd5CQ2NwWQyQafVsFPM2Pg4/z4rI4ORM9nNSLHJnksKScX3b6J1yQ5NzjuiCAn4JEBUKp2cyLmVdIdMVbRgkwPt/z7zKusM2ZRNJgOfrjIz01kf6eR/8mwjhyeSKYF0j6JvaGGkNshG69M10tUDh0+wkyH505BvwuxZ5cwKkOmtobmdfWmqK8vQ1dOP/YePcztkJlg0v45PpwR862qqOBTt9NlGtvuSrwONe/6cGjicTvaKJwc5AsHkvT6dLVzM/sxIwOXx4OSpc7xRkq5R6ODSxfOg12px6OhpVJQX8wZMYI/MRBQpQxQ/MUSkA1UVpbzhkk6km81sDtPr9Uz1HzpGp/ZCZkibWi4wG3HyTAM7yBLTSvVoY3c63QxqF9bXsPM3OXCT7lK4LoX61tXM4ogwWlfp5E96Xj9nNgNcMjO4PW6Oili+eD46e/o4KodAjsvlwe59h7Fx7XI0t3fgzKQzOq3RFzp7oNPqUFpSwOCXWDVR4iOBpAUI8RGf6EVIYEICfCGM13uJEyuZAihqhkwMbM/3v31mMpSSWAICDdQGLfy0SfufkAntU6gvlWDhYvR3aoMAAYGJUGVqKGew/kO1I/4ePwkE0rVY9T5VP1iv/PST9NLj9rCfQCD9njou1i8Zeun/XRAgFiW+EkhaE4MUCjIVKaNA6iVoOmk3zIWSnf/fu3r6OCohULSNkHlsZC41NEwKvSp3vhOl73i/m9Dl+OtyvGQuGIT4AjLRm5CAkICQgJCAkIAiJCCZQYgkRC+aoSMkVSlhkaHCXGYqrCncsEXx3qGzngUL5WTqXabuREvm8eg7WmMV30XokOtwv2GxDl6+dsvVW7n1ZzIEdyb7jpacBIOgCBwnBikkICQgJCAkICQQXwlEBBBiYeuS+vqi78slFa5MhMyDSyBcuUq1SQfrPZn7jsW7SZW56FusHz4JhKsLqbBuSgYIUj88KUKXKthw25I7VrnjCXdBD/RcNMcqty259cV7y1tUxXx/JIFk0TW5a4Xc95ZbX3yT4puM5T4pGSDI/TBEfSEBIQEhASEBIQEhAeVKQLKTYiCUEi41EyxEI9y/TZ0CqePyryf6vjxcJ9rhNEqReTj65L8MxFOfRN8TEhAyj/03LHQt/ro2U+umYBCUC+7EyIUEhASEBIQEhARiJgHJDIJ/iNhUtB4ItceifrB+Ao3Hv75PisHCjcL5m5S+pYRdJmLfgU7S8Zpv0bf0kLtohVTNtMz914146proO3Qo8Uzrhz+THU/9SMW+k5ZBcLpcGBuzIjsrna+d7RsY5nu/6Q5yyknu9XowMjrOyXEo8UmiFLfHw+lMQ11bmijjTfVxOJwu9PUPXhQD3UNPOkXX0lIyMMqVQJnv6Pc0t/0DQ5xqN8CtyzMmSvo+Ql3fTNkeR0ctyMpM57wPosyMBEjfKE9MWpoJQ8MjsNudPBCtRo3s7EzOn0HrGuVhoN8V5OXy+jY2buE1hXKDJMraQt8IlUQZz8zMaGL3mnQAge77pgWbkuD09w9h04ZVON/YgqbWDuh0GthtDk74QVnJ9h06wXflF+TlRG2WIvFCdrkok14ziovykZudFbUxiYZiJwFKJPPBrv3Iz53QIUo8Q2l7Dxw5ie7efk4MptXpsHThXF6oX37jfdz3iZsSJm24y+3Grr2HsW7VUk5YNl2hhFCUsW/l0gVBUxLHTtKp3TJtpn0DQ5z0iFJ+U7It0js6TFDODZPJyGmdKUnd0RNnGIy6nC5O3kTZFCndM83vvDmzOZFXIpS2ji54PF7OGCnyLCTCjFw+hpAmBn9aZWoTgcwI0aw/tS369+DQCNo7ujkfOLEA9HH4b8iUlY7ynFM9AqjXbFqD7bsOcHrSitIitLR34vTZJs6XTul2N6xexhtyc0s7p33Ozsrk0x/lN6c79Hv7B1FdVQ6rzcZZxUwGA2dNo4xiYxYrL5pmI6FycBY++jAHBoZQWVHKmdQo1W5uTjZvCK3tHRgbs3B/lNGMWI6GpjbOOlleVgyr1Yat7+1ERVkxVi5ZAJPZhJbWC5xpr7S4kE9vvgQmgYBIsN9Fs34025KrT/Hqe2h4lNPXlhQVcMpmOuUE6vvYqfMMQCkLHRU6odEcP/Hca7jjpmv4vylLY0ZGGmdb/N2TL+FvvvIZOJ0uTnVLaZlpcScTQeuFLs7gSEAxPy8bo2MWUD6HzPQ0XkRp7oeGRhh4kJ46HA4Gt7QpUOpcApWkc5QSurSkkE+a9A6kzxVlJXzyt9vtaGnr5H+XFBago7sHTz73Om678WrWcyqd3b3MulVVlEGv07Ke7jt4nNspLytCRlraxLgy05GVkc71KfV0QX4uL/Q0htYLnfz9FBcWcBvR0M1ori1y165Y9j0wNIKu7t6Jb5x0LcBeQenqd+0/zDpCLCjp27Yd+zgFOMmZGCCzyYDd+4/ypksHH3rmnQ92Y9O6FbzuEUClVNFjY+MYHbfyOkN90SYwbrGx3hn0Wh5DR1cv61d5aTHrMLVJc051Kb8ItUXfRWtbB+sJlYGhYWbPqD4xGHRIy87M5PWOxkepofv6Bxi0kO5s27Gfsz3SmEhf+wYG0dc3iLzcHNZrFSWA8nM89Z+HeK0HctepWNeP13srhkGgRYeU/eiJs7yZ3nXrdYGT4Hi9vEBRTvsz55uxZOFcXsA3rV+J7MwMpt/eeOdDTn1L6W4pFzmBiQtd3bjxmis4Ta/b7eH86gNDQ5widUF9HadQNRj0GBkd41Sqi+fPwUtvvMdAgRA8AYWbr78STpeb0+3ec/sNaG7r4N+vWDKfETz9Ozc3G3abHcuXzMeRk2fYyEypUodHR7nd3fuPoKggDxvWLMfZ8838UaWnm3kDWLN8MW8oosRWAkTHvvPBHhw/dY431rtvu47TfgcqO/cdwbmGFk7nnJOVyYsd6R797r47P8bA4sSZBk6hu6C+Bk8//wa++uD9nDqXLL5rli+6SNn/9skXQRQypXqmtk6eOY+cnCz09g7w7woLcrFz72HWQ0o/Til877jpWvT09vNivmblYjQ2t+PoybO48ZqNoLFRulwCrbRQX7VhFV58/V1O3Uv1GWSr1Xhn225sXLsMc2urca6pFSMjYwx4acO47WObWed37zvCAIJSANOGVl5SyOmhCbQaDQYG7zdddyWzC8++/BZvAgSO6Vsl/RepowPrLMn27W27ORUyrTW0bgQyeRI4o1TdJ083oKunFyuXLcKOPQdZrmT+WTx/LspKCvHBrgOYP3c2pwSnZ956fxfrCxVqt6aqgtct0g+aGypnzjVj++4DXG/ZonoGmJSKmdom1uHaK9eyXpHuUR8EUGl+r1i7Ar978kV85r47eBsnEFlbUwmdRoOX39zG+kIbDI2F2j587BSb17r7+lFWXMQAgtgQ+mbIDLf1/Z2oLC/m/ml9ra2uTChTXGxXncRsPSSDICe8IhBqCvTa4YQiDY+M4oXX3uUPiZTzwQfu4tPLdO1TvSPHT3Mu8s6uXlZmsgP7gAblUqeTFJ3eunv7cN+dN/PpjRArAYQ/Pvca5s2pYWqYFlzKi75p/Qr09Q/hvQ/3YstV6/He9j34s3tu4dPgc6+8zWwEnbZ27TuMB+69DUTLNja3YcmCOXj8yRfwqbtuYTCw//BJ9o0g0LB25WLUVFdynxq1iheLBfW1qKosxZ9eeJNzudMCSwOjU1+gVMDBTjeB/iZnTpUW5hiNd6OTPekamXtysrPw5c9/EulmU0Bdo82//UIXli6qx+Fjp7kO6YNXBdx83ZWsT7SRnjjdwAv3My9uxYa1y9DTN4CPXbuJdc435l/9/lkGjgvn1WHruzv4tE5Atr9/mMEx/ZtOXHR6pA38J7/4A+66/Xp0dffxJnHFuhUMTMi8QafGD/ccZNBLbMDTL76J+++8CY8/+SJuu2Ezs3CkVAQ8//uRJ/CVBz8Ji8XGz9TOrsKcmlnMQKSnmVj39x8+gc0bV+O1dz7EkgVzMad2Fj7YuY9PltdsWouX33wPsyrLGZD09Q/jlhuu5HHt2H0Q11y5ltk5KuF8+/6CD7eNcJ+bbl2Lhq719g3ihdffYSaRmMa/fOhTME7j4+H2eNl80NzajvVrluPQsVOYWzOLAdrrb32AuppZ6B8cYl2cVVHKDOruA0cwOjrOGzQzO+2duO7q9XwY8c3HydPnceDoSdx92w2sAy+/+T5u3LKR233u5bdw47Wb8Mqb73Gf9bWzWBd6egewcd0y/PzXT/P3QTO7Y88hXm9p/SMzLv3/fGMbLnT1QK2a+C62XL2REkTz2Oh7cXvcWLV0AQ4dP43zja34+M1bGFQTO+wDSuHOW7jPxXK+Q30Dse5b7h6tGAaBaPjT55tx6OhJzJ9Tg8UL5ga1mZ5kgHAGyxfPYybhinXL+VRG6PSNd7Zjbt1sBhDk6EMnqvvvupmpXCo+gLB+9TJUlZdgx75DOHWmkdEzKTb5MhQV5LNC33nbdWwioA2FzAJkDqAP5NMEEJra0NTcjrraKvzhTy9jyfw5UKnVjOzpHWiV33vwKAaHiD0oY7qQGISF9bWYVVmGC1292Ln3EDu20Qe9duUSYf+NA9CmkzOxBwePnmQ9o1MVsUSXbVReL+sTAU/6O5mlDpI5Ic3M1P39d948wSCcPo/m1g5mEB773+eRn5/DukSbN9GxvvLYE8/jyvUr2azx6lsfsFmL6HwqVE+j1SLNZGSmgBbQX/72T7h+8wZ0dX0EEIh1OnjsFIPK19/5kDcKKrSR33DNBjS0tGPfgaNwuT18cptTU4VfPPY0vvrgffw9nWtqw+79h2G12rFgbi3Wr17KGwJtLsRAPPXCG1izYhHr576Dx0A+P8TCEStXWlKEllYy1WVjw5plfHp8ZesHuHrDKqaZRblcAnSgoE3/8ORaReBrOodRmsMjBBBa2rHl6vXsS0AbP60new4cY9BJgLR+kkGgxYoYBGK/qA6ZXqncesNmzKmh0/mEMePEqfNoaG7Dx7ZsYnaATE7VVWX8d1rb6HBFByZaI4n6JxMtmZBID0h3vvT5T3L7BBDm1s7CW9t2sd6azQbWOzKdkL4QIDh9vpEdJ4mxInaUfGBWLV3IP9/dvgdNLe1sqiIGtay4UDAIM/zRSGYQomFDlGL3Cxa2Egj9TDeuCQbhDLZctY5pN9qAidZqudDJH9jaVUvx4e4DWLNiMZ+6aDG+fjOhZv0lAGFWZSnOnGvCucYWrkvULkVDkA/B629/yGicKNy33tuBzVeshVanwetvbcetN25m9oAci2iRfealN3HNpnVstyNbW3paGp+2qB2yIdPHtWzxPDYrVJYVoXb2LDS1tvMHSZQ32bHXrVqCstIJu2E0bVDRkrm/7TSe8x1O33L0KZDMaZMlipVO/ZVlxcwUkINs/f/PPL3w6ttMz5PJihb/rIw0XiQf+8PzeOgzdzMQJKBAG7lWq+U59QEEoprf/3Afm5bohDhmsbBpjNgDWsCXL57PCzeBznvuuBG9fQP8e3IgPHbqHC+8V29czWwAbdS0kZCfwJzaatb9osJ8HmtnVw87Jz7+xAu4/+6beawEVgnwEIvy2lsf4HN/9gm89d5OLF1Yj1lVZXjq+cAAgcAIsV00LvqeiDWgcdF3ePUVq5lCDmeOUlU3A723DyDQJko2++HhUWYLCFDsPXCMN1aL1cpzsLC+jtnMd7bvxpXrV7F50+P2oKgon30XPnHLFhTm504AhNPn+TBz45ZNvLbRukZrDfk6tHd2sT4//8rbvIaSueDIybPsx3DVhtV45Hd/wu0f28wA4cCRUwwajp08x+vcwnm1IF8eKuxMqdXwuke+X1SffGbIxELrHrVHaIB0kIAMOf3SgYkiMeK190S6HvizA772pKyDkfQtpf1w9wvFMAhygRQ55ZCPAZ3Imlov8KJF/gJ0wicKnzZmOiHSaZ3MDIReaREkZzCiZN/Zvoc/spKifD4JHT52hp8lmqystJC9gckmRycrAhW0ENKJsKS4gOlho8kAt8uNtDQzL9wt7R1sh6YPgJA52eeaWy9MmBY0av446PRw7nwzA4j6utmM0qlPOp0a9Xosml/HDkKiJI4EiJ06fa6J58XucGDO7CoGAkT/klOrwaCDTqfjuaWIhpe3bsO9t9/IGzad2oihyJ30KyHWgBZ8OjmRk9iJM+fZDkzOq2QvJl2kUxh97GqVmvsgWlitVuHw8dOTTogOfoZ8bui0Sf4EVEjHyXFt+84DHCJHekwbBJkK6PRPTobUBznLEYNCnWh1Wmautu3aj4/fdC3rOZk6yB+CxkI6Tws9mUR2HzjKYJZOi+/v2MdjoBBPYhXq62bxtydKZBIgtqahqRWdXX2YXz+b16SPwmVVWL18EZuaSEcITDhdTj6tsw/U6XMMFMlZe8/BYwzW1q1cyrpD6xL5A5DjNs07gcyevn6ur1ZrsH71EnR293G7tPET8DMYDHz4onknEwbpF+npquUL2VGVnCXJH4X0jPTK6XCyX0Oa2chmjNrZlczGnj7XyIwZsVfEwJGTIz1D4yQ/FxECGZnORPp00gIEOm3RyZyUlBZU8v6m/yZFJmdFAgGElom6pRMcCYKUkRSUCnnhmk2mix7YpPyEdmmzpgWdflJ7ZKKgf5NfwuplRL2W8mmPkDz5G5AdjWOP1WqObiAnNLLrUj92h3MSYXuRkZ7OHw8xFDQW8kymRZY8g2kRpgXc5+0e6aSL56MnAVrkBgaHeGGmec7MyGDAR4s5LaR0mqO5o/nkexAGh1CYR9EubmaGyM5LGy8VOrUToDRM2qDJfEEsEwEMOlGRVzedtEi/CGg++8pbuOGaK1BaVADy0aEx0PN0UiRnVgIs5DxI+kOAmHxYCNBOxMhreLEnHSW9pt/TKZ8KtUXvlZ+bzWY0i82GFUsXTHwXwyMT34VeB4vFyr+jdyMHOr1Wy3Q2ecSz6U6n4z4S6Z6R6M18/FuidYz8Qig6gXSK1hiaKyrkK0M6QYXWD9IR0kMCCPRz6j0IBABJB8iXi072pDd0nwKtlbQGEvMwODjMtL+vXdJn0k9ybu3q6ecQ8ivWr2Cg0Tc4BL2WgLAWZrPx4l0MI2NjrN++KCBqk9ZM0hHySaEDFI2DxkDOuGRKJZ1NM5nY+TXU3Rzxn4HU6zHqJgZ/uiMSilAudTJTfdPH8/+1993fcV1HmoVIEDkQkQgkSIIgiJwZwCRGSZQoWZYcRrbX9ux6Zvac/R92doLtH9Z7fLzrCd6xLUuyZYuSKEYxiGBEDiRIZBAgCCIDBJGIyN2vGg2Cjdfd7zVeN1K9OR7Tjfdu3fvduvW+W1X31d37dRQVEcaKbu2riXPVTGmMy2XcGIdWzLXeb8RKDU7WdG2lycbx3e3btjAZsNeXFPFCwi4TREJpvrXqsrU50jLfIlufL21qxRzHHUEWkDQLz5ClObU23yttTaqxU7bYTS1zpCfmK9aD4GiuB5ce3H3iEnM08qtXHrxg0DfRudWrA4sxcnik4GECcZRrZSOg2oNgymDmsiAliJSSItS0ocR+1DyntJuw1i/TPops+1eCE8wNWim6ppxoq7TWTdexPWyLLfbDUr+06Plyk61lbJb03JZxi2zH2g/xIKxsAiijEwQEAUFAEBAEbEJANUGwxNqt7dTV9EztrmChbWntq4z7BWKOmiMlOSJ7vubqqZuLibmsScevMT0wlzW5ctekcW5VEwQ9FEqN+1ANATB10drqglQrS6/2tRp0wXzhhnO1Ym6rbtvi9tVDll5rTI++6Pni09ofkb3wl67YTf3s5oIIglbll/sFAUFAEBAEBAFBYHkgoDpJ0R7HN9AmrrnHAq0dmdF6v7njX6tV9lzvi5o5tQUnvY7ciWx9jrGZzrOj1pgjdE3swcv2UyvmWu+XNbm61qR4EJYHkZNeCgKCgCAgCAgCDkVAtQfBUXEdvY/FmPZbbYxP7X22tm/pOZE9X9vsjYm921+t863lWNpcjPSYD5FtQNSRNlWPebPVpops/e3mivYg4ONF5j7mwR/7mCkiohclQ5v4qiK+RS7X6kAAOjQ9NTU7WHxSG5+OVbrs8WEjw0droOeicytd40z1x9rcwxbhi0b4kBbuhW5a+7SRtTbNYWwQBRlOijLs8XElXnvT06z71sa10nXDXuNbsQQB36BHkaaUxK3zXthQ5ubWNsYU5Zz1Mq6oqIcywa/sybXXfEm7SwwBfD/+RmH5LBFFudvYDVFc68D0QinoyPBQCgk2VNFb6AUD2dXdy0VuoOdSEGmhiC7t51EVNMDPh1DtExeKuqEIHSpyKl0oBobCSCi13fa4kwskGWvNmBspCow97ujiImKoneDv78P1FKxdqBuC5yIjwrgaqOmFdlHzA0Xu9LpQtwaVH1GkyliHQq+2pR0DAssqxGBgqYbPy+K7xkqsEQWQLl69xdXwfLw86Z03D79kODnJZqZ+Ov6ZmbZ91pgv1BU3ODxCnV09tHljtKJ+qXWBqb3PVIgez+nRhq39Wkqy1egaxolKjnjx56QnsUcqMMCXAvx8Dbu2mQRcIx5/PvUVV3WM2xSjm9t3eHiEC96gIt5cz5VaLNXeZ+ucWnrO0bLn9mUpyX6ha6jqakg6VLo+P3uF1oeHUFZaIv8ZJbvzb5bQf/rOCUV9QrVZFHvbtzubq3qi+Jabu5vZ9oEJKjMODA5xMaiS8iquIIuqn9bwakf10ZoGSkmMp5B1AfO6f+deHZckP7g3V/HT4NbaV8IERaVAjqPWh82rCWEPfV1KurzQdxW/Bk3sk9L6WDYeBChDWWU13Swqp+SELbRnRyZXlDO9EFboH3hK9U0t1PSgld49cYSrNeKCR+H0hXyuOobiM/FxGykrNZEN/M2iMlrr4UG7c9IpfstGOnf5OpdMrWts5mp5KOMMJUcd9tcP7+U2znx1jeuoh4eto4N7d3CZ3AtXbtB7bx3jUtAooYqiJthR4hku6yzXkkcAFTeLy6uosKSSyy/n7cgwuzsvqbjHc4yyyV6enhQU6DcbYkA1vKrqBrpRYCixPDI6Rof27qCNMeuppPwey0AlROhOdGQY/fmLCzQ1/ZxLQWOnhUJJqKa4KTaK3ji6nwYGBrmUcvPDxxQeGkRvHz/MFfBQKAw6W3mvjvuCUr3YVaHkM0r55t8s5p1AenICj8VMBGTJz8tK7CAqM6JkMl7GqJgJ+2POTpgjCN977zjbooGhIa4gui1uE+3fnU1llfeZIKQnb6O6xhZK2raFrtwoYo9Abf0Dil4fRn7+PnS/ppGioyJYx/CiL6msogBfX7peUMoVSr//rRPk7OLMtvPJANpLoKz0JNYj9AneAVRsRMXQnVmpFDxDELp6+ujsxWs0ODTC1RmD1wXS0QO7mFSj+i22eDuzU2l7/GbCOgLhQWVUVBVFOXHc5+LsQt96+xhXgCwsvcMlp1HVFn1Fm6e/yqf9u3Pozr1a6uzu4bLUIELffPMojY2P0bVbJdTU/IjWh4fSG8f2z1ZOXYm6ZI8xqfYgGNkG78A1Hk3U46ghyppCGWvqmrhc809++B7/txKTwm+19U1MKL554ggbdxjnX/7bh/TeW0dZmc9dus7uMCjz5fwC+sF33uIStbeLKigrLYkXB0qSHsjLpU9PXWDmjdABFB4LGS5khBOOHNhF126XUmhwEJdGPXn6Iv3k++/S+Ss3+PnUxHj6+NOzdPzoPq6LbjzSqRVDrffrgbmtfV2Ksucy5rm6rNRXuFahayCHcOn+3V9/l7w91yrqWv6tEjZuMLa9fQOsG2nJ8awf3b19dP7yDTbW0J+P/nKWXj20h9zdXenazRI68eorTAaKy6ro3RNH6Xd//JzdwCAbMPggCZlpifTbDz+jfXnZ9Gx0jEv8pqUk0KenvmJD7e29lopLq3jndu12Ce3Py6HgoAD6/Z9O0bGDu9kFjR3Wxg1RhOqPe3dm0po17marP9qyvkU3bT9q2NPbz7rW+OAhV+X8bz95nzzc3RV1zUgQoBO84ZnxILz/7nH6+ORZriabEL+JznyVT4f376SW1nYmCInbttC96gbWpVPnv+YQRW5mCn12+iLbrN256axPr+zdwR7awtK7dPTAbt6MZaQmUHhIMOsmbNmGmPX09fUi9ixAt0ZHx+j4sX384gYJObRvJ3sQQHQ/P3OJPVtpydvo7KXrXA58f142/cdHn9M7bxwmZIGB8O7blcV2vam5lUnv7eIK6u0f4E3VraJyzm1IS0qgiqpq2pmdxmRgYmKC//0RbOuRvXSzsJz8/HxpV04a/fHTs7yGsGbhtcD47tU2UmREKIWFrLOo+3rarsU87q3Xmlw2HgTEm2DgKu/V0oao9fTa4T3Mbs1dNTMEwehBgPcAC+fvfvQdVsyCkkpmsGC3bq4urLjDI6N0s6iCjarRXAAAIABJREFUQoICqaqmntktchQKSu+yUuF/n7l4jaIjwyk2JpLqmx5yDLippZUyUxO5vvrJ05eYIIA0xERHUEJcLH3wyZeUk5HMrmW5lj4C0APMX9X9eordEEmvH9k7W+74JTfc8+eE2CvIgLe3JxOK6roHdCAvm3y8vVg/yu9W09uvH+R7/njyHKWnJFB3bz+NjIywMR0bG2f9eOv1g/TFuSv8AocRu5RfwEQjen04fXbmMoetQDCxG+rt7+e+Hdq/g+UYCcK92gYmsYgBo03oK3aUjx530rqgANZbrB3xZC0dHRwaHqGrN0uouraRyeHxI/vI1XV+/gp6DP0ICwmmnIwkHkDDg4d0vaCM3v/mcdYReLs2RkfQX774inKzUjjMCoIAzwE8WUaC8NqhPAoKDOAdOTxYGSCcX17k0uGwhXMJQmZqAvn6+ND/+pcPOLQB3UG55+SErZR/q5iOH9nP3i94SyEDpBWbLnhTf/PhSdZ9ENbyO9Ws9yCrxeX36P33jtP01DR9eeFr2rp5Iz1u76bJqUkmNsgrmJqaZi9YdX0j1da3sL2HNwyyYW/Xh4Wwh8xIEECyQQriNm2gS1dvk4urM22MiaLisrvk6+tF4aEhbH8lV0Gb7i+IIKiJYSh1x9Jzlro/MvqMevqeUKC/L3l5eVqMpRk9CEaCgJ3anz47T//5B++Sm4sLewjgapuanma3FhQdYNwqrmCjDMNuJAhFZVXsTgPrBhOOWh9OAwNPWVlzMlPYk2DwIPhaJAion77QbFtHY/7SC1FFzErP+V5M2SAJ2MUEBfiRp+daxXmD7sAYJW+Pp7CQQEJSGAgCdkR4STe3PmYiCqOPkBQ8CNApvBSQNHbsYB7/G6TyG8cP0aenLxoIQug6upxfSGlJ8UwKTp27QpHhYTQ0MkJYA3AZX75WwLs4SwQByWvwlo3MjAW5OT9+/x0ek5rL3rpmj/bV2palJBs6gBf5usAAdp+bsxHYbT8dHKajr+xi1/vtkkrq6OyhE68esIkg4EXs7bWW0pK2sQ7C1Q9yYiQINwrLKDN1O3tC//W3f6bXj+4jf19vftGDcJ6+cJW9A0nb4ujBw0dMEHZkphgIwtQU/eGTLzn/AZss2FXkN8THxbLH9q/efZ1DuGcvXqeUxDj2dkxOGglCFU0/n+bwb03DA6qua6KkhDgmGTuyUqj5YRshNANvgTmC4OTixJu2oaFhg10vquD1BO+bKb626oKaNTTXc6nVNqrVZUv9sHVsxudUEwStndV6v62DNAe6KUGYmJhk95qLiwvHrhDHBaMEa8duDS94sF4nZ6LMlETOQYAxx64L7NSUIGAH2MixrRBm8mDpwUGBdPKMNg/CYuO0UMJixF/rOLTer7d+6DFujAHxfXiRsCNDGCwmMoKSt8cxIXg6NExXbxTxKRnktyBXACEGENyvbxaTn48Px0lBVPftzuJdvylBwI4LO0eEw56NjXMSLF7wd6sbaGd2Chtvcx4EGPcnT4fYSLq5uVFT80P65omj5Ovtpda2mb1P6/xpvX8pzrctoGkdt6X7O7v76Mr1AvLx8uKcAIRE4RWIjY7UnSDAbX/lehG/qJFXgJc0dAmJ3/B6IZQGolBSUcUE4MnAILv9kQ8AgoCwQEHJHWp93MFkAoQ40N+PDu7bwXkD2MnjODCIBEIAZRX3CXlmh/bvZHtrShAQ3iguv0sRoSH0qL2T/Hy86cCeHLMEASwAtrvhQSuHGvBMVnoibYmdv0nTOkdLVTe1jkPN/aoJgi2LYzGfASuH0uIFzqceiNiAt3V0swfBxdWF/P18OY8BSV04Foks8KAgfwrw8+MjO8hIh2FHO7jgIUBMC7+BaUP50TYUHQk6iO3CU7EhKoLj0dgNYCf56HEH+fv5MVuXa2UhgERCGB/saJBIhfCAMfSFHRK8U/B6gZjimxyhwfj7GkICV//AIOscnvH18aKHj9o5TOWxxp2NL5K1YEjhqUKbONeO53DhOZADJNviRYGsc4TL4M416iZOU6B/SFxETBgyIsKCFbPIV9asrMzR8Px397JnCyexMOdInoYuIDkPGx/oCUILsFWYe7x04WWCoYc3qaOrl0KDA8ndzY31D6EvPAe7hftgz6BPCGUgh6b/ySBFRoSw/iIZEZso6BGO6iJE2/zoMU2MT3B7sHfQ3zUzyePwdiG8hW8VQE89PT14I2ZIpO1jWbgfhBm/YXxIZIR8JGGgv7Dj0GvYYowLGz3oN8aJ0xWP2rsoLDiIxwL7imOc3T39nBSCtQN7jaRj9A9Exlz4ZmVqzMJHNZcg8PcmRscmcepmXiKH0k5xoe4LJfeLI2TPfjxk7jh51Dg9aSATpmMz1y/+OMictHC1mKht37Qvats3VQ1bcbX03FwZavu1XMatdWzQA9Ojt8axmvsb9NB4pMCcR0MJL9ZTlceUWH9YtV/oqd5zqpeuacVcyfzZqufLSbZhOs3bHS1rTOu4lXQZL3bjx8EU9dX4saaX7K1BstF0qrYfL5bMPDttbtxKfdY67sXWNS1zquf6ViQIC+cd0oIgIAgIAoKAICAILGcEVHsQZndDCt4FJcZij/styZm70xbZ8z1AC5kjo4KrwVXvORLZth+hs3Rky9IRrMXE3FTHFqK3WtrSaj/01nMtfV1M2Uo7b0fO0WLq5mqULR6E5UzvpO+CgCAgCAgCgoCdEFiRBMFSPMtOOM42u5iy7T02aV8QEAQEAUFg9SBgNcRg6lax5mLS834921Jyj1tqf7XKVoOTEgmy9Jue9+vZllZdFtkvEHPUfCuZYpE9fx5ENx2vm6sB8xXpQVg9/E5GKggIAoKAICAI2AcBqx4ELccrlHZk1nYAWtrX8/gG+iWyDbNjCdflhrlec2rLuEX2wvRJMFdXYU9P2yWYry7Mtb6jxYNgH+IlrQoCgoAgIAgIAssaAdUeBEfF/awd4THNDdAzDiSyX7Dp1TDfyzUHwdF5IrIuVte6WK3zLfZgvp6LB2FZ8zvpvCAgCAgCgoAgYB8EhCDYB1dpdZUg0Pq4k7/5vi7Qn0eMKpD4Xv7GmEhFBHr6+unZs3H+Vj6+P49vz6P2gqULJaVR02FD9HqugIeaDnM/723uWXyLH9+oxzft9Shzi+qVxtojq2R6l9QwUdeA6x3MVOMcGjboGkqSK12o54EaIb6+3lzfALULUBPB0oW6M6hZg0JHWnRt9NkY16yBXlvTZzWgiq6pQcn+94AgPOl5SM+Hm4iej5uvxaDW5Wzq/lyIu0qrK1VkW//qnjU3mr0xt+ccWdM1e8g+d+kGF65Jnykj29rWQbeLKwllxpX6U1pxn7p6+ygnI5lwL4w7CsyYq62ANjq7eqm1rZ3it8TSnXu1tGljNIWFBM22b27cPT39dL+ukbbFxfLLQWlutcx3ccU9LugTFxtNTijcYmKf1LRvbY4shRC19BXt2GO+F9MOnrt8g8JD1xEqG+JqedROt4sr6FtvHVPUteLyKn5poyQzis9t2hA1W7rc3DjaO7qpvaubtmyMocqqWoqP28gFwKyNu6url0szo2Q0yLIaXbA0RwWld7iQE/oMUmoPXbOnfljT8+Uiu//BWequ+heiySEip+cGgmB/XiISBIGljQCq3jU0tcy+jM3t2D87c5nCQ4MpNzOZB9Tc2kb5N0vo+996k+obW7gaDbwG68NDubJoceld6ujupYN7cqmzp5crOaKKIyqLomw4Xvz+vr7U2NzK/8ZObnB4lFpaH9OaNW50/VYpRYSHUF5uOhOL+qaHXPkxNiaS70c/QTyacb+7Ow0MDFLS9i0sBxdKRt+raeByvFs2xXDZXOzWKu7WcKW+LZuiuSzv2PgEVd2vo5HRMf7N3d2NLly+yVX9MlMT2EPS9LCN2tu7aUN0BEWEhbBnQy7tCKBKIeY7btMGClkXYNY79PnZK6xDWWmJLKSp5dGsrjU2P+SiXL19TygqMpwiQoOpoKSS+p4M0J4dGdTT+4R14MHDNloX6Md6A7319vaipuZW1qno9WEEbxWqk6JC5PWCMtY/6BoqlTY0PeT2N22MYsIJXYPuPmzrIDdXV3r6dIhSk+K53DOukWdjdL+mge+L2xTD5BK6Vn6nmr0T0CtUHIWu3amqpbGJCdoSG806BuINr1dGSgLFRIXzWLEmoXfhIetE17SrmU1P9NZ+SJ3l/8wEjT2Xq6Gao+l36E13LXOZrZq/Ke3KlWZDiVWqad/ScyJb/2NKcLGevpBPd6vr+cX+w796m7zWeiguMEsE4bcff86lZlGSt72ji944up8etLRxCdrMtO1UcaeGMlO30/krN2j02TjvzO9U13EZ35DgIGp60ErvnjhG4+NjdOV6EeVmptCNglIKDwthow9Di10kXs69/f20MyuVy+OevXiNMtOT6PFMGeojB3bNEgT0F9cajzVcgS8nPYlOf5XPpaVBKEZGR2lXThp7QVxcnLmsbmPzI9q7M5NKyqvYeGekbucywiBC2+I2Uld3H2WnJ7EhN107pjtPvXXZdFJsXWO2rCM9ZOMFfvp8Pnt6IiPC6K+//w6tcXNT1DVzBOH9d4/TB5+c4pLeKOUMwvGN44eorqGZCULiti10r7qBMtMS6dT5r2lqaop35lU19TzveNmDzL7/7hs0MDhIt4oqKD05gW4UllFUZBjtyc0keCPa2jspNGQd9fU9obydGdTfP0BffX2LvWfGss5HDuxmkoMKj1+cuUJOzk7k5ubK/8lJT6aTZy6xh8HVxZXGJ8ZZ1/JvlpKHhzuXZEY7u3JSqbD0LocqMlITCWWj4SmJi41hUr0zO40iw0McrmtadFlvPV8s2QaC8FMmCJhL8SDYxLPkoZWEwMDgEJ2/fION6vqIUPree2+YjeEbCMI6fnnjwg7t2i2DB+FPn52nxG2beWf42ZlLlJacQD29/YoEIS83g43xjYIycnd3p13ZaXTy9EWKj4slb8+1lH+rhI4f2c+GMilhCxOIX/z6A3rt0B7y8vSgu9UNtCEqgklDRtp2SozfzJ4EeAay0hNfIghBAf68E/Xz82EX9NlL1+j4kX00NjbOXoxNMVFMALCDw66u/M592r87h+qbWsjf14eSt2+lqtoGqm9o5n97enpQcGAArbGSS7GSdESvsfQ/eUoIHdTUNVHU+jD6/rdPkLubq1mCADKYnW7wIMDrcO1WKYEgnDx9iZK3b6HYDVH0ly++op3ZqUwUQBCStm2hqjkE4dC+HawPIJveXl4c7vrki/OUkhhPbq4u/HI+emA33SwqZ29RYIA//fLfPqSjr+xmwojQA3S6sKSScrNTKSEulj1Wd+/XU25GMnsQQBBOnfuawwQRYcHsIUMezZmL1+jNYwcI+THwSGzdvIEJgJeXJ42OjjIp3787m6pqGriPifFbqPJ+LT1ofsREx9NzLYc81rgrkyi95kXaMSDQW2cgCLiwoTBLEJRiUJZA1PN+PduytrO3tCtQozR69lXPtvQYt6X+6NlXS/FOrePQej9kT09P88v1QcsjiomMoJjoCHa5Kl0gEthVH9y3g1k2DBsM6HffeY0++fwCpSRuZZfs52cuc+wY4QAlD8KBPTkUHhJMReV3eScFNzJ2e5s3xjABmCUIJRVsKLEL+8X/+YD27MzgFzNCBzFREXThyk06uDeXNkav5xcE+pKWHM/GFmN73N7FJKDvyVMmHkgqu1VcQbkZKRx2mH4+TWHBQVTX2ML3+/t6U8ODVtq3K8tAEPx8KDlhK8u7X9tAXT19TCwyUrYzwYER0Yq51vv11LXFlo3dPLxACCFhzqKjIsxiCLc75np/Xjbr2p17dXTnfh3nIICowr2/MTqCCUJuVopZgvDaoTwKCgygorK75O21ltKStjHBQP6AqwlByEhN4DDUL//1I9q9I429TEhIBBE5ff4qHTu4m/UOO/+q6nrWAxAEzFHb407WNZAghBegOyDA8AAYdQ3k+n5NE7m4OpOPlxe1PHpMe3ZmchjMSBCGR0epuraR1w70Dl4vEFxzYT899WOxbZG53Auteqv1fuO4QRA6bPUg2PrC0DqBtg5O63NqCADukXHPR8pWTJY75oiNXr5WQJmpifxiv3O/lkkFdnB6EwSEKEAUQA5AErAbi4oI5ZBDW3sXbY6NovrGh9Te2c27woePHvNL4kBeNhvbiYlJuny9kF9E8JI8bG0nvADgJt6Rlcq7Mng4Avz9qLD0Drt/kQWPWPbhA7s4Vj06OsYejLaOLkLqGAhG2Z1q9lgkbI1VdbpCzZzbW59s3dzoYbtslY28gWu3Szguj5g/vENIWEWYSm+CcOyVPPr6RiGHrxK2bjLo2vowznN59LiL4rdspPu1jdTT28ehi+aHbRxqemVPLhME5BXk3yzmkzfwYjxq62TPB8JZeTsyOMTQ/2SA9edmYTkdyMshZMyX3rlPh/fvpJq6BxwKgZ4bcyIQeiutuMchDeQ0qDnJY8TaVn3SY76Xs2wjQWAPgoQY1JguuUcQeIEAEvtqGpupra2DiSOOoOHUABIIi8qq2KgiLlxWWU1R65FwOExPB4f4JY2dI/777v062rZ1E+/Wm1rayNXFhTbGrOcXAEIJeHHX1Dezga1tbOaMdOzisdvDTgsvcbiB4a7FBh7xYpAB7DY9167lxC8/X2/2jFTXNVF7Zw8PAAlo7Gno7OZ4NWKMIBLYEcJbgIQ0xIGdnJy57bHxcaqtb6bAAD8KC13HbnGMHztDvDCwS5TLfghgTnFSAGQQF4gidA2hoNLK+zyf64ICqKSsiolD/8BTGhkZpciIUH7JboyOpPK71ZSyfSvrJ8gtdCQmMpyfjwgLJRcXJ2pqfsQkBLqChFp4vrCTvVfXQBPjk7QuMIC2btnAYQTkpSAcBc+Cl+faF8mIU9OcV4ETOHh4Q9R6zlFB35HvAF0D+UBiJMbU3/+U+wLdj+OwwyjVNbTweEA4oJ/QNRAKnOaB50Mu+yNgIAg/423xbA6CUoKF8TdLf5u7u1ZzP+7BNfeIlzXZWu83TUic2y+tbWm9fynKdsQcmRv3SpX9fPo5TU5Nsi67OLuQs4vhCODk1BQ54zigkxPvhvBvuFaRbo5jgnhhI3QxOTVNri7OfOIBvxnYujNNT00hM4hwOIDvcXXhv6MtGFK0MTk5yYYacpFUiAt/n5qanvlegjP/N1z/0P25fTW2gT9MTE4Y+u/iYpA9Pc0G2fjNBfyGi39zciIXVxeD7OnnLBfPma4PR8z3SliTWuzgc8wL9GLOXCnpGvQKeqFW11g/naCDhhAb5nN6apqmpqFrrvxywHxDf426hn5PTU7xyQSDjjnzfS907UVfjW0o6tqU4T6zuubiwutLT11zhG6uBDvYU/cRdVaAICAHgSRJ0f6cTCQIAoKAICAICAJLH4Heuo+oo+Jn7JnkkwzWjjnOHZI9YitKHgQlGEX2fFT0wESPNkx7prZNtffZ2r6l50S2Y/TJkevbdE5Ftn3ypxyJq6xhAwKOwhwEoX2GIMCHKMcclz6pkx4KAoKAICAICAJ2R2AuQZj1INhdqggQBAQBQUAQEAQEgSWNgCJBcJT7wlroQNy+9nH7ipvOsW460fMXCCymbZk7D462LY6U7eixLeacimz7ho166z+k9nLkIBjqYUiIYUnzOemcICAICAKCgCDgGAR665GD8FPrSYoLOR64FI/7aTlaZDyGiSnRciRTxj0fL60Yar1/JRwtEt2cX4kRemB6dNoWnGRNLp01acv8iT2wXrHXFlzNrYueepxi+DkLxUFp8SA4hpiJFEFAEBAEBAFBYEkjYPAgGAmCxhCDPWJdatES2frlJwjmlhEQXbOPrtkDV0ttOjIPwJJGrbRxi/1YufZDNUFQu/CMUGm939YFpfScnrLVKr+t49azr1rb0nr/Up0jrePQer+MWxtBsPea1Dp/Wu/XuuZFP0Q/Vqr9fznEoNGDoOdCkrYEAUFAEBAEzCOAz2fjMn5SezGwwqeW8WllfMpZS7Ekpb6iHR6PmUqpizE+kfkyAi97EGZyECwdHdH7WIkpuxfZ84+tCOb6HOXRomtzl4keLmGRbUBUb102NeiOtB+Oln39dhkni+Xlps97j6FOQUdXD9dRWB8eylnnSrtaW3UZxZxQ1XFsbIxuFVdywSeUXLY2p+bmA0QDbeJKTdxKLq6unACudKnt80LW2MjIM2pubeNCUC4oOjBzOUK2mnFrGZuea8xIEAz6JEmKQiAFAUFAEHAoAni5o1gSPAPGolhKHbhw5Ra/+A/t28nGGrWY2GijGNj0NJdCnpicop1ZKbOFwbg4mNNMAaWZ+2d+MrzcZ34D80CxJMNvaNvwmsFv+PevfvNH+tbbxyjQ348LJ6HQl7H42FwZeB7jQT/xO5+fn2Er+J0p4syZ+puFFfy/UZrczc31ZdmzfeYOchuGPhn+PVfGi/E9ZwJq/H9zZZuOaXacMyfTOrt76cq1InrnzUNctl0uAwJzCcLsKQYlBmL8zdLfjHOj9iig1vtFtvrjX3od95u7UNTogN5zZMrkHambIlvdkSo9dc1Uxxw534she3T0GX19o4gKS+9QRnICvXp4L7m5uih6WkAQsM3evDGKCooraeTZMxocGqakhDgu+/zJZ+e59PKBvBzaGBNJV64VUHdvP/n7+9Ku7DQuC36rqJwrNUaEBtMajzVUVV0/W230nTcOk4+3J13KL6SHrY+5eugre3dQbX0TFZbd5ZLNmanbqeXRY0PJaG9P+urKTertHyA/Xx/KzUyhQH9f+ujTMxQaHESPO7ppQ/R6emVPDnV299H126U0NDRMvr4+9OqhPKqpewCaQ7kZyeTq5kqDg8N07vJ1LjMOInJgbw6XFH/2bIwO79/F5acxnpTErfS7P57iMcBrghLQeTsyuLT19YJS8lizhgZmSqrj92djY3TtVgmXnvby9KTcrBTy8vSgW4Xl9GxsnIIC/OlxZxd1dPVSevI22rMjg3x8vF860r5a7aAxB8FQrEk8CEIcBQFBQBBwGAJ4GZ469zXVNjZTWHAQ/c2Pvk1r3JV3sEYPQmxMJJVU3KPduen8Ev+Pjz6j//rj71J1XSOX48aL+szFfBobG6eczBRqaGqh0WdjtD4shG4WltPxo3speF0Qk5KnT4fowJ4cupRfQH6+3pSaFE8l5fdoc2w0VdytocAAP9qZnUq//u0n9J23X2V5l68XUVpSPJVV3id/Px/aszOTX96tjzooIX4TffrlRXr3zaPk5bWWrlwrpJTtcTQ4PMK5BkGB/nT1RjElJmyhoaGRlzwIDx+105XrhfTK3lz+W0hwIN25V0+jz57Rqwfz6F5tI3V191F6cjz9+wcn6eC+HRz2gOfk6eAQrQsKoMKSSvruO69zyfX8WyUUHBRA3T395OfnQ7ty0uhByyMqKrtLSdviqLi8ijJStlF83Cbqf/KELucX0jtvHiY3V4M3Qy4zHoTlDoyluJG9x7aYsu09NmlfEBAE9EUAO9jKqlqqb2qhTRuiKDs9yWwS4lyCUN/0kHZkJdNaDw/6n//79/STH75HdY3NTBDgsv+/H53k9vDSf/ZsnNauXUMuzi5U0/CAvvnGYULCI7wCyFnAjvnqzWL2MEB+2d1qJimtbR0UERZMO7PS6Ne/e5kgIG/g/OUb9PqRfRQVEUpt7V1UWVVDsRui6FL+bfrJD97jnf/1gjKKiQrnsAJe7h5r3KnhQQttj99Cw8OjLxGEwaERfmkjhIErKX4L1TQ0vyAINY3U1WMgCL/96Av60fvfIG+vtYwd8Ajw82WvxTeOH6TJqSkqLqtiD0tPbz/tyknnfgw8HaLL1wo4f6K9o5vJDUhQV0+vEAQF1bYaYjB1s1pzteh5v55tKbnHLbW/WmWrwUmJBFn6Tc/79WxLqy6L7BeIOWq+lV7HK0322PgEjYw+I2/PtexqN5e0ZgwxwIPQMEMQPNZ60C9+9Xv6Lz98j+obm2l8YoJ2ZKXSF2evUFBgAGWlbecX88joKOcb3KttoHeOH+YXKHbSpgQhPDSYauof8C4eHoI1a9xoR2YqE4T3Thwld3c3ujLjQcDzeNFCXl1DMzU2t/KO/sxX+S8RhNCQddT4oIW2xW/iMAWIBcjLXIKAcXd0dNPo2Bh5eXlyCCU8LJiTIjs6e+it1w8yecALfkdmMv3mg5P02pG9tHljNJXfraaevicUHBhAJZVV9L33TtDz59N07VYpE6Tu3j7CuLLSEpnIgLRsj99EjQ9amRwFBPhRd08vXbpawB4E5CCIHTSEF0EQOip/zsvQWUIM+u4OpDVBQBAQBPRCwJIH4W9//G3Owr96o4hzEjbHxtDFq7fYUwCXeXZGErk4OVPl/VomCEiKVPIgIETw5bmr7HEYHhmlLZs20P7dWfTnLy7Q08Fhzj3o6O6l9KR48vDwoFPnrpCTsxMnLcL7gNyDj0+efYkgREWGUXtnF7W0dnCYASQGIYrxcXgKXiQpPnzUwd4HJBQiORK5FJ6envThn78kT8+1PJbYDZGUm5HEIYbg4AAaH5vgnIrduWk0MTHJ+RweHmvo+fRz8vfzpf152UwyLl5Fu8Q5GtlpiZy3UHanmgkCPAj9A4P08V/OUPC6QNq7K5P/2xxR02s+l0M7RoLAhZqMBMHSMQk9j1AAINPdgMjWhonSLtjarmslY67X2GzRc5Ft0Dxb17Bgbvk47zROBTDCMNUzJwT41MA0OeFbAjPfKED2Pl7EyPTHyxgvUFcX59nnnGdOFcw9FcBZ/tglOjnRxNQUt8knFWZOIUD29NQ0x/a5BzMnEXAfZLi6uLIcdBAvZ+OJiBd9Jg5h4HmEOuYew+QTCjOnCUBccBIDspHvgAveDvzHHbkBTk40OTlJv/r3j+kH3z5Bnms9DONzdeE8iMp7tYRkS5AFeDuM31hAPxBqcXd3ZfmGDEQDhrOyp6eZROA0iWnirZ7vqsXUc62JXRInAAAHmUlEQVTvCxCEzhkPgiQpLgdKJ30UBAQBQWAVIwAvwB8+Oc1EAKcujBdCHAiPvHZozypGR9+hGwmCgUZZ+FCSo+J+lo41KbEfPePCIlv5GKURdzVxOa1ztJiYL6SvpphobUvr/YuJk8heXetitc73QtbkSrUHIAhdlT9nnxXRtFRz1Jd/SWuCgCAgCAgCgsDyRKCPQww/nQm5yHcQlucsSq8FAUFAEBAEBAGdEeir/5A6K3/2MkFYiIvJ1A2tZ1vWXEAi2/qX77RiqPV+a/NtzzkS2fp8adNSSElNmMnSPFibI5Gt/xpeypiLPXD8fGvBvLf+Q+qq/Bk5z3yf22l0bBLPyyUICAKCgCAgCAgCqxgBeBC6KuBBmDk1A4Jg6zElpd2mEra2tm/L8RBT+SJb2zFKwdzxlSRXK+a22A+91rfIVq/nponhttpUWzAX2QbUHIX5XILAR17Fg7CK6aIMXRAQBAQBQUAQmEGgX8mDYG3XrwY9peOHlp6zdL+ebWkdm8h+gZij5khJjsier7l66uZiYi5r0vFrTA/MZU2u3DVpnFsQhO6Kn7HPAtXANXkQbFUQrYZND2U2tiGy1dA75XtkvrUZhMXUNdtn2T4vK639sVXXtMrR07aIbNsRsPd829r+Yq7hpSD7CROEn/LEcslnCTHYruTypCAgCAgCgoAgsFIQMBIE46enmSAoJUAYf7P0N4Biep+1tpiZKDxnri2t95t+U3tu/7S2pfX+pSjbEXNkbtwiW/0xRL10baVjrhdOsAta29J6v9gD60f69H5fiC1aGOYIMfTOeBBY38WDsFK4n4xDEBAEBAFBQBCwHQF4EHoqDF9SnA0xWDpCMVeUPeI6Ilv9cSPTaddjPvRow9Z+iez5C9nemDi6fUeub9OxiWz72xZ765Ml2yKy9bcfBoLwzy8TBNv5hjwpCAgCgoAgIAgIAisBARCEXiYIhlLjEmJYCbMqYxAEBAFBQBAQBBaIwJM6EIR/ImcJMVj+OpWEVsQ9qbTW9HBr6tGGhHUMCKg9GuZozMV+iP1YjvZjYIYgwHug+TsICyQn8rggIAgIAoKAICAILFEEBur+QH3GEIPxOwiOOmqyWo8WybjluJ/eawz2Rctx4aV45E7WhePXxWrFfK63Sc0RfltwWswjlnrZg4H6P1B/+T+xYsqHkpYoi5NuCQKCgCAgCAgCjkbgKTwIIAgzGxBNSYr2iOOpBUBkz0fKVkwEc8sI2Iqr2ni4JekrWbY9xqYWc5Et9sOIgK26sBrsJggCPAjwHrAXwdyHktQuPDWgqwXW1ra09lVrf2w16ErP6dlXrW1pvV/Grc2oyny/QGCl6JpWW6F13FrvlzUpa9Ke78mndR8YCIItHgSti0XuFwQEAUFAEBAEBIHlgcAgE4R/nCEITgYPglIClRJLsdU1Y2v7lp6bC7fafpneZ2u/RLb6I0zLBXNb5tR0yTtSn0S2AQHBfP5a1Ntuiq45XtcWy26CIDwxJQjLg9tILwUBQUAQEAQEAUHAXgiAIAyU/6Mh/wD/58hqjnMZv9qjJnodHRHZ6o5UKe2klXYkauZPK+YiW90cWZqP5Ya5qR45UtdEtvXKf7ImV9eaZIJQZggx4NJ0isFerEXaFQQEAUFAEBAEBIHFRWCo7vf0pGwmSdH4oaTF7dLCpeuZCay1N4spW2tf5X5BQBAQBAQBQcAcArMEYe6HkpRecpZ+s9f9xk6L7BfTp+TKdzRO9ppvNWMT2fN1wZrbd6H6sZiYKxkusQdiD9TYipW8Lhy1JkEQBkpnTjGsFA+C8EFBQBAQBAQBQUAQWBgCQ7W/p6dl/8CNzH5q2ZFHhRbr+AYGLLINyrOS5luvObXlaJjIXpg+CeaOPy4smK8uzJW8Kpa8dMO18CD8g4EcGJMUJXN4fqaq3pnikjFtPWN6MTG35p7UMn9zSZiSa1TNb7ImZU2q0RPRNXWnDGzByTRUtxrWJDwIgzMEgb0I5j61vDBHhTwtCAgCgoAgIAgIAssJAXgQntqDICxmNr/IdrwKCuaCuaMQWExds/cYF3NsItveszu//aWO+XDt79iDgPjCbIjBUkzCmuvV1A2zkPv1bEtr1qvINiiE1piVvefbXrqpZr5F9gsE5CTBfCzslVmuRjcXU7asC33XhZr5dhTmswSBkxSfS4jB8RxSJAoCgoAgIAgIAksPASNBQJLic5ohCCspq90UclvHZku2r8g2ICCY2//EjJygcLyuCebLF3NbPKN6zfdykj1S+7vZHIRZgrD0eIz0SBAQBAQBQUAQEAQciYCBIPwPcmL/gQUPgq0xR2tH1UzjLQu5X03sRu041OQs6Bn3W8i4F9pXka18NMqeuimYOx5zpZ2b2IMXqKg9RinrwvoRbUfqmj3tPwjCUOnfsx+Y5cgxR0fyM5ElCAgCgoAgIAgsTQSMBMFAD4QgLM1Zkl4JAoKAICAICAIORuAlgoCCTfAg6On+1LMta24bU1eLyLa/G9ee7i2t823tfj1dozJu88dgLa07WZOOX5OLibmsScfPt56YM0Eo+XtD/oEUa3IwPRNxgoAgIAgIAoLAEkUABGGw5L8bwgv//8M4/w+mlW0LTQ+OrgAAAABJRU5ErkJggg==;" vertex="1" parent="36">
                    <mxGeometry x="15" y="27.929999999999836" width="170" height="162.15" as="geometry"/>
                </mxCell>
                <mxCell id="66" style="edgeStyle=none;html=1;entryX=0;entryY=0.5;entryDx=0;entryDy=0;" edge="1" parent="1" source="33" target="36">
                    <mxGeometry relative="1" as="geometry"/>
                </mxCell>
            </root>
        </mxGraphModel>
    </diagram>
</mxfile>